<?xml version="1.0" encoding="UTF-8"?>
<svg xmlns="http://www.w3.org/2000/svg" width="810" height="150" viewBox="0 0 810 150">
<rect width="810" height="150" fill="#0f172a"/>
<text x="16" y="28" font-size="12" fill="#e5e7eb" font-family="Arial, sans-serif">2019</text>
<text x="52" y="28" font-size="10" fill="#cbd5e1" font-family="Arial, sans-serif">Jan</text>
<text x="108" y="28" font-size="10" fill="#cbd5e1" font-family="Arial, sans-serif">Feb</text>
<text x="164" y="28" font-size="10" fill="#cbd5e1" font-family="Arial, sans-serif">Mar</text>
<text x="234" y="28" font-size="10" fill="#cbd5e1" font-family="Arial, sans-serif">Apr</text>
<text x="290" y="28" font-size="10" fill="#cbd5e1" font-family="Arial, sans-serif">May</text>
<text x="346" y="28" font-size="10" fill="#cbd5e1" font-family="Arial, sans-serif">Jun</text>
<text x="416" y="28" font-size="10" fill="#cbd5e1" font-family="Arial, sans-serif">Jul</text>
<text x="472" y="28" font-size="10" fill="#cbd5e1" font-family="Arial, sans-serif">Aug</text>
<text x="528" y="28" font-size="10" fill="#cbd5e1" font-family="Arial, sans-serif">Sep</text>
<text x="598" y="28" font-size="10" fill="#cbd5e1" font-family="Arial, sans-serif">Oct</text>
<text x="654" y="28" font-size="10" fill="#cbd5e1" font-family="Arial, sans-serif">Nov</text>
<text x="710" y="28" font-size="10" fill="#cbd5e1" font-family="Arial, sans-serif">Dec</text>
<text x="46" y="46" font-size="9" fill="#cbd5e1" font-family="Arial, sans-serif" text-anchor="end">Mon</text>
<text x="46" y="60" font-size="9" fill="#cbd5e1" font-family="Arial, sans-serif" text-anchor="end">Tue</text>
<text x="46" y="74" font-size="9" fill="#cbd5e1" font-family="Arial, sans-serif" text-anchor="end">Wed</text>
<text x="46" y="88" font-size="9" fill="#cbd5e1" font-family="Arial, sans-serif" text-anchor="end">Thu</text>
<text x="46" y="102" font-size="9" fill="#cbd5e1" font-family="Arial, sans-serif" text-anchor="end">Fri</text>
<text x="46" y="116" font-size="9" fill="#cbd5e1" font-family="Arial, sans-serif" text-anchor="end">Sat</text>
<text x="46" y="130" font-size="9" fill="#cbd5e1" font-family="Arial, sans-serif" text-anchor="end">Sun</text>
<g transform="translate(52,36)">
<rect x="0" y="0" width="12" height="12" fill="#0f172a" stroke="#0f172a" stroke-width="1"/>
<rect x="0" y="14" width="12" height="12" fill="#0f172a" stroke="#0f172a" stroke-width="1"/>
<rect x="0" y="28" width="12" height="12" fill="#0f172a" stroke="#0f172a" stroke-width="1"/>
<rect x="0" y="42" width="12" height="12" fill="#0f172a" stroke="#0f172a" stroke-width="1"/>
<rect x="0" y="56" width="12" height="12" fill="#0f172a" stroke="#0f172a" stroke-width="1"/>
<rect x="0" y="70" width="12" height="12" fill="#0f172a" stroke="#0f172a" stroke-width="1"/>
<rect x="0" y="84" width="12" height="12" fill="#34d399" stroke="#0f172a" stroke-width="1"><title>2019-01-06
1 workout
Distance: 8.63 km
Duration: 23m
Avg speed: 22392.9 km/h
Elevation: 23 m</title></rect>
<rect x="14" y="0" width="12" height="12" fill="#0f172a" stroke="#0f172a" stroke-width="1"/>
<rect x="14" y="14" width="12" height="12" fill="#0f172a" stroke="#0f172a" stroke-width="1"/>
<rect x="14" y="28" width="12" height="12" fill="#0f172a" stroke="#0f172a" stroke-width="1"/>
<rect x="14" y="42" width="12" height="12" fill="#0f172a" stroke="#0f172a" stroke-width="1"/>
<rect x="14" y="56" width="12" height="12" fill="#0f172a" stroke="#0f172a" stroke-width="1"/>
<rect x="14" y="70" width="12" height="12" fill="#0f172a" stroke="#0f172a" stroke-width="1"/>
<rect x="14" y="84" width="12" height="12" fill="#0f172a" stroke="#0f172a" stroke-width="1"/>
<rect x="28" y="0" width="12" height="12" fill="#0f172a" stroke="#0f172a" stroke-width="1"/>
<rect x="28" y="14" width="12" height="12" fill="#0f172a" stroke="#0f172a" stroke-width="1"/>
<rect x="28" y="28" width="12" height="12" fill="#0f172a" stroke="#0f172a" stroke-width="1"/>
<rect x="28" y="42" width="12" height="12" fill="#0f172a" stroke="#0f172a" stroke-width="1"/>
<rect x="28" y="56" width="12" height="12" fill="#0f172a" stroke="#0f172a" stroke-width="1"/>
<rect x="28" y="70" width="12" height="12" fill="#0f172a" stroke="#0f172a" stroke-width="1"/>
<rect x="28" y="84" width="12" height="12" fill="#0f172a" stroke="#0f172a" stroke-width="1"/>
<rect x="42" y="0" width="12" height="12" fill="#0f172a" stroke="#0f172a" stroke-width="1"/>
<rect x="42" y="14" width="12" height="12" fill="#0f172a" stroke="#0f172a" stroke-width="1"/>
<rect x="42" y="28" width="12" height="12" fill="#0f172a" stroke="#0f172a" stroke-width="1"/>
<rect x="42" y="42" width="12" height="12" fill="#0f172a" stroke="#0f172a" stroke-width="1"/>
<rect x="42" y="56" width="12" height="12" fill="#0f172a" stroke="#0f172a" stroke-width="1"/>
<rect x="42" y="70" width="12" height="12" fill="#0f172a" stroke="#0f172a" stroke-width="1"/>
<rect x="42" y="84" width="12" height="12" fill="#0f172a" stroke="#0f172a" stroke-width="1"/>
<rect x="56" y="0" width="12" height="12" fill="#0f172a" stroke="#0f172a" stroke-width="1"/>
<rect x="56" y="14" width="12" height="12" fill="#0f172a" stroke="#0f172a" stroke-width="1"/>
<rect x="56" y="28" width="12" height="12" fill="#0f172a" stroke="#0f172a" stroke-width="1"/>
<rect x="56" y="42" width="12" height="12" fill="#0f172a" stroke="#0f172a" stroke-width="1"/>
<rect x="56" y="56" width="12" height="12" fill="#0f172a" stroke="#0f172a" stroke-width="1"/>
<rect x="56" y="70" width="12" height="12" fill="#0f172a" stroke="#0f172a" stroke-width="1"/>
<rect x="56" y="84" width="12" height="12" fill="#0f172a" stroke="#0f172a" stroke-width="1"/>
<rect x="70" y="0" width="12" height="12" fill="#0f172a" stroke="#0f172a" stroke-width="1"/>
<rect x="70" y="14" width="12" height="12" fill="#0f172a" stroke="#0f172a" stroke-width="1"/>
<rect x="70" y="28" width="12" height="12" fill="#0f172a" stroke="#0f172a" stroke-width="1"/>
<rect x="70" y="42" width="12" height="12" fill="#0f172a" stroke="#0f172a" stroke-width="1"/>
<rect x="70" y="56" width="12" height="12" fill="#0f172a" stroke="#0f172a" stroke-width="1"/>
<rect x="70" y="70" width="12" height="12" fill="#0f172a" stroke="#0f172a" stroke-width="1"/>
<rect x="70" y="84" width="12" height="12" fill="#0f172a" stroke="#0f172a" stroke-width="1"/>
<rect x="84" y="0" width="12" height="12" fill="#0f172a" stroke="#0f172a" stroke-width="1"/>
<rect x="84" y="14" width="12" height="12" fill="#0f172a" stroke="#0f172a" stroke-width="1"/>
<rect x="84" y="28" width="12" height="12" fill="#0f172a" stroke="#0f172a" stroke-width="1"/>
<rect x="84" y="42" width="12" height="12" fill="#0f172a" stroke="#0f172a" stroke-width="1"/>
<rect x="84" y="56" width="12" height="12" fill="#0f172a" stroke="#0f172a" stroke-width="1"/>
<rect x="84" y="70" width="12" height="12" fill="#0f172a" stroke="#0f172a" stroke-width="1"/>
<rect x="84" y="84" width="12" height="12" fill="#0f172a" stroke="#0f172a" stroke-width="1"/>
<rect x="98" y="0" width="12" height="12" fill="#0f172a" stroke="#0f172a" stroke-width="1"/>
<rect x="98" y="14" width="12" height="12" fill="#0f172a" stroke="#0f172a" stroke-width="1"/>
<rect x="98" y="28" width="12" height="12" fill="#0f172a" stroke="#0f172a" stroke-width="1"/>
<rect x="98" y="42" width="12" height="12" fill="#0f172a" stroke="#0f172a" stroke-width="1"/>
<rect x="98" y="56" width="12" height="12" fill="#0f172a" stroke="#0f172a" stroke-width="1"/>
<rect x="98" y="70" width="12" height="12" fill="#0f172a" stroke="#0f172a" stroke-width="1"/>
<rect x="98" y="84" width="12" height="12" fill="#0f172a" stroke="#0f172a" stroke-width="1"/>
<rect x="112" y="0" width="12" height="12" fill="#0f172a" stroke="#0f172a" stroke-width="1"/>
<rect x="112" y="14" width="12" height="12" fill="#0f172a" stroke="#0f172a" stroke-width="1"/>
<rect x="112" y="28" width="12" height="12" fill="#0f172a" stroke="#0f172a" stroke-width="1"/>
<rect x="112" y="42" width="12" height="12" fill="#0f172a" stroke="#0f172a" stroke-width="1"/>
<rect x="112" y="56" width="12" height="12" fill="#0f172a" stroke="#0f172a" stroke-width="1"/>
<rect x="112" y="70" width="12" height="12" fill="#0f172a" stroke="#0f172a" stroke-width="1"/>
<rect x="112" y="84" width="12" height="12" fill="#0f172a" stroke="#0f172a" stroke-width="1"/>
<rect x="126" y="0" width="12" height="12" fill="#0f172a" stroke="#0f172a" stroke-width="1"/>
<rect x="126" y="14" width="12" height="12" fill="#0f172a" stroke="#0f172a" stroke-width="1"/>
<rect x="126" y="28" width="12" height="12" fill="#0f172a" stroke="#0f172a" stroke-width="1"/>
<rect x="126" y="42" width="12" height="12" fill="#0f172a" stroke="#0f172a" stroke-width="1"/>
<rect x="126" y="56" width="12" height="12" fill="#0f172a" stroke="#0f172a" stroke-width="1"/>
<rect x="126" y="70" width="12" height="12" fill="#0f172a" stroke="#0f172a" stroke-width="1"/>
<rect x="126" y="84" width="12" height="12" fill="#0f172a" stroke="#0f172a" stroke-width="1"/>
<rect x="140" y="0" width="12" height="12" fill="#0f172a" stroke="#0f172a" stroke-width="1"/>
<rect x="140" y="14" width="12" height="12" fill="#0f172a" stroke="#0f172a" stroke-width="1"/>
<rect x="140" y="28" width="12" height="12" fill="#0f172a" stroke="#0f172a" stroke-width="1"/>
<rect x="140" y="42" width="12" height="12" fill="#0f172a" stroke="#0f172a" stroke-width="1"/>
<rect x="140" y="56" width="12" height="12" fill="#0f172a" stroke="#0f172a" stroke-width="1"/>
<rect x="140" y="70" width="12" height="12" fill="#34d399" stroke="#0f172a" stroke-width="1"><title>2019-03-16
1 workout
Distance: 6.74 km
Duration: 18m
Avg speed: 22483.0 km/h
Elevation: 18 m</title></rect>
<rect x="140" y="84" width="12" height="12" fill="#0f172a" stroke="#0f172a" stroke-width="1"/>
<rect x="154" y="0" width="12" height="12" fill="#0f172a" stroke="#0f172a" stroke-width="1"/>
<rect x="154" y="14" width="12" height="12" fill="#0f172a" stroke="#0f172a" stroke-width="1"/>
<rect x="154" y="28" width="12" height="12" fill="#0f172a" stroke="#0f172a" stroke-width="1"/>
<rect x="154" y="42" width="12" height="12" fill="#0f172a" stroke="#0f172a" stroke-width="1"/>
<rect x="154" y="56" width="12" height="12" fill="#0f172a" stroke="#0f172a" stroke-width="1"/>
<rect x="154" y="70" width="12" height="12" fill="#0f172a" stroke="#0f172a" stroke-width="1"/>
<rect x="154" y="84" width="12" height="12" fill="#0f172a" stroke="#0f172a" stroke-width="1"/>
<rect x="168" y="0" width="12" height="12" fill="#0f172a" stroke="#0f172a" stroke-width="1"/>
<rect x="168" y="14" width="12" height="12" fill="#0f172a" stroke="#0f172a" stroke-width="1"/>
<rect x="168" y="28" width="12" height="12" fill="#0f172a" stroke="#0f172a" stroke-width="1"/>
<rect x="168" y="42" width="12" height="12" fill="#0f172a" stroke="#0f172a" stroke-width="1"/>
<rect x="168" y="56" width="12" height="12" fill="#0f172a" stroke="#0f172a" stroke-width="1"/>
<rect x="168" y="70" width="12" height="12" fill="#0f172a" stroke="#0f172a" stroke-width="1"/>
<rect x="168" y="84" width="12" height="12" fill="#0f172a" stroke="#0f172a" stroke-width="1"/>
<rect x="182" y="0" width="12" height="12" fill="#0f172a" stroke="#0f172a" stroke-width="1"/>
<rect x="182" y="14" width="12" height="12" fill="#0f172a" stroke="#0f172a" stroke-width="1"/>
<rect x="182" y="28" width="12" height="12" fill="#0f172a" stroke="#0f172a" stroke-width="1"/>
<rect x="182" y="42" width="12" height="12" fill="#0f172a" stroke="#0f172a" stroke-width="1"/>
<rect x="182" y="56" width="12" height="12" fill="#0f172a" stroke="#0f172a" stroke-width="1"/>
<rect x="182" y="70" width="12" height="12" fill="#0f172a" stroke="#0f172a" stroke-width="1"/>
<rect x="182" y="84" width="12" height="12" fill="#0f172a" stroke="#0f172a" stroke-width="1"/>
<rect x="196" y="0" width="12" height="12" fill="#0f172a" stroke="#0f172a" stroke-width="1"/>
<rect x="196" y="14" width="12" height="12" fill="#0f172a" stroke="#0f172a" stroke-width="1"/>
<rect x="196" y="28" width="12" height="12" fill="#0f172a" stroke="#0f172a" stroke-width="1"/>
<rect x="196" y="42" width="12" height="12" fill="#0f172a" stroke="#0f172a" stroke-width="1"/>
<rect x="196" y="56" width="12" height="12" fill="#0f172a" stroke="#0f172a" stroke-width="1"/>
<rect x="196" y="70" width="12" height="12" fill="#0f172a" stroke="#0f172a" stroke-width="1"/>
<rect x="196" y="84" width="12" height="12" fill="#0f172a" stroke="#0f172a" stroke-width="1"/>
<rect x="210" y="0" width="12" height="12" fill="#0f172a" stroke="#0f172a" stroke-width="1"/>
<rect x="210" y="14" width="12" height="12" fill="#0f172a" stroke="#0f172a" stroke-width="1"/>
<rect x="210" y="28" width="12" height="12" fill="#0f172a" stroke="#0f172a" stroke-width="1"/>
<rect x="210" y="42" width="12" height="12" fill="#0f172a" stroke="#0f172a" stroke-width="1"/>
<rect x="210" y="56" width="12" height="12" fill="#0f172a" stroke="#0f172a" stroke-width="1"/>
<rect x="210" y="70" width="12" height="12" fill="#0f172a" stroke="#0f172a" stroke-width="1"/>
<rect x="210" y="84" width="12" height="12" fill="#0f172a" stroke="#0f172a" stroke-width="1"/>
<rect x="224" y="0" width="12" height="12" fill="#0f172a" stroke="#0f172a" stroke-width="1"/>
<rect x="224" y="14" width="12" height="12" fill="#0f172a" stroke="#0f172a" stroke-width="1"/>
<rect x="224" y="28" width="12" height="12" fill="#0f172a" stroke="#0f172a" stroke-width="1"/>
<rect x="224" y="42" width="12" height="12" fill="#0f172a" stroke="#0f172a" stroke-width="1"/>
<rect x="224" y="56" width="12" height="12" fill="#0f172a" stroke="#0f172a" stroke-width="1"/>
<rect x="224" y="70" width="12" height="12" fill="#0f172a" stroke="#0f172a" stroke-width="1"/>
<rect x="224" y="84" width="12" height="12" fill="#0f172a" stroke="#0f172a" stroke-width="1"/>
<rect x="238" y="0" width="12" height="12" fill="#0f172a" stroke="#0f172a" stroke-width="1"/>
<rect x="238" y="14" width="12" height="12" fill="#0f172a" stroke="#0f172a" stroke-width="1"/>
<rect x="238" y="28" width="12" height="12" fill="#0f172a" stroke="#0f172a" stroke-width="1"/>
<rect x="238" y="42" width="12" height="12" fill="#0f172a" stroke="#0f172a" stroke-width="1"/>
<rect x="238" y="56" width="12" height="12" fill="#0f172a" stroke="#0f172a" stroke-width="1"/>
<rect x="238" y="70" width="12" height="12" fill="#0f172a" stroke="#0f172a" stroke-width="1"/>
<rect x="238" y="84" width="12" height="12" fill="#0f172a" stroke="#0f172a" stroke-width="1"/>
<rect x="252" y="0" width="12" height="12" fill="#0f172a" stroke="#0f172a" stroke-width="1"/>
<rect x="252" y="14" width="12" height="12" fill="#0f172a" stroke="#0f172a" stroke-width="1"/>
<rect x="252" y="28" width="12" height="12" fill="#0f172a" stroke="#0f172a" stroke-width="1"/>
<rect x="252" y="42" width="12" height="12" fill="#0f172a" stroke="#0f172a" stroke-width="1"/>
<rect x="252" y="56" width="12" height="12" fill="#0f172a" stroke="#0f172a" stroke-width="1"/>
<rect x="252" y="70" width="12" height="12" fill="#0f172a" stroke="#0f172a" stroke-width="1"/>
<rect x="252" y="84" width="12" height="12" fill="#0f172a" stroke="#0f172a" stroke-width="1"/>
<rect x="266" y="0" width="12" height="12" fill="#0f172a" stroke="#0f172a" stroke-width="1"/>
<rect x="266" y="14" width="12" height="12" fill="#0f172a" stroke="#0f172a" stroke-width="1"/>
<rect x="266" y="28" width="12" height="12" fill="#0f172a" stroke="#0f172a" stroke-width="1"/>
<rect x="266" y="42" width="12" height="12" fill="#0f172a" stroke="#0f172a" stroke-width="1"/>
<rect x="266" y="56" width="12" height="12" fill="#0f172a" stroke="#0f172a" stroke-width="1"/>
<rect x="266" y="70" width="12" height="12" fill="#0f172a" stroke="#0f172a" stroke-width="1"/>
<rect x="266" y="84" width="12" height="12" fill="#0f172a" stroke="#0f172a" stroke-width="1"/>
<rect x="280" y="0" width="12" height="12" fill="#0f172a" stroke="#0f172a" stroke-width="1"/>
<rect x="280" y="14" width="12" height="12" fill="#0f172a" stroke="#0f172a" stroke-width="1"/>
<rect x="280" y="28" width="12" height="12" fill="#0f172a" stroke="#0f172a" stroke-width="1"/>
<rect x="280" y="42" width="12" height="12" fill="#0f172a" stroke="#0f172a" stroke-width="1"/>
<rect x="280" y="56" width="12" height="12" fill="#0f172a" stroke="#0f172a" stroke-width="1"/>
<rect x="280" y="70" width="12" height="12" fill="#0f172a" stroke="#0f172a" stroke-width="1"/>
<rect x="280" y="84" width="12" height="12" fill="#0f172a" stroke="#0f172a" stroke-width="1"/>
<rect x="294" y="0" width="12" height="12" fill="#0f172a" stroke="#0f172a" stroke-width="1"/>
<rect x="294" y="14" width="12" height="12" fill="#0f172a" stroke="#0f172a" stroke-width="1"/>
<rect x="294" y="28" width="12" height="12" fill="#0f172a" stroke="#0f172a" stroke-width="1"/>
<rect x="294" y="42" width="12" height="12" fill="#0f172a" stroke="#0f172a" stroke-width="1"/>
<rect x="294" y="56" width="12" height="12" fill="#0f172a" stroke="#0f172a" stroke-width="1"/>
<rect x="294" y="70" width="12" height="12" fill="#0f172a" stroke="#0f172a" stroke-width="1"/>
<rect x="294" y="84" width="12" height="12" fill="#0f172a" stroke="#0f172a" stroke-width="1"/>
<rect x="308" y="0" width="12" height="12" fill="#0f172a" stroke="#0f172a" stroke-width="1"/>
<rect x="308" y="14" width="12" height="12" fill="#0f172a" stroke="#0f172a" stroke-width="1"/>
<rect x="308" y="28" width="12" height="12" fill="#0f172a" stroke="#0f172a" stroke-width="1"/>
<rect x="308" y="42" width="12" height="12" fill="#0f172a" stroke="#0f172a" stroke-width="1"/>
<rect x="308" y="56" width="12" height="12" fill="#0f172a" stroke="#0f172a" stroke-width="1"/>
<rect x="308" y="70" width="12" height="12" fill="#0f172a" stroke="#0f172a" stroke-width="1"/>
<rect x="308" y="84" width="12" height="12" fill="#0f172a" stroke="#0f172a" stroke-width="1"/>
<rect x="322" y="0" width="12" height="12" fill="#0f172a" stroke="#0f172a" stroke-width="1"/>
<rect x="322" y="14" width="12" height="12" fill="#0f172a" stroke="#0f172a" stroke-width="1"/>
<rect x="322" y="28" width="12" height="12" fill="#0f172a" stroke="#0f172a" stroke-width="1"/>
<rect x="322" y="42" width="12" height="12" fill="#0f172a" stroke="#0f172a" stroke-width="1"/>
<rect x="322" y="56" width="12" height="12" fill="#0f172a" stroke="#0f172a" stroke-width="1"/>
<rect x="322" y="70" width="12" height="12" fill="#0f172a" stroke="#0f172a" stroke-width="1"/>
<rect x="322" y="84" width="12" height="12" fill="#05ffa1" stroke="#0f172a" stroke-width="1"><title>2019-06-16
1 workout
Distance: 3.21 km
Duration: 7m
Avg speed: 27257.3 km/h
Elevation: 16 m</title></rect>
<rect x="336" y="0" width="12" height="12" fill="#05ffa1" stroke="#0f172a" stroke-width="1"><title>2019-06-17
1 workout
Distance: 10.07 km
Duration: 23m
Avg speed: 25809.0 km/h
Elevation: 48 m</title></rect>
<rect x="336" y="14" width="12" height="12" fill="#05ffa1" stroke="#0f172a" stroke-width="1"><title>2019-06-18
1 workout
Distance: 10.06 km
Duration: 21m
Avg speed: 27797.6 km/h
Elevation: 28 m</title></rect>
<rect x="336" y="28" width="12" height="12" fill="#334155" stroke="#0f172a" stroke-width="1"><title>2019-06-19
1 workout
Distance: 15.93 km
Duration: 45m
Avg speed: 21141.3 km/h
Elevation: 202 m</title></rect>
<rect x="336" y="42" width="12" height="12" fill="#334155" stroke="#0f172a" stroke-width="1"><title>2019-06-20
1 workout
Distance: 14.28 km
Duration: 40m
Avg speed: 21303.0 km/h
Elevation: 164 m</title></rect>
<rect x="336" y="56" width="12" height="12" fill="#0f172a" stroke="#0f172a" stroke-width="1"/>
<rect x="336" y="70" width="12" height="12" fill="#0f172a" stroke="#0f172a" stroke-width="1"/>
<rect x="336" y="84" width="12" height="12" fill="#0f172a" stroke="#0f172a" stroke-width="1"/>
<rect x="350" y="0" width="12" height="12" fill="#0f172a" stroke="#0f172a" stroke-width="1"/>
<rect x="350" y="14" width="12" height="12" fill="#0f172a" stroke="#0f172a" stroke-width="1"/>
<rect x="350" y="28" width="12" height="12" fill="#0f172a" stroke="#0f172a" stroke-width="1"/>
<rect x="350" y="42" width="12" height="12" fill="#0f172a" stroke="#0f172a" stroke-width="1"/>
<rect x="350" y="56" width="12" height="12" fill="#1f2937" stroke="#0f172a" stroke-width="1"><title>2019-06-28
1 workout
Distance: 8.21 km
Duration: 30m
Avg speed: 16427.0 km/h
Elevation: 0 m</title></rect>
<rect x="350" y="70" width="12" height="12" fill="#0f172a" stroke="#0f172a" stroke-width="1"/>
<rect x="350" y="84" width="12" height="12" fill="#10b981" stroke="#0f172a" stroke-width="1"><title>2019-06-30
1 workout
Distance: 23.25 km
Duration: 1h 0m
Avg speed: 23249.4 km/h
Elevation: 0 m</title></rect>
<rect x="364" y="0" width="12" height="12" fill="#0f172a" stroke="#0f172a" stroke-width="1"/>
<rect x="364" y="14" width="12" height="12" fill="#334155" stroke="#0f172a" stroke-width="1"><title>2019-07-02
1 workout
Distance: 20.43 km
Duration: 1h 0m
Avg speed: 20426.7 km/h
Elevation: 0 m</title></rect>
<rect x="364" y="28" width="12" height="12" fill="#0f172a" stroke="#0f172a" stroke-width="1"/>
<rect x="364" y="42" width="12" height="12" fill="#0f172a" stroke="#0f172a" stroke-width="1"/>
<rect x="364" y="56" width="12" height="12" fill="#0f172a" stroke="#0f172a" stroke-width="1"/>
<rect x="364" y="70" width="12" height="12" fill="#0f172a" stroke="#0f172a" stroke-width="1"/>
<rect x="364" y="84" width="12" height="12" fill="#0f172a" stroke="#0f172a" stroke-width="1"/>
<rect x="378" y="0" width="12" height="12" fill="#0f172a" stroke="#0f172a" stroke-width="1"/>
<rect x="378" y="14" width="12" height="12" fill="#0f172a" stroke="#0f172a" stroke-width="1"/>
<rect x="378" y="28" width="12" height="12" fill="#0f172a" stroke="#0f172a" stroke-width="1"/>
<rect x="378" y="42" width="12" height="12" fill="#0f172a" stroke="#0f172a" stroke-width="1"/>
<rect x="378" y="56" width="12" height="12" fill="#0f172a" stroke="#0f172a" stroke-width="1"/>
<rect x="378" y="70" width="12" height="12" fill="#0f172a" stroke="#0f172a" stroke-width="1"/>
<rect x="378" y="84" width="12" height="12" fill="#0f172a" stroke="#0f172a" stroke-width="1"/>
<rect x="392" y="0" width="12" height="12" fill="#0f172a" stroke="#0f172a" stroke-width="1"/>
<rect x="392" y="14" width="12" height="12" fill="#0f172a" stroke="#0f172a" stroke-width="1"/>
<rect x="392" y="28" width="12" height="12" fill="#0f172a" stroke="#0f172a" stroke-width="1"/>
<rect x="392" y="42" width="12" height="12" fill="#0f172a" stroke="#0f172a" stroke-width="1"/>
<rect x="392" y="56" width="12" height="12" fill="#0f172a" stroke="#0f172a" stroke-width="1"/>
<rect x="392" y="70" width="12" height="12" fill="#0f172a" stroke="#0f172a" stroke-width="1"/>
<rect x="392" y="84" width="12" height="12" fill="#0f172a" stroke="#0f172a" stroke-width="1"/>
<rect x="406" y="0" width="12" height="12" fill="#10b981" stroke="#0f172a" stroke-width="1"><title>2019-07-22
1 workout
Distance: 7.65 km
Duration: 20m
Avg speed: 22783.6 km/h
Elevation: 0 m</title></rect>
<rect x="406" y="14" width="12" height="12" fill="#0f172a" stroke="#0f172a" stroke-width="1"/>
<rect x="406" y="28" width="12" height="12" fill="#0f172a" stroke="#0f172a" stroke-width="1"/>
<rect x="406" y="42" width="12" height="12" fill="#0f172a" stroke="#0f172a" stroke-width="1"/>
<rect x="406" y="56" width="12" height="12" fill="#0f172a" stroke="#0f172a" stroke-width="1"/>
<rect x="406" y="70" width="12" height="12" fill="#1f2937" stroke="#0f172a" stroke-width="1"><title>2019-07-27
1 workout
Distance: 19.74 km
Duration: 1h 7m
Avg speed: 17477.0 km/h
Elevation: 142 m</title></rect>
<rect x="406" y="84" width="12" height="12" fill="#34d399" stroke="#0f172a" stroke-width="1"><title>2019-07-28
1 workout
Distance: 21.75 km
Duration: 1h 0m
Avg speed: 21746.6 km/h
Elevation: 0 m</title></rect>
<rect x="420" y="0" width="12" height="12" fill="#05ffa1" stroke="#0f172a" stroke-width="1"><title>2019-07-29
1 workout
Distance: 13.94 km
Duration: 35m
Avg speed: 23894.4 km/h
Elevation: 0 m</title></rect>
<rect x="420" y="14" width="12" height="12" fill="#334155" stroke="#0f172a" stroke-width="1"><title>2019-07-30
1 workout
Distance: 20.93 km
Duration: 1h 0m
Avg speed: 20925.0 km/h
Elevation: 0 m</title></rect>
<rect x="420" y="28" width="12" height="12" fill="#34d399" stroke="#0f172a" stroke-width="1"><title>2019-07-31
3 workouts
Distance: 29.49 km
Duration: 1h 21m
Avg speed: 21777.9 km/h
Elevation: 69 m</title></rect>
<rect x="420" y="42" width="12" height="12" fill="#0f172a" stroke="#0f172a" stroke-width="1"/>
<rect x="420" y="56" width="12" height="12" fill="#334155" stroke="#0f172a" stroke-width="1"><title>2019-08-02
1 workout
Distance: 10.79 km
Duration: 30m
Avg speed: 21573.6 km/h
Elevation: 0 m</title></rect>
<rect x="420" y="70" width="12" height="12" fill="#0f172a" stroke="#0f172a" stroke-width="1"/>
<rect x="420" y="84" width="12" height="12" fill="#34d399" stroke="#0f172a" stroke-width="1"><title>2019-08-04
1 workout
Distance: 11.05 km
Duration: 30m
Avg speed: 22099.4 km/h
Elevation: 0 m</title></rect>
<rect x="434" y="0" width="12" height="12" fill="#0f172a" stroke="#0f172a" stroke-width="1"/>
<rect x="434" y="14" width="12" height="12" fill="#334155" stroke="#0f172a" stroke-width="1"><title>2019-08-06
1 workout
Distance: 21.09 km
Duration: 1h 0m
Avg speed: 21092.0 km/h
Elevation: 0 m</title></rect>
<rect x="434" y="28" width="12" height="12" fill="#0f172a" stroke="#0f172a" stroke-width="1"/>
<rect x="434" y="42" width="12" height="12" fill="#334155" stroke="#0f172a" stroke-width="1"><title>2019-08-08
1 workout
Distance: 16.27 km
Duration: 45m
Avg speed: 21698.5 km/h
Elevation: 0 m</title></rect>
<rect x="434" y="56" width="12" height="12" fill="#0f172a" stroke="#0f172a" stroke-width="1"/>
<rect x="434" y="70" width="12" height="12" fill="#1f2937" stroke="#0f172a" stroke-width="1"><title>2019-08-10
1 workout
Distance: 6.78 km
Duration: 23m
Avg speed: 17075.8 km/h
Elevation: 0 m</title></rect>
<rect x="434" y="84" width="12" height="12" fill="#10b981" stroke="#0f172a" stroke-width="1"><title>2019-08-11
1 workout
Distance: 22.93 km
Duration: 1h 0m
Avg speed: 22933.3 km/h
Elevation: 0 m</title></rect>
<rect x="448" y="0" width="12" height="12" fill="#0f172a" stroke="#0f172a" stroke-width="1"/>
<rect x="448" y="14" width="12" height="12" fill="#334155" stroke="#0f172a" stroke-width="1"><title>2019-08-13
1 workout
Distance: 9.03 km
Duration: 26m
Avg speed: 20334.7 km/h
Elevation: 0 m</title></rect>
<rect x="448" y="28" width="12" height="12" fill="#1f2937" stroke="#0f172a" stroke-width="1"><title>2019-08-14
1 workout
Distance: 19.64 km
Duration: 1h 0m
Avg speed: 19636.1 km/h
Elevation: 0 m</title></rect>
<rect x="448" y="42" width="12" height="12" fill="#0f172a" stroke="#0f172a" stroke-width="1"/>
<rect x="448" y="56" width="12" height="12" fill="#1f2937" stroke="#0f172a" stroke-width="1"><title>2019-08-16
1 workout
Distance: 14.92 km
Duration: 45m
Avg speed: 19889.6 km/h
Elevation: 0 m</title></rect>
<rect x="448" y="70" width="12" height="12" fill="#0f172a" stroke="#0f172a" stroke-width="1"/>
<rect x="448" y="84" width="12" height="12" fill="#0f172a" stroke="#0f172a" stroke-width="1"/>
<rect x="462" y="0" width="12" height="12" fill="#1f2937" stroke="#0f172a" stroke-width="1"><title>2019-08-19
1 workout
Distance: 20.20 km
Duration: 1h 0m
Avg speed: 20204.4 km/h
Elevation: 0 m</title></rect>
<rect x="462" y="14" width="12" height="12" fill="#334155" stroke="#0f172a" stroke-width="1"><title>2019-08-20
1 workout
Distance: 10.75 km
Duration: 30m
Avg speed: 21504.2 km/h
Elevation: 0 m</title></rect>
<rect x="462" y="28" width="12" height="12" fill="#0f172a" stroke="#0f172a" stroke-width="1"/>
<rect x="462" y="42" width="12" height="12" fill="#1f2937" stroke="#0f172a" stroke-width="1"><title>2019-08-22
1 workout
Distance: 15.20 km
Duration: 44m
Avg speed: 20275.0 km/h
Elevation: 0 m</title></rect>
<rect x="462" y="56" width="12" height="12" fill="#05ffa1" stroke="#0f172a" stroke-width="1"><title>2019-08-23
1 workout
Distance: 25.87 km
Duration: 1h 0m
Avg speed: 25872.9 km/h
Elevation: 0 m</title></rect>
<rect x="462" y="70" width="12" height="12" fill="#0f172a" stroke="#0f172a" stroke-width="1"/>
<rect x="462" y="84" width="12" height="12" fill="#0f172a" stroke="#0f172a" stroke-width="1"/>
<rect x="476" y="0" width="12" height="12" fill="#0f172a" stroke="#0f172a" stroke-width="1"/>
<rect x="476" y="14" width="12" height="12" fill="#34d399" stroke="#0f172a" stroke-width="1"><title>2019-08-27
1 workout
Distance: 16.42 km
Duration: 45m
Avg speed: 21894.5 km/h
Elevation: 0 m</title></rect>
<rect x="476" y="28" width="12" height="12" fill="#0f172a" stroke="#0f172a" stroke-width="1"/>
<rect x="476" y="42" width="12" height="12" fill="#10b981" stroke="#0f172a" stroke-width="1"><title>2019-08-29
1 workout
Distance: 23.45 km
Duration: 1h 0m
Avg speed: 23454.2 km/h
Elevation: 0 m</title></rect>
<rect x="476" y="56" width="12" height="12" fill="#0f172a" stroke="#0f172a" stroke-width="1"/>
<rect x="476" y="70" width="12" height="12" fill="#0f172a" stroke="#0f172a" stroke-width="1"/>
<rect x="476" y="84" width="12" height="12" fill="#0f172a" stroke="#0f172a" stroke-width="1"/>
<rect x="490" y="0" width="12" height="12" fill="#0f172a" stroke="#0f172a" stroke-width="1"/>
<rect x="490" y="14" width="12" height="12" fill="#0f172a" stroke="#0f172a" stroke-width="1"/>
<rect x="490" y="28" width="12" height="12" fill="#0f172a" stroke="#0f172a" stroke-width="1"/>
<rect x="490" y="42" width="12" height="12" fill="#34d399" stroke="#0f172a" stroke-width="1"><title>2019-09-05
1 workout
Distance: 22.74 km
Duration: 1h 0m
Avg speed: 22744.6 km/h
Elevation: 0 m</title></rect>
<rect x="490" y="56" width="12" height="12" fill="#05ffa1" stroke="#0f172a" stroke-width="1"><title>2019-09-06
1 workout
Distance: 12.07 km
Duration: 30m
Avg speed: 24142.8 km/h
Elevation: 0 m</title></rect>
<rect x="490" y="70" width="12" height="12" fill="#0f172a" stroke="#0f172a" stroke-width="1"/>
<rect x="490" y="84" width="12" height="12" fill="#0f172a" stroke="#0f172a" stroke-width="1"/>
<rect x="504" y="0" width="12" height="12" fill="#334155" stroke="#0f172a" stroke-width="1"><title>2019-09-09
1 workout
Distance: 18.80 km
Duration: 52m
Avg speed: 21415.0 km/h
Elevation: 0 m</title></rect>
<rect x="504" y="14" width="12" height="12" fill="#0f172a" stroke="#0f172a" stroke-width="1"/>
<rect x="504" y="28" width="12" height="12" fill="#0f172a" stroke="#0f172a" stroke-width="1"/>
<rect x="504" y="42" width="12" height="12" fill="#34d399" stroke="#0f172a" stroke-width="1"><title>2019-09-12
1 workout
Distance: 21.94 km
Duration: 1h 0m
Avg speed: 21940.2 km/h
Elevation: 0 m</title></rect>
<rect x="504" y="56" width="12" height="12" fill="#0f172a" stroke="#0f172a" stroke-width="1"/>
<rect x="504" y="70" width="12" height="12" fill="#1f2937" stroke="#0f172a" stroke-width="1"><title>2019-09-14
1 workout
Distance: 38.31 km
Duration: 2h 42m
Avg speed: 14185.7 km/h
Elevation: 84 m</title></rect>
<rect x="504" y="84" width="12" height="12" fill="#0f172a" stroke="#0f172a" stroke-width="1"/>
<rect x="518" y="0" width="12" height="12" fill="#0f172a" stroke="#0f172a" stroke-width="1"/>
<rect x="518" y="14" width="12" height="12" fill="#0f172a" stroke="#0f172a" stroke-width="1"/>
<rect x="518" y="28" width="12" height="12" fill="#0f172a" stroke="#0f172a" stroke-width="1"/>
<rect x="518" y="42" width="12" height="12" fill="#10b981" stroke="#0f172a" stroke-width="1"><title>2019-09-19
1 workout
Distance: 11.42 km
Duration: 30m
Avg speed: 22840.4 km/h
Elevation: 0 m</title></rect>
<rect x="518" y="56" width="12" height="12" fill="#0f172a" stroke="#0f172a" stroke-width="1"/>
<rect x="518" y="70" width="12" height="12" fill="#0f172a" stroke="#0f172a" stroke-width="1"/>
<rect x="518" y="84" width="12" height="12" fill="#0f172a" stroke="#0f172a" stroke-width="1"/>
<rect x="532" y="0" width="12" height="12" fill="#334155" stroke="#0f172a" stroke-width="1"><title>2019-09-23
1 workout
Distance: 15.98 km
Duration: 45m
Avg speed: 21263.7 km/h
Elevation: 0 m</title></rect>
<rect x="532" y="14" width="12" height="12" fill="#0f172a" stroke="#0f172a" stroke-width="1"/>
<rect x="532" y="28" width="12" height="12" fill="#0f172a" stroke="#0f172a" stroke-width="1"/>
<rect x="532" y="42" width="12" height="12" fill="#0f172a" stroke="#0f172a" stroke-width="1"/>
<rect x="532" y="56" width="12" height="12" fill="#0f172a" stroke="#0f172a" stroke-width="1"/>
<rect x="532" y="70" width="12" height="12" fill="#34d399" stroke="#0f172a" stroke-width="1"><title>2019-09-28
1 workout
Distance: 30.86 km
Duration: 1h 22m
Avg speed: 22365.6 km/h
Elevation: 51 m</title></rect>
<rect x="532" y="84" width="12" height="12" fill="#1f2937" stroke="#0f172a" stroke-width="1"><title>2019-09-29
2 workouts
Distance: 15.73 km
Duration: 50m
Avg speed: 18746.2 km/h
Elevation: 51 m</title></rect>
<rect x="546" y="0" width="12" height="12" fill="#0f172a" stroke="#0f172a" stroke-width="1"/>
<rect x="546" y="14" width="12" height="12" fill="#0f172a" stroke="#0f172a" stroke-width="1"/>
<rect x="546" y="28" width="12" height="12" fill="#1f2937" stroke="#0f172a" stroke-width="1"><title>2019-10-02
1 workout
Distance: 10.29 km
Duration: 43m
Avg speed: 14360.4 km/h
Elevation: 35 m</title></rect>
<rect x="546" y="42" width="12" height="12" fill="#0f172a" stroke="#0f172a" stroke-width="1"/>
<rect x="546" y="56" width="12" height="12" fill="#0f172a" stroke="#0f172a" stroke-width="1"/>
<rect x="546" y="70" width="12" height="12" fill="#0f172a" stroke="#0f172a" stroke-width="1"/>
<rect x="546" y="84" width="12" height="12" fill="#0f172a" stroke="#0f172a" stroke-width="1"/>
<rect x="560" y="0" width="12" height="12" fill="#0f172a" stroke="#0f172a" stroke-width="1"/>
<rect x="560" y="14" width="12" height="12" fill="#05ffa1" stroke="#0f172a" stroke-width="1"><title>2019-10-08
1 workout
Distance: 12.06 km
Duration: 30m
Avg speed: 24118.6 km/h
Elevation: 0 m</title></rect>
<rect x="560" y="28" width="12" height="12" fill="#0f172a" stroke="#0f172a" stroke-width="1"/>
<rect x="560" y="42" width="12" height="12" fill="#05ffa1" stroke="#0f172a" stroke-width="1"><title>2019-10-10
1 workout
Distance: 17.95 km
Duration: 45m
Avg speed: 23938.8 km/h
Elevation: 0 m</title></rect>
<rect x="560" y="56" width="12" height="12" fill="#0f172a" stroke="#0f172a" stroke-width="1"/>
<rect x="560" y="70" width="12" height="12" fill="#1f2937" stroke="#0f172a" stroke-width="1"><title>2019-10-12
3 workouts
Distance: 46.38 km
Duration: 2h 23m
Avg speed: 19391.7 km/h
Elevation: 281 m</title></rect>
<rect x="560" y="84" width="12" height="12" fill="#0f172a" stroke="#0f172a" stroke-width="1"/>
<rect x="574" y="0" width="12" height="12" fill="#0f172a" stroke="#0f172a" stroke-width="1"/>
<rect x="574" y="14" width="12" height="12" fill="#0f172a" stroke="#0f172a" stroke-width="1"/>
<rect x="574" y="28" width="12" height="12" fill="#0f172a" stroke="#0f172a" stroke-width="1"/>
<rect x="574" y="42" width="12" height="12" fill="#0f172a" stroke="#0f172a" stroke-width="1"/>
<rect x="574" y="56" width="12" height="12" fill="#0f172a" stroke="#0f172a" stroke-width="1"/>
<rect x="574" y="70" width="12" height="12" fill="#0f172a" stroke="#0f172a" stroke-width="1"/>
<rect x="574" y="84" width="12" height="12" fill="#10b981" stroke="#0f172a" stroke-width="1"><title>2019-10-20
2 workouts
Distance: 13.54 km
Duration: 34m
Avg speed: 23381.9 km/h
Elevation: 49 m</title></rect>
<rect x="588" y="0" width="12" height="12" fill="#0f172a" stroke="#0f172a" stroke-width="1"/>
<rect x="588" y="14" width="12" height="12" fill="#0f172a" stroke="#0f172a" stroke-width="1"/>
<rect x="588" y="28" width="12" height="12" fill="#10b981" stroke="#0f172a" stroke-width="1"><title>2019-10-23
1 workout
Distance: 3.99 km
Duration: 10m
Avg speed: 23531.6 km/h
Elevation: 9 m</title></rect>
<rect x="588" y="42" width="12" height="12" fill="#05ffa1" stroke="#0f172a" stroke-width="1"><title>2019-10-24
1 workout
Distance: 35.51 km
Duration: 1h 30m
Avg speed: 23604.4 km/h
Elevation: 143 m</title></rect>
<rect x="588" y="56" width="12" height="12" fill="#10b981" stroke="#0f172a" stroke-width="1"><title>2019-10-25
1 workout
Distance: 34.54 km
Duration: 1h 29m
Avg speed: 23122.1 km/h
Elevation: 131 m</title></rect>
<rect x="588" y="70" width="12" height="12" fill="#0f172a" stroke="#0f172a" stroke-width="1"/>
<rect x="588" y="84" width="12" height="12" fill="#0f172a" stroke="#0f172a" stroke-width="1"/>
<rect x="602" y="0" width="12" height="12" fill="#0f172a" stroke="#0f172a" stroke-width="1"/>
<rect x="602" y="14" width="12" height="12" fill="#10b981" stroke="#0f172a" stroke-width="1"><title>2019-10-29
2 workouts
Distance: 34.50 km
Duration: 1h 28m
Avg speed: 23389.8 km/h
Elevation: 155 m</title></rect>
<rect x="602" y="28" width="12" height="12" fill="#0f172a" stroke="#0f172a" stroke-width="1"/>
<rect x="602" y="42" width="12" height="12" fill="#0f172a" stroke="#0f172a" stroke-width="1"/>
<rect x="602" y="56" width="12" height="12" fill="#0f172a" stroke="#0f172a" stroke-width="1"/>
<rect x="602" y="70" width="12" height="12" fill="#0f172a" stroke="#0f172a" stroke-width="1"/>
<rect x="602" y="84" width="12" height="12" fill="#0f172a" stroke="#0f172a" stroke-width="1"/>
<rect x="616" y="0" width="12" height="12" fill="#0f172a" stroke="#0f172a" stroke-width="1"/>
<rect x="616" y="14" width="12" height="12" fill="#0f172a" stroke="#0f172a" stroke-width="1"/>
<rect x="616" y="28" width="12" height="12" fill="#0f172a" stroke="#0f172a" stroke-width="1"/>
<rect x="616" y="42" width="12" height="12" fill="#0f172a" stroke="#0f172a" stroke-width="1"/>
<rect x="616" y="56" width="12" height="12" fill="#0f172a" stroke="#0f172a" stroke-width="1"/>
<rect x="616" y="70" width="12" height="12" fill="#0f172a" stroke="#0f172a" stroke-width="1"/>
<rect x="616" y="84" width="12" height="12" fill="#0f172a" stroke="#0f172a" stroke-width="1"/>
<rect x="630" y="0" width="12" height="12" fill="#0f172a" stroke="#0f172a" stroke-width="1"/>
<rect x="630" y="14" width="12" height="12" fill="#05ffa1" stroke="#0f172a" stroke-width="1"><title>2019-11-12
1 workout
Distance: 15.03 km
Duration: 37m
Avg speed: 24235.3 km/h
Elevation: 72 m</title></rect>
<rect x="630" y="28" width="12" height="12" fill="#0f172a" stroke="#0f172a" stroke-width="1"/>
<rect x="630" y="42" width="12" height="12" fill="#34d399" stroke="#0f172a" stroke-width="1"><title>2019-11-14
1 workout
Distance: 35.37 km
Duration: 1h 33m
Avg speed: 22731.9 km/h
Elevation: 129 m</title></rect>
<rect x="630" y="56" width="12" height="12" fill="#0f172a" stroke="#0f172a" stroke-width="1"/>
<rect x="630" y="70" width="12" height="12" fill="#0f172a" stroke="#0f172a" stroke-width="1"/>
<rect x="630" y="84" width="12" height="12" fill="#0f172a" stroke="#0f172a" stroke-width="1"/>
<rect x="644" y="0" width="12" height="12" fill="#34d399" stroke="#0f172a" stroke-width="1"><title>2019-11-18
1 workout
Distance: 24.22 km
Duration: 1h 6m
Avg speed: 21773.8 km/h
Elevation: 57 m</title></rect>
<rect x="644" y="14" width="12" height="12" fill="#0f172a" stroke="#0f172a" stroke-width="1"/>
<rect x="644" y="28" width="12" height="12" fill="#0f172a" stroke="#0f172a" stroke-width="1"/>
<rect x="644" y="42" width="12" height="12" fill="#0f172a" stroke="#0f172a" stroke-width="1"/>
<rect x="644" y="56" width="12" height="12" fill="#10b981" stroke="#0f172a" stroke-width="1"><title>2019-11-22
2 workouts
Distance: 35.43 km
Duration: 1h 33m
Avg speed: 22797.6 km/h
Elevation: 167 m</title></rect>
<rect x="644" y="70" width="12" height="12" fill="#0f172a" stroke="#0f172a" stroke-width="1"/>
<rect x="644" y="84" width="12" height="12" fill="#05ffa1" stroke="#0f172a" stroke-width="1"><title>2019-11-24
1 workout
Distance: 8.14 km
Duration: 19m
Avg speed: 25570.1 km/h
Elevation: 23 m</title></rect>
<rect x="658" y="0" width="12" height="12" fill="#0f172a" stroke="#0f172a" stroke-width="1"/>
<rect x="658" y="14" width="12" height="12" fill="#0f172a" stroke="#0f172a" stroke-width="1"/>
<rect x="658" y="28" width="12" height="12" fill="#0f172a" stroke="#0f172a" stroke-width="1"/>
<rect x="658" y="42" width="12" height="12" fill="#0f172a" stroke="#0f172a" stroke-width="1"/>
<rect x="658" y="56" width="12" height="12" fill="#0f172a" stroke="#0f172a" stroke-width="1"/>
<rect x="658" y="70" width="12" height="12" fill="#0f172a" stroke="#0f172a" stroke-width="1"/>
<rect x="658" y="84" width="12" height="12" fill="#0f172a" stroke="#0f172a" stroke-width="1"/>
<rect x="672" y="0" width="12" height="12" fill="#0f172a" stroke="#0f172a" stroke-width="1"/>
<rect x="672" y="14" width="12" height="12" fill="#0f172a" stroke="#0f172a" stroke-width="1"/>
<rect x="672" y="28" width="12" height="12" fill="#0f172a" stroke="#0f172a" stroke-width="1"/>
<rect x="672" y="42" width="12" height="12" fill="#0f172a" stroke="#0f172a" stroke-width="1"/>
<rect x="672" y="56" width="12" height="12" fill="#0f172a" stroke="#0f172a" stroke-width="1"/>
<rect x="672" y="70" width="12" height="12" fill="#0f172a" stroke="#0f172a" stroke-width="1"/>
<rect x="672" y="84" width="12" height="12" fill="#0f172a" stroke="#0f172a" stroke-width="1"/>
<rect x="686" y="0" width="12" height="12" fill="#0f172a" stroke="#0f172a" stroke-width="1"/>
<rect x="686" y="14" width="12" height="12" fill="#0f172a" stroke="#0f172a" stroke-width="1"/>
<rect x="686" y="28" width="12" height="12" fill="#0f172a" stroke="#0f172a" stroke-width="1"/>
<rect x="686" y="42" width="12" height="12" fill="#0f172a" stroke="#0f172a" stroke-width="1"/>
<rect x="686" y="56" width="12" height="12" fill="#0f172a" stroke="#0f172a" stroke-width="1"/>
<rect x="686" y="70" width="12" height="12" fill="#0f172a" stroke="#0f172a" stroke-width="1"/>
<rect x="686" y="84" width="12" height="12" fill="#0f172a" stroke="#0f172a" stroke-width="1"/>
<rect x="700" y="0" width="12" height="12" fill="#0f172a" stroke="#0f172a" stroke-width="1"/>
<rect x="700" y="14" width="12" height="12" fill="#0f172a" stroke="#0f172a" stroke-width="1"/>
<rect x="700" y="28" width="12" height="12" fill="#0f172a" stroke="#0f172a" stroke-width="1"/>
<rect x="700" y="42" width="12" height="12" fill="#0f172a" stroke="#0f172a" stroke-width="1"/>
<rect x="700" y="56" width="12" height="12" fill="#0f172a" stroke="#0f172a" stroke-width="1"/>
<rect x="700" y="70" width="12" height="12" fill="#0f172a" stroke="#0f172a" stroke-width="1"/>
<rect x="700" y="84" width="12" height="12" fill="#0f172a" stroke="#0f172a" stroke-width="1"/>
<rect x="714" y="0" width="12" height="12" fill="#0f172a" stroke="#0f172a" stroke-width="1"/>
<rect x="714" y="14" width="12" height="12" fill="#0f172a" stroke="#0f172a" stroke-width="1"/>
<rect x="714" y="28" width="12" height="12" fill="#05ffa1" stroke="#0f172a" stroke-width="1"><title>2019-12-25
1 workout
Distance: 8.32 km
Duration: 19m
Avg speed: 25337.4 km/h
Elevation: 20 m</title></rect>
<rect x="714" y="42" width="12" height="12" fill="#0f172a" stroke="#0f172a" stroke-width="1"/>
<rect x="714" y="56" width="12" height="12" fill="#10b981" stroke="#0f172a" stroke-width="1"><title>2019-12-27
1 workout
Distance: 42.44 km
Duration: 1h 51m
Avg speed: 22802.8 km/h
Elevation: 245 m</title></rect>
<rect x="714" y="70" width="12" height="12" fill="#0f172a" stroke="#0f172a" stroke-width="1"/>
<rect x="714" y="84" width="12" height="12" fill="#0f172a" stroke="#0f172a" stroke-width="1"/>
<rect x="728" y="0" width="12" height="12" fill="#0f172a" stroke="#0f172a" stroke-width="1"/>
<rect x="728" y="14" width="12" height="12" fill="#0f172a" stroke="#0f172a" stroke-width="1"/>
<rect x="728" y="28" width="12" height="12" fill="#0f172a" stroke="#0f172a" stroke-width="1"/>
<rect x="728" y="42" width="12" height="12" fill="#0f172a" stroke="#0f172a" stroke-width="1"/>
<rect x="728" y="56" width="12" height="12" fill="#0f172a" stroke="#0f172a" stroke-width="1"/>
<rect x="728" y="70" width="12" height="12" fill="#0f172a" stroke="#0f172a" stroke-width="1"/>
<rect x="728" y="84" width="12" height="12" fill="#0f172a" stroke="#0f172a" stroke-width="1"/>
</g></svg>
