<?xml version="1.0" encoding="UTF-8"?>
<svg xmlns="http://www.w3.org/2000/svg" width="810" height="150" viewBox="0 0 810 150">
<rect width="810" height="150" fill="#0f172a"/>
<text x="16" y="28" font-size="12" fill="#e5e7eb" font-family="Arial, sans-serif">2021</text>
<text x="52" y="28" font-size="10" fill="#cbd5e1" font-family="Arial, sans-serif">Jan</text>
<text x="122" y="28" font-size="10" fill="#cbd5e1" font-family="Arial, sans-serif">Feb</text>
<text x="178" y="28" font-size="10" fill="#cbd5e1" font-family="Arial, sans-serif">Mar</text>
<text x="234" y="28" font-size="10" fill="#cbd5e1" font-family="Arial, sans-serif">Apr</text>
<text x="290" y="28" font-size="10" fill="#cbd5e1" font-family="Arial, sans-serif">May</text>
<text x="360" y="28" font-size="10" fill="#cbd5e1" font-family="Arial, sans-serif">Jun</text>
<text x="416" y="28" font-size="10" fill="#cbd5e1" font-family="Arial, sans-serif">Jul</text>
<text x="472" y="28" font-size="10" fill="#cbd5e1" font-family="Arial, sans-serif">Aug</text>
<text x="542" y="28" font-size="10" fill="#cbd5e1" font-family="Arial, sans-serif">Sep</text>
<text x="598" y="28" font-size="10" fill="#cbd5e1" font-family="Arial, sans-serif">Oct</text>
<text x="668" y="28" font-size="10" fill="#cbd5e1" font-family="Arial, sans-serif">Nov</text>
<text x="724" y="28" font-size="10" fill="#cbd5e1" font-family="Arial, sans-serif">Dec</text>
<text x="46" y="46" font-size="9" fill="#cbd5e1" font-family="Arial, sans-serif" text-anchor="end">Mon</text>
<text x="46" y="60" font-size="9" fill="#cbd5e1" font-family="Arial, sans-serif" text-anchor="end">Tue</text>
<text x="46" y="74" font-size="9" fill="#cbd5e1" font-family="Arial, sans-serif" text-anchor="end">Wed</text>
<text x="46" y="88" font-size="9" fill="#cbd5e1" font-family="Arial, sans-serif" text-anchor="end">Thu</text>
<text x="46" y="102" font-size="9" fill="#cbd5e1" font-family="Arial, sans-serif" text-anchor="end">Fri</text>
<text x="46" y="116" font-size="9" fill="#cbd5e1" font-family="Arial, sans-serif" text-anchor="end">Sat</text>
<text x="46" y="130" font-size="9" fill="#cbd5e1" font-family="Arial, sans-serif" text-anchor="end">Sun</text>
<g transform="translate(52,36)">
<rect x="0" y="0" width="12" height="12" fill="#0f172a" stroke="#0f172a" stroke-width="1"/>
<rect x="0" y="14" width="12" height="12" fill="#0f172a" stroke="#0f172a" stroke-width="1"/>
<rect x="0" y="28" width="12" height="12" fill="#0f172a" stroke="#0f172a" stroke-width="1"/>
<rect x="0" y="42" width="12" height="12" fill="#0f172a" stroke="#0f172a" stroke-width="1"/>
<rect x="0" y="56" width="12" height="12" fill="#0f172a" stroke="#0f172a" stroke-width="1"/>
<rect x="0" y="70" width="12" height="12" fill="#0f172a" stroke="#0f172a" stroke-width="1"/>
<rect x="0" y="84" width="12" height="12" fill="#0f172a" stroke="#0f172a" stroke-width="1"/>
<rect x="14" y="0" width="12" height="12" fill="#0f172a" stroke="#0f172a" stroke-width="1"/>
<rect x="14" y="14" width="12" height="12" fill="#0f172a" stroke="#0f172a" stroke-width="1"/>
<rect x="14" y="28" width="12" height="12" fill="#0f172a" stroke="#0f172a" stroke-width="1"/>
<rect x="14" y="42" width="12" height="12" fill="#0f172a" stroke="#0f172a" stroke-width="1"/>
<rect x="14" y="56" width="12" height="12" fill="#0f172a" stroke="#0f172a" stroke-width="1"/>
<rect x="14" y="70" width="12" height="12" fill="#0f172a" stroke="#0f172a" stroke-width="1"/>
<rect x="14" y="84" width="12" height="12" fill="#0f172a" stroke="#0f172a" stroke-width="1"/>
<rect x="28" y="0" width="12" height="12" fill="#334155" stroke="#0f172a" stroke-width="1"><title>2021-01-11
1 workout
Distance: 22.69 km
Duration: 1h 11m
Avg speed: 18969.4 km/h
Elevation: 46 m</title></rect>
<rect x="28" y="14" width="12" height="12" fill="#0f172a" stroke="#0f172a" stroke-width="1"/>
<rect x="28" y="28" width="12" height="12" fill="#0f172a" stroke="#0f172a" stroke-width="1"/>
<rect x="28" y="42" width="12" height="12" fill="#05ffa1" stroke="#0f172a" stroke-width="1"><title>2021-01-14
1 workout
Distance: 24.27 km
Duration: 1h 7m
Avg speed: 21533.6 km/h
Elevation: 34 m</title></rect>
<rect x="28" y="56" width="12" height="12" fill="#0f172a" stroke="#0f172a" stroke-width="1"/>
<rect x="28" y="70" width="12" height="12" fill="#0f172a" stroke="#0f172a" stroke-width="1"/>
<rect x="28" y="84" width="12" height="12" fill="#0f172a" stroke="#0f172a" stroke-width="1"/>
<rect x="42" y="0" width="12" height="12" fill="#0f172a" stroke="#0f172a" stroke-width="1"/>
<rect x="42" y="14" width="12" height="12" fill="#0f172a" stroke="#0f172a" stroke-width="1"/>
<rect x="42" y="28" width="12" height="12" fill="#0f172a" stroke="#0f172a" stroke-width="1"/>
<rect x="42" y="42" width="12" height="12" fill="#0f172a" stroke="#0f172a" stroke-width="1"/>
<rect x="42" y="56" width="12" height="12" fill="#0f172a" stroke="#0f172a" stroke-width="1"/>
<rect x="42" y="70" width="12" height="12" fill="#0f172a" stroke="#0f172a" stroke-width="1"/>
<rect x="42" y="84" width="12" height="12" fill="#0f172a" stroke="#0f172a" stroke-width="1"/>
<rect x="56" y="0" width="12" height="12" fill="#0f172a" stroke="#0f172a" stroke-width="1"/>
<rect x="56" y="14" width="12" height="12" fill="#0f172a" stroke="#0f172a" stroke-width="1"/>
<rect x="56" y="28" width="12" height="12" fill="#0f172a" stroke="#0f172a" stroke-width="1"/>
<rect x="56" y="42" width="12" height="12" fill="#0f172a" stroke="#0f172a" stroke-width="1"/>
<rect x="56" y="56" width="12" height="12" fill="#0f172a" stroke="#0f172a" stroke-width="1"/>
<rect x="56" y="70" width="12" height="12" fill="#0f172a" stroke="#0f172a" stroke-width="1"/>
<rect x="56" y="84" width="12" height="12" fill="#0f172a" stroke="#0f172a" stroke-width="1"/>
<rect x="70" y="0" width="12" height="12" fill="#0f172a" stroke="#0f172a" stroke-width="1"/>
<rect x="70" y="14" width="12" height="12" fill="#0f172a" stroke="#0f172a" stroke-width="1"/>
<rect x="70" y="28" width="12" height="12" fill="#0f172a" stroke="#0f172a" stroke-width="1"/>
<rect x="70" y="42" width="12" height="12" fill="#0f172a" stroke="#0f172a" stroke-width="1"/>
<rect x="70" y="56" width="12" height="12" fill="#0f172a" stroke="#0f172a" stroke-width="1"/>
<rect x="70" y="70" width="12" height="12" fill="#0f172a" stroke="#0f172a" stroke-width="1"/>
<rect x="70" y="84" width="12" height="12" fill="#0f172a" stroke="#0f172a" stroke-width="1"/>
<rect x="84" y="0" width="12" height="12" fill="#0f172a" stroke="#0f172a" stroke-width="1"/>
<rect x="84" y="14" width="12" height="12" fill="#0f172a" stroke="#0f172a" stroke-width="1"/>
<rect x="84" y="28" width="12" height="12" fill="#0f172a" stroke="#0f172a" stroke-width="1"/>
<rect x="84" y="42" width="12" height="12" fill="#0f172a" stroke="#0f172a" stroke-width="1"/>
<rect x="84" y="56" width="12" height="12" fill="#0f172a" stroke="#0f172a" stroke-width="1"/>
<rect x="84" y="70" width="12" height="12" fill="#0f172a" stroke="#0f172a" stroke-width="1"/>
<rect x="84" y="84" width="12" height="12" fill="#0f172a" stroke="#0f172a" stroke-width="1"/>
<rect x="98" y="0" width="12" height="12" fill="#0f172a" stroke="#0f172a" stroke-width="1"/>
<rect x="98" y="14" width="12" height="12" fill="#0f172a" stroke="#0f172a" stroke-width="1"/>
<rect x="98" y="28" width="12" height="12" fill="#34d399" stroke="#0f172a" stroke-width="1"><title>2021-02-17
1 workout
Distance: 10.97 km
Duration: 34m
Avg speed: 19188.8 km/h
Elevation: 13 m</title></rect>
<rect x="98" y="42" width="12" height="12" fill="#0f172a" stroke="#0f172a" stroke-width="1"/>
<rect x="98" y="56" width="12" height="12" fill="#0f172a" stroke="#0f172a" stroke-width="1"/>
<rect x="98" y="70" width="12" height="12" fill="#0f172a" stroke="#0f172a" stroke-width="1"/>
<rect x="98" y="84" width="12" height="12" fill="#0f172a" stroke="#0f172a" stroke-width="1"/>
<rect x="112" y="0" width="12" height="12" fill="#0f172a" stroke="#0f172a" stroke-width="1"/>
<rect x="112" y="14" width="12" height="12" fill="#0f172a" stroke="#0f172a" stroke-width="1"/>
<rect x="112" y="28" width="12" height="12" fill="#0f172a" stroke="#0f172a" stroke-width="1"/>
<rect x="112" y="42" width="12" height="12" fill="#0f172a" stroke="#0f172a" stroke-width="1"/>
<rect x="112" y="56" width="12" height="12" fill="#0f172a" stroke="#0f172a" stroke-width="1"/>
<rect x="112" y="70" width="12" height="12" fill="#0f172a" stroke="#0f172a" stroke-width="1"/>
<rect x="112" y="84" width="12" height="12" fill="#10b981" stroke="#0f172a" stroke-width="1"><title>2021-02-28
2 workouts
Distance: 12.50 km
Duration: 37m
Avg speed: 19949.7 km/h
Elevation: 41 m</title></rect>
<rect x="126" y="0" width="12" height="12" fill="#0f172a" stroke="#0f172a" stroke-width="1"/>
<rect x="126" y="14" width="12" height="12" fill="#0f172a" stroke="#0f172a" stroke-width="1"/>
<rect x="126" y="28" width="12" height="12" fill="#0f172a" stroke="#0f172a" stroke-width="1"/>
<rect x="126" y="42" width="12" height="12" fill="#0f172a" stroke="#0f172a" stroke-width="1"/>
<rect x="126" y="56" width="12" height="12" fill="#0f172a" stroke="#0f172a" stroke-width="1"/>
<rect x="126" y="70" width="12" height="12" fill="#0f172a" stroke="#0f172a" stroke-width="1"/>
<rect x="126" y="84" width="12" height="12" fill="#0f172a" stroke="#0f172a" stroke-width="1"/>
<rect x="140" y="0" width="12" height="12" fill="#0f172a" stroke="#0f172a" stroke-width="1"/>
<rect x="140" y="14" width="12" height="12" fill="#0f172a" stroke="#0f172a" stroke-width="1"/>
<rect x="140" y="28" width="12" height="12" fill="#0f172a" stroke="#0f172a" stroke-width="1"/>
<rect x="140" y="42" width="12" height="12" fill="#0f172a" stroke="#0f172a" stroke-width="1"/>
<rect x="140" y="56" width="12" height="12" fill="#0f172a" stroke="#0f172a" stroke-width="1"/>
<rect x="140" y="70" width="12" height="12" fill="#0f172a" stroke="#0f172a" stroke-width="1"/>
<rect x="140" y="84" width="12" height="12" fill="#0f172a" stroke="#0f172a" stroke-width="1"/>
<rect x="154" y="0" width="12" height="12" fill="#334155" stroke="#0f172a" stroke-width="1"><title>2021-03-15
1 workout
Distance: 2.86 km
Duration: 9m
Avg speed: 18970.4 km/h
Elevation: 15 m</title></rect>
<rect x="154" y="14" width="12" height="12" fill="#0f172a" stroke="#0f172a" stroke-width="1"/>
<rect x="154" y="28" width="12" height="12" fill="#0f172a" stroke="#0f172a" stroke-width="1"/>
<rect x="154" y="42" width="12" height="12" fill="#0f172a" stroke="#0f172a" stroke-width="1"/>
<rect x="154" y="56" width="12" height="12" fill="#0f172a" stroke="#0f172a" stroke-width="1"/>
<rect x="154" y="70" width="12" height="12" fill="#0f172a" stroke="#0f172a" stroke-width="1"/>
<rect x="154" y="84" width="12" height="12" fill="#0f172a" stroke="#0f172a" stroke-width="1"/>
<rect x="168" y="0" width="12" height="12" fill="#0f172a" stroke="#0f172a" stroke-width="1"/>
<rect x="168" y="14" width="12" height="12" fill="#0f172a" stroke="#0f172a" stroke-width="1"/>
<rect x="168" y="28" width="12" height="12" fill="#0f172a" stroke="#0f172a" stroke-width="1"/>
<rect x="168" y="42" width="12" height="12" fill="#0f172a" stroke="#0f172a" stroke-width="1"/>
<rect x="168" y="56" width="12" height="12" fill="#0f172a" stroke="#0f172a" stroke-width="1"/>
<rect x="168" y="70" width="12" height="12" fill="#0f172a" stroke="#0f172a" stroke-width="1"/>
<rect x="168" y="84" width="12" height="12" fill="#0f172a" stroke="#0f172a" stroke-width="1"/>
<rect x="182" y="0" width="12" height="12" fill="#0f172a" stroke="#0f172a" stroke-width="1"/>
<rect x="182" y="14" width="12" height="12" fill="#0f172a" stroke="#0f172a" stroke-width="1"/>
<rect x="182" y="28" width="12" height="12" fill="#0f172a" stroke="#0f172a" stroke-width="1"/>
<rect x="182" y="42" width="12" height="12" fill="#0f172a" stroke="#0f172a" stroke-width="1"/>
<rect x="182" y="56" width="12" height="12" fill="#0f172a" stroke="#0f172a" stroke-width="1"/>
<rect x="182" y="70" width="12" height="12" fill="#0f172a" stroke="#0f172a" stroke-width="1"/>
<rect x="182" y="84" width="12" height="12" fill="#0f172a" stroke="#0f172a" stroke-width="1"/>
<rect x="196" y="0" width="12" height="12" fill="#0f172a" stroke="#0f172a" stroke-width="1"/>
<rect x="196" y="14" width="12" height="12" fill="#0f172a" stroke="#0f172a" stroke-width="1"/>
<rect x="196" y="28" width="12" height="12" fill="#0f172a" stroke="#0f172a" stroke-width="1"/>
<rect x="196" y="42" width="12" height="12" fill="#0f172a" stroke="#0f172a" stroke-width="1"/>
<rect x="196" y="56" width="12" height="12" fill="#0f172a" stroke="#0f172a" stroke-width="1"/>
<rect x="196" y="70" width="12" height="12" fill="#0f172a" stroke="#0f172a" stroke-width="1"/>
<rect x="196" y="84" width="12" height="12" fill="#0f172a" stroke="#0f172a" stroke-width="1"/>
<rect x="210" y="0" width="12" height="12" fill="#0f172a" stroke="#0f172a" stroke-width="1"/>
<rect x="210" y="14" width="12" height="12" fill="#0f172a" stroke="#0f172a" stroke-width="1"/>
<rect x="210" y="28" width="12" height="12" fill="#0f172a" stroke="#0f172a" stroke-width="1"/>
<rect x="210" y="42" width="12" height="12" fill="#0f172a" stroke="#0f172a" stroke-width="1"/>
<rect x="210" y="56" width="12" height="12" fill="#0f172a" stroke="#0f172a" stroke-width="1"/>
<rect x="210" y="70" width="12" height="12" fill="#0f172a" stroke="#0f172a" stroke-width="1"/>
<rect x="210" y="84" width="12" height="12" fill="#0f172a" stroke="#0f172a" stroke-width="1"/>
<rect x="224" y="0" width="12" height="12" fill="#0f172a" stroke="#0f172a" stroke-width="1"/>
<rect x="224" y="14" width="12" height="12" fill="#0f172a" stroke="#0f172a" stroke-width="1"/>
<rect x="224" y="28" width="12" height="12" fill="#0f172a" stroke="#0f172a" stroke-width="1"/>
<rect x="224" y="42" width="12" height="12" fill="#0f172a" stroke="#0f172a" stroke-width="1"/>
<rect x="224" y="56" width="12" height="12" fill="#0f172a" stroke="#0f172a" stroke-width="1"/>
<rect x="224" y="70" width="12" height="12" fill="#0f172a" stroke="#0f172a" stroke-width="1"/>
<rect x="224" y="84" width="12" height="12" fill="#0f172a" stroke="#0f172a" stroke-width="1"/>
<rect x="238" y="0" width="12" height="12" fill="#0f172a" stroke="#0f172a" stroke-width="1"/>
<rect x="238" y="14" width="12" height="12" fill="#0f172a" stroke="#0f172a" stroke-width="1"/>
<rect x="238" y="28" width="12" height="12" fill="#0f172a" stroke="#0f172a" stroke-width="1"/>
<rect x="238" y="42" width="12" height="12" fill="#0f172a" stroke="#0f172a" stroke-width="1"/>
<rect x="238" y="56" width="12" height="12" fill="#0f172a" stroke="#0f172a" stroke-width="1"/>
<rect x="238" y="70" width="12" height="12" fill="#0f172a" stroke="#0f172a" stroke-width="1"/>
<rect x="238" y="84" width="12" height="12" fill="#0f172a" stroke="#0f172a" stroke-width="1"/>
<rect x="252" y="0" width="12" height="12" fill="#0f172a" stroke="#0f172a" stroke-width="1"/>
<rect x="252" y="14" width="12" height="12" fill="#0f172a" stroke="#0f172a" stroke-width="1"/>
<rect x="252" y="28" width="12" height="12" fill="#0f172a" stroke="#0f172a" stroke-width="1"/>
<rect x="252" y="42" width="12" height="12" fill="#0f172a" stroke="#0f172a" stroke-width="1"/>
<rect x="252" y="56" width="12" height="12" fill="#0f172a" stroke="#0f172a" stroke-width="1"/>
<rect x="252" y="70" width="12" height="12" fill="#0f172a" stroke="#0f172a" stroke-width="1"/>
<rect x="252" y="84" width="12" height="12" fill="#0f172a" stroke="#0f172a" stroke-width="1"/>
<rect x="266" y="0" width="12" height="12" fill="#0f172a" stroke="#0f172a" stroke-width="1"/>
<rect x="266" y="14" width="12" height="12" fill="#0f172a" stroke="#0f172a" stroke-width="1"/>
<rect x="266" y="28" width="12" height="12" fill="#0f172a" stroke="#0f172a" stroke-width="1"/>
<rect x="266" y="42" width="12" height="12" fill="#0f172a" stroke="#0f172a" stroke-width="1"/>
<rect x="266" y="56" width="12" height="12" fill="#0f172a" stroke="#0f172a" stroke-width="1"/>
<rect x="266" y="70" width="12" height="12" fill="#0f172a" stroke="#0f172a" stroke-width="1"/>
<rect x="266" y="84" width="12" height="12" fill="#0f172a" stroke="#0f172a" stroke-width="1"/>
<rect x="280" y="0" width="12" height="12" fill="#0f172a" stroke="#0f172a" stroke-width="1"/>
<rect x="280" y="14" width="12" height="12" fill="#0f172a" stroke="#0f172a" stroke-width="1"/>
<rect x="280" y="28" width="12" height="12" fill="#0f172a" stroke="#0f172a" stroke-width="1"/>
<rect x="280" y="42" width="12" height="12" fill="#0f172a" stroke="#0f172a" stroke-width="1"/>
<rect x="280" y="56" width="12" height="12" fill="#0f172a" stroke="#0f172a" stroke-width="1"/>
<rect x="280" y="70" width="12" height="12" fill="#0f172a" stroke="#0f172a" stroke-width="1"/>
<rect x="280" y="84" width="12" height="12" fill="#0f172a" stroke="#0f172a" stroke-width="1"/>
<rect x="294" y="0" width="12" height="12" fill="#0f172a" stroke="#0f172a" stroke-width="1"/>
<rect x="294" y="14" width="12" height="12" fill="#0f172a" stroke="#0f172a" stroke-width="1"/>
<rect x="294" y="28" width="12" height="12" fill="#0f172a" stroke="#0f172a" stroke-width="1"/>
<rect x="294" y="42" width="12" height="12" fill="#0f172a" stroke="#0f172a" stroke-width="1"/>
<rect x="294" y="56" width="12" height="12" fill="#0f172a" stroke="#0f172a" stroke-width="1"/>
<rect x="294" y="70" width="12" height="12" fill="#0f172a" stroke="#0f172a" stroke-width="1"/>
<rect x="294" y="84" width="12" height="12" fill="#0f172a" stroke="#0f172a" stroke-width="1"/>
<rect x="308" y="0" width="12" height="12" fill="#0f172a" stroke="#0f172a" stroke-width="1"/>
<rect x="308" y="14" width="12" height="12" fill="#0f172a" stroke="#0f172a" stroke-width="1"/>
<rect x="308" y="28" width="12" height="12" fill="#0f172a" stroke="#0f172a" stroke-width="1"/>
<rect x="308" y="42" width="12" height="12" fill="#0f172a" stroke="#0f172a" stroke-width="1"/>
<rect x="308" y="56" width="12" height="12" fill="#0f172a" stroke="#0f172a" stroke-width="1"/>
<rect x="308" y="70" width="12" height="12" fill="#0f172a" stroke="#0f172a" stroke-width="1"/>
<rect x="308" y="84" width="12" height="12" fill="#0f172a" stroke="#0f172a" stroke-width="1"/>
<rect x="322" y="0" width="12" height="12" fill="#0f172a" stroke="#0f172a" stroke-width="1"/>
<rect x="322" y="14" width="12" height="12" fill="#0f172a" stroke="#0f172a" stroke-width="1"/>
<rect x="322" y="28" width="12" height="12" fill="#0f172a" stroke="#0f172a" stroke-width="1"/>
<rect x="322" y="42" width="12" height="12" fill="#0f172a" stroke="#0f172a" stroke-width="1"/>
<rect x="322" y="56" width="12" height="12" fill="#0f172a" stroke="#0f172a" stroke-width="1"/>
<rect x="322" y="70" width="12" height="12" fill="#0f172a" stroke="#0f172a" stroke-width="1"/>
<rect x="322" y="84" width="12" height="12" fill="#0f172a" stroke="#0f172a" stroke-width="1"/>
<rect x="336" y="0" width="12" height="12" fill="#0f172a" stroke="#0f172a" stroke-width="1"/>
<rect x="336" y="14" width="12" height="12" fill="#0f172a" stroke="#0f172a" stroke-width="1"/>
<rect x="336" y="28" width="12" height="12" fill="#0f172a" stroke="#0f172a" stroke-width="1"/>
<rect x="336" y="42" width="12" height="12" fill="#0f172a" stroke="#0f172a" stroke-width="1"/>
<rect x="336" y="56" width="12" height="12" fill="#0f172a" stroke="#0f172a" stroke-width="1"/>
<rect x="336" y="70" width="12" height="12" fill="#0f172a" stroke="#0f172a" stroke-width="1"/>
<rect x="336" y="84" width="12" height="12" fill="#0f172a" stroke="#0f172a" stroke-width="1"/>
<rect x="350" y="0" width="12" height="12" fill="#0f172a" stroke="#0f172a" stroke-width="1"/>
<rect x="350" y="14" width="12" height="12" fill="#0f172a" stroke="#0f172a" stroke-width="1"/>
<rect x="350" y="28" width="12" height="12" fill="#0f172a" stroke="#0f172a" stroke-width="1"/>
<rect x="350" y="42" width="12" height="12" fill="#0f172a" stroke="#0f172a" stroke-width="1"/>
<rect x="350" y="56" width="12" height="12" fill="#0f172a" stroke="#0f172a" stroke-width="1"/>
<rect x="350" y="70" width="12" height="12" fill="#0f172a" stroke="#0f172a" stroke-width="1"/>
<rect x="350" y="84" width="12" height="12" fill="#0f172a" stroke="#0f172a" stroke-width="1"/>
<rect x="364" y="0" width="12" height="12" fill="#0f172a" stroke="#0f172a" stroke-width="1"/>
<rect x="364" y="14" width="12" height="12" fill="#0f172a" stroke="#0f172a" stroke-width="1"/>
<rect x="364" y="28" width="12" height="12" fill="#0f172a" stroke="#0f172a" stroke-width="1"/>
<rect x="364" y="42" width="12" height="12" fill="#0f172a" stroke="#0f172a" stroke-width="1"/>
<rect x="364" y="56" width="12" height="12" fill="#0f172a" stroke="#0f172a" stroke-width="1"/>
<rect x="364" y="70" width="12" height="12" fill="#0f172a" stroke="#0f172a" stroke-width="1"/>
<rect x="364" y="84" width="12" height="12" fill="#0f172a" stroke="#0f172a" stroke-width="1"/>
<rect x="378" y="0" width="12" height="12" fill="#0f172a" stroke="#0f172a" stroke-width="1"/>
<rect x="378" y="14" width="12" height="12" fill="#0f172a" stroke="#0f172a" stroke-width="1"/>
<rect x="378" y="28" width="12" height="12" fill="#0f172a" stroke="#0f172a" stroke-width="1"/>
<rect x="378" y="42" width="12" height="12" fill="#0f172a" stroke="#0f172a" stroke-width="1"/>
<rect x="378" y="56" width="12" height="12" fill="#0f172a" stroke="#0f172a" stroke-width="1"/>
<rect x="378" y="70" width="12" height="12" fill="#0f172a" stroke="#0f172a" stroke-width="1"/>
<rect x="378" y="84" width="12" height="12" fill="#0f172a" stroke="#0f172a" stroke-width="1"/>
<rect x="392" y="0" width="12" height="12" fill="#0f172a" stroke="#0f172a" stroke-width="1"/>
<rect x="392" y="14" width="12" height="12" fill="#0f172a" stroke="#0f172a" stroke-width="1"/>
<rect x="392" y="28" width="12" height="12" fill="#0f172a" stroke="#0f172a" stroke-width="1"/>
<rect x="392" y="42" width="12" height="12" fill="#0f172a" stroke="#0f172a" stroke-width="1"/>
<rect x="392" y="56" width="12" height="12" fill="#0f172a" stroke="#0f172a" stroke-width="1"/>
<rect x="392" y="70" width="12" height="12" fill="#0f172a" stroke="#0f172a" stroke-width="1"/>
<rect x="392" y="84" width="12" height="12" fill="#0f172a" stroke="#0f172a" stroke-width="1"/>
<rect x="406" y="0" width="12" height="12" fill="#0f172a" stroke="#0f172a" stroke-width="1"/>
<rect x="406" y="14" width="12" height="12" fill="#0f172a" stroke="#0f172a" stroke-width="1"/>
<rect x="406" y="28" width="12" height="12" fill="#0f172a" stroke="#0f172a" stroke-width="1"/>
<rect x="406" y="42" width="12" height="12" fill="#0f172a" stroke="#0f172a" stroke-width="1"/>
<rect x="406" y="56" width="12" height="12" fill="#0f172a" stroke="#0f172a" stroke-width="1"/>
<rect x="406" y="70" width="12" height="12" fill="#0f172a" stroke="#0f172a" stroke-width="1"/>
<rect x="406" y="84" width="12" height="12" fill="#0f172a" stroke="#0f172a" stroke-width="1"/>
<rect x="420" y="0" width="12" height="12" fill="#0f172a" stroke="#0f172a" stroke-width="1"/>
<rect x="420" y="14" width="12" height="12" fill="#0f172a" stroke="#0f172a" stroke-width="1"/>
<rect x="420" y="28" width="12" height="12" fill="#0f172a" stroke="#0f172a" stroke-width="1"/>
<rect x="420" y="42" width="12" height="12" fill="#0f172a" stroke="#0f172a" stroke-width="1"/>
<rect x="420" y="56" width="12" height="12" fill="#0f172a" stroke="#0f172a" stroke-width="1"/>
<rect x="420" y="70" width="12" height="12" fill="#0f172a" stroke="#0f172a" stroke-width="1"/>
<rect x="420" y="84" width="12" height="12" fill="#0f172a" stroke="#0f172a" stroke-width="1"/>
<rect x="434" y="0" width="12" height="12" fill="#0f172a" stroke="#0f172a" stroke-width="1"/>
<rect x="434" y="14" width="12" height="12" fill="#0f172a" stroke="#0f172a" stroke-width="1"/>
<rect x="434" y="28" width="12" height="12" fill="#0f172a" stroke="#0f172a" stroke-width="1"/>
<rect x="434" y="42" width="12" height="12" fill="#0f172a" stroke="#0f172a" stroke-width="1"/>
<rect x="434" y="56" width="12" height="12" fill="#0f172a" stroke="#0f172a" stroke-width="1"/>
<rect x="434" y="70" width="12" height="12" fill="#0f172a" stroke="#0f172a" stroke-width="1"/>
<rect x="434" y="84" width="12" height="12" fill="#0f172a" stroke="#0f172a" stroke-width="1"/>
<rect x="448" y="0" width="12" height="12" fill="#0f172a" stroke="#0f172a" stroke-width="1"/>
<rect x="448" y="14" width="12" height="12" fill="#0f172a" stroke="#0f172a" stroke-width="1"/>
<rect x="448" y="28" width="12" height="12" fill="#0f172a" stroke="#0f172a" stroke-width="1"/>
<rect x="448" y="42" width="12" height="12" fill="#0f172a" stroke="#0f172a" stroke-width="1"/>
<rect x="448" y="56" width="12" height="12" fill="#0f172a" stroke="#0f172a" stroke-width="1"/>
<rect x="448" y="70" width="12" height="12" fill="#0f172a" stroke="#0f172a" stroke-width="1"/>
<rect x="448" y="84" width="12" height="12" fill="#0f172a" stroke="#0f172a" stroke-width="1"/>
<rect x="462" y="0" width="12" height="12" fill="#0f172a" stroke="#0f172a" stroke-width="1"/>
<rect x="462" y="14" width="12" height="12" fill="#0f172a" stroke="#0f172a" stroke-width="1"/>
<rect x="462" y="28" width="12" height="12" fill="#0f172a" stroke="#0f172a" stroke-width="1"/>
<rect x="462" y="42" width="12" height="12" fill="#0f172a" stroke="#0f172a" stroke-width="1"/>
<rect x="462" y="56" width="12" height="12" fill="#0f172a" stroke="#0f172a" stroke-width="1"/>
<rect x="462" y="70" width="12" height="12" fill="#0f172a" stroke="#0f172a" stroke-width="1"/>
<rect x="462" y="84" width="12" height="12" fill="#0f172a" stroke="#0f172a" stroke-width="1"/>
<rect x="476" y="0" width="12" height="12" fill="#0f172a" stroke="#0f172a" stroke-width="1"/>
<rect x="476" y="14" width="12" height="12" fill="#0f172a" stroke="#0f172a" stroke-width="1"/>
<rect x="476" y="28" width="12" height="12" fill="#0f172a" stroke="#0f172a" stroke-width="1"/>
<rect x="476" y="42" width="12" height="12" fill="#0f172a" stroke="#0f172a" stroke-width="1"/>
<rect x="476" y="56" width="12" height="12" fill="#0f172a" stroke="#0f172a" stroke-width="1"/>
<rect x="476" y="70" width="12" height="12" fill="#0f172a" stroke="#0f172a" stroke-width="1"/>
<rect x="476" y="84" width="12" height="12" fill="#0f172a" stroke="#0f172a" stroke-width="1"/>
<rect x="490" y="0" width="12" height="12" fill="#0f172a" stroke="#0f172a" stroke-width="1"/>
<rect x="490" y="14" width="12" height="12" fill="#0f172a" stroke="#0f172a" stroke-width="1"/>
<rect x="490" y="28" width="12" height="12" fill="#0f172a" stroke="#0f172a" stroke-width="1"/>
<rect x="490" y="42" width="12" height="12" fill="#0f172a" stroke="#0f172a" stroke-width="1"/>
<rect x="490" y="56" width="12" height="12" fill="#0f172a" stroke="#0f172a" stroke-width="1"/>
<rect x="490" y="70" width="12" height="12" fill="#0f172a" stroke="#0f172a" stroke-width="1"/>
<rect x="490" y="84" width="12" height="12" fill="#0f172a" stroke="#0f172a" stroke-width="1"/>
<rect x="504" y="0" width="12" height="12" fill="#0f172a" stroke="#0f172a" stroke-width="1"/>
<rect x="504" y="14" width="12" height="12" fill="#0f172a" stroke="#0f172a" stroke-width="1"/>
<rect x="504" y="28" width="12" height="12" fill="#0f172a" stroke="#0f172a" stroke-width="1"/>
<rect x="504" y="42" width="12" height="12" fill="#0f172a" stroke="#0f172a" stroke-width="1"/>
<rect x="504" y="56" width="12" height="12" fill="#0f172a" stroke="#0f172a" stroke-width="1"/>
<rect x="504" y="70" width="12" height="12" fill="#0f172a" stroke="#0f172a" stroke-width="1"/>
<rect x="504" y="84" width="12" height="12" fill="#0f172a" stroke="#0f172a" stroke-width="1"/>
<rect x="518" y="0" width="12" height="12" fill="#0f172a" stroke="#0f172a" stroke-width="1"/>
<rect x="518" y="14" width="12" height="12" fill="#0f172a" stroke="#0f172a" stroke-width="1"/>
<rect x="518" y="28" width="12" height="12" fill="#0f172a" stroke="#0f172a" stroke-width="1"/>
<rect x="518" y="42" width="12" height="12" fill="#10b981" stroke="#0f172a" stroke-width="1"><title>2021-09-16
1 workout
Distance: 18.30 km
Duration: 53m
Avg speed: 20585.2 km/h
Elevation: 24 m</title></rect>
<rect x="518" y="56" width="12" height="12" fill="#0f172a" stroke="#0f172a" stroke-width="1"/>
<rect x="518" y="70" width="12" height="12" fill="#1f2937" stroke="#0f172a" stroke-width="1"><title>2021-09-18
1 workout
Distance: 17.05 km
Duration: 55m
Avg speed: 18518.6 km/h
Elevation: 79 m</title></rect>
<rect x="518" y="84" width="12" height="12" fill="#0f172a" stroke="#0f172a" stroke-width="1"/>
<rect x="532" y="0" width="12" height="12" fill="#0f172a" stroke="#0f172a" stroke-width="1"/>
<rect x="532" y="14" width="12" height="12" fill="#0f172a" stroke="#0f172a" stroke-width="1"/>
<rect x="532" y="28" width="12" height="12" fill="#0f172a" stroke="#0f172a" stroke-width="1"/>
<rect x="532" y="42" width="12" height="12" fill="#0f172a" stroke="#0f172a" stroke-width="1"/>
<rect x="532" y="56" width="12" height="12" fill="#0f172a" stroke="#0f172a" stroke-width="1"/>
<rect x="532" y="70" width="12" height="12" fill="#0f172a" stroke="#0f172a" stroke-width="1"/>
<rect x="532" y="84" width="12" height="12" fill="#0f172a" stroke="#0f172a" stroke-width="1"/>
<rect x="546" y="0" width="12" height="12" fill="#05ffa1" stroke="#0f172a" stroke-width="1"><title>2021-09-27
1 workout
Distance: 32.00 km
Duration: 1h 31m
Avg speed: 21022.8 km/h
Elevation: 62 m</title></rect>
<rect x="546" y="14" width="12" height="12" fill="#0f172a" stroke="#0f172a" stroke-width="1"/>
<rect x="546" y="28" width="12" height="12" fill="#0f172a" stroke="#0f172a" stroke-width="1"/>
<rect x="546" y="42" width="12" height="12" fill="#0f172a" stroke="#0f172a" stroke-width="1"/>
<rect x="546" y="56" width="12" height="12" fill="#0f172a" stroke="#0f172a" stroke-width="1"/>
<rect x="546" y="70" width="12" height="12" fill="#0f172a" stroke="#0f172a" stroke-width="1"/>
<rect x="546" y="84" width="12" height="12" fill="#0f172a" stroke="#0f172a" stroke-width="1"/>
<rect x="560" y="0" width="12" height="12" fill="#0f172a" stroke="#0f172a" stroke-width="1"/>
<rect x="560" y="14" width="12" height="12" fill="#0f172a" stroke="#0f172a" stroke-width="1"/>
<rect x="560" y="28" width="12" height="12" fill="#0f172a" stroke="#0f172a" stroke-width="1"/>
<rect x="560" y="42" width="12" height="12" fill="#0f172a" stroke="#0f172a" stroke-width="1"/>
<rect x="560" y="56" width="12" height="12" fill="#0f172a" stroke="#0f172a" stroke-width="1"/>
<rect x="560" y="70" width="12" height="12" fill="#0f172a" stroke="#0f172a" stroke-width="1"/>
<rect x="560" y="84" width="12" height="12" fill="#0f172a" stroke="#0f172a" stroke-width="1"/>
<rect x="574" y="0" width="12" height="12" fill="#0f172a" stroke="#0f172a" stroke-width="1"/>
<rect x="574" y="14" width="12" height="12" fill="#0f172a" stroke="#0f172a" stroke-width="1"/>
<rect x="574" y="28" width="12" height="12" fill="#0f172a" stroke="#0f172a" stroke-width="1"/>
<rect x="574" y="42" width="12" height="12" fill="#0f172a" stroke="#0f172a" stroke-width="1"/>
<rect x="574" y="56" width="12" height="12" fill="#0f172a" stroke="#0f172a" stroke-width="1"/>
<rect x="574" y="70" width="12" height="12" fill="#0f172a" stroke="#0f172a" stroke-width="1"/>
<rect x="574" y="84" width="12" height="12" fill="#0f172a" stroke="#0f172a" stroke-width="1"/>
<rect x="588" y="0" width="12" height="12" fill="#0f172a" stroke="#0f172a" stroke-width="1"/>
<rect x="588" y="14" width="12" height="12" fill="#0f172a" stroke="#0f172a" stroke-width="1"/>
<rect x="588" y="28" width="12" height="12" fill="#0f172a" stroke="#0f172a" stroke-width="1"/>
<rect x="588" y="42" width="12" height="12" fill="#0f172a" stroke="#0f172a" stroke-width="1"/>
<rect x="588" y="56" width="12" height="12" fill="#0f172a" stroke="#0f172a" stroke-width="1"/>
<rect x="588" y="70" width="12" height="12" fill="#0f172a" stroke="#0f172a" stroke-width="1"/>
<rect x="588" y="84" width="12" height="12" fill="#0f172a" stroke="#0f172a" stroke-width="1"/>
<rect x="602" y="0" width="12" height="12" fill="#0f172a" stroke="#0f172a" stroke-width="1"/>
<rect x="602" y="14" width="12" height="12" fill="#0f172a" stroke="#0f172a" stroke-width="1"/>
<rect x="602" y="28" width="12" height="12" fill="#0f172a" stroke="#0f172a" stroke-width="1"/>
<rect x="602" y="42" width="12" height="12" fill="#0f172a" stroke="#0f172a" stroke-width="1"/>
<rect x="602" y="56" width="12" height="12" fill="#0f172a" stroke="#0f172a" stroke-width="1"/>
<rect x="602" y="70" width="12" height="12" fill="#0f172a" stroke="#0f172a" stroke-width="1"/>
<rect x="602" y="84" width="12" height="12" fill="#0f172a" stroke="#0f172a" stroke-width="1"/>
<rect x="616" y="0" width="12" height="12" fill="#0f172a" stroke="#0f172a" stroke-width="1"/>
<rect x="616" y="14" width="12" height="12" fill="#0f172a" stroke="#0f172a" stroke-width="1"/>
<rect x="616" y="28" width="12" height="12" fill="#0f172a" stroke="#0f172a" stroke-width="1"/>
<rect x="616" y="42" width="12" height="12" fill="#0f172a" stroke="#0f172a" stroke-width="1"/>
<rect x="616" y="56" width="12" height="12" fill="#0f172a" stroke="#0f172a" stroke-width="1"/>
<rect x="616" y="70" width="12" height="12" fill="#0f172a" stroke="#0f172a" stroke-width="1"/>
<rect x="616" y="84" width="12" height="12" fill="#0f172a" stroke="#0f172a" stroke-width="1"/>
<rect x="630" y="0" width="12" height="12" fill="#0f172a" stroke="#0f172a" stroke-width="1"/>
<rect x="630" y="14" width="12" height="12" fill="#0f172a" stroke="#0f172a" stroke-width="1"/>
<rect x="630" y="28" width="12" height="12" fill="#0f172a" stroke="#0f172a" stroke-width="1"/>
<rect x="630" y="42" width="12" height="12" fill="#0f172a" stroke="#0f172a" stroke-width="1"/>
<rect x="630" y="56" width="12" height="12" fill="#0f172a" stroke="#0f172a" stroke-width="1"/>
<rect x="630" y="70" width="12" height="12" fill="#0f172a" stroke="#0f172a" stroke-width="1"/>
<rect x="630" y="84" width="12" height="12" fill="#0f172a" stroke="#0f172a" stroke-width="1"/>
<rect x="644" y="0" width="12" height="12" fill="#0f172a" stroke="#0f172a" stroke-width="1"/>
<rect x="644" y="14" width="12" height="12" fill="#0f172a" stroke="#0f172a" stroke-width="1"/>
<rect x="644" y="28" width="12" height="12" fill="#0f172a" stroke="#0f172a" stroke-width="1"/>
<rect x="644" y="42" width="12" height="12" fill="#0f172a" stroke="#0f172a" stroke-width="1"/>
<rect x="644" y="56" width="12" height="12" fill="#0f172a" stroke="#0f172a" stroke-width="1"/>
<rect x="644" y="70" width="12" height="12" fill="#0f172a" stroke="#0f172a" stroke-width="1"/>
<rect x="644" y="84" width="12" height="12" fill="#0f172a" stroke="#0f172a" stroke-width="1"/>
<rect x="658" y="0" width="12" height="12" fill="#0f172a" stroke="#0f172a" stroke-width="1"/>
<rect x="658" y="14" width="12" height="12" fill="#0f172a" stroke="#0f172a" stroke-width="1"/>
<rect x="658" y="28" width="12" height="12" fill="#0f172a" stroke="#0f172a" stroke-width="1"/>
<rect x="658" y="42" width="12" height="12" fill="#0f172a" stroke="#0f172a" stroke-width="1"/>
<rect x="658" y="56" width="12" height="12" fill="#0f172a" stroke="#0f172a" stroke-width="1"/>
<rect x="658" y="70" width="12" height="12" fill="#0f172a" stroke="#0f172a" stroke-width="1"/>
<rect x="658" y="84" width="12" height="12" fill="#0f172a" stroke="#0f172a" stroke-width="1"/>
<rect x="672" y="0" width="12" height="12" fill="#0f172a" stroke="#0f172a" stroke-width="1"/>
<rect x="672" y="14" width="12" height="12" fill="#0f172a" stroke="#0f172a" stroke-width="1"/>
<rect x="672" y="28" width="12" height="12" fill="#0f172a" stroke="#0f172a" stroke-width="1"/>
<rect x="672" y="42" width="12" height="12" fill="#0f172a" stroke="#0f172a" stroke-width="1"/>
<rect x="672" y="56" width="12" height="12" fill="#0f172a" stroke="#0f172a" stroke-width="1"/>
<rect x="672" y="70" width="12" height="12" fill="#0f172a" stroke="#0f172a" stroke-width="1"/>
<rect x="672" y="84" width="12" height="12" fill="#0f172a" stroke="#0f172a" stroke-width="1"/>
<rect x="686" y="0" width="12" height="12" fill="#0f172a" stroke="#0f172a" stroke-width="1"/>
<rect x="686" y="14" width="12" height="12" fill="#0f172a" stroke="#0f172a" stroke-width="1"/>
<rect x="686" y="28" width="12" height="12" fill="#0f172a" stroke="#0f172a" stroke-width="1"/>
<rect x="686" y="42" width="12" height="12" fill="#0f172a" stroke="#0f172a" stroke-width="1"/>
<rect x="686" y="56" width="12" height="12" fill="#0f172a" stroke="#0f172a" stroke-width="1"/>
<rect x="686" y="70" width="12" height="12" fill="#0f172a" stroke="#0f172a" stroke-width="1"/>
<rect x="686" y="84" width="12" height="12" fill="#0f172a" stroke="#0f172a" stroke-width="1"/>
<rect x="700" y="0" width="12" height="12" fill="#0f172a" stroke="#0f172a" stroke-width="1"/>
<rect x="700" y="14" width="12" height="12" fill="#0f172a" stroke="#0f172a" stroke-width="1"/>
<rect x="700" y="28" width="12" height="12" fill="#0f172a" stroke="#0f172a" stroke-width="1"/>
<rect x="700" y="42" width="12" height="12" fill="#0f172a" stroke="#0f172a" stroke-width="1"/>
<rect x="700" y="56" width="12" height="12" fill="#0f172a" stroke="#0f172a" stroke-width="1"/>
<rect x="700" y="70" width="12" height="12" fill="#0f172a" stroke="#0f172a" stroke-width="1"/>
<rect x="700" y="84" width="12" height="12" fill="#0f172a" stroke="#0f172a" stroke-width="1"/>
<rect x="714" y="0" width="12" height="12" fill="#0f172a" stroke="#0f172a" stroke-width="1"/>
<rect x="714" y="14" width="12" height="12" fill="#0f172a" stroke="#0f172a" stroke-width="1"/>
<rect x="714" y="28" width="12" height="12" fill="#0f172a" stroke="#0f172a" stroke-width="1"/>
<rect x="714" y="42" width="12" height="12" fill="#0f172a" stroke="#0f172a" stroke-width="1"/>
<rect x="714" y="56" width="12" height="12" fill="#0f172a" stroke="#0f172a" stroke-width="1"/>
<rect x="714" y="70" width="12" height="12" fill="#0f172a" stroke="#0f172a" stroke-width="1"/>
<rect x="714" y="84" width="12" height="12" fill="#0f172a" stroke="#0f172a" stroke-width="1"/>
<rect x="728" y="0" width="12" height="12" fill="#0f172a" stroke="#0f172a" stroke-width="1"/>
<rect x="728" y="14" width="12" height="12" fill="#0f172a" stroke="#0f172a" stroke-width="1"/>
<rect x="728" y="28" width="12" height="12" fill="#0f172a" stroke="#0f172a" stroke-width="1"/>
<rect x="728" y="42" width="12" height="12" fill="#0f172a" stroke="#0f172a" stroke-width="1"/>
<rect x="728" y="56" width="12" height="12" fill="#0f172a" stroke="#0f172a" stroke-width="1"/>
<rect x="728" y="70" width="12" height="12" fill="#0f172a" stroke="#0f172a" stroke-width="1"/>
<rect x="728" y="84" width="12" height="12" fill="#0f172a" stroke="#0f172a" stroke-width="1"/>
</g></svg>
