<?xml version="1.0" encoding="UTF-8"?>
<svg xmlns="http://www.w3.org/2000/svg" width="810" height="150" viewBox="0 0 810 150">
<rect width="810" height="150" fill="#0f172a"/>
<text x="16" y="28" font-size="12" fill="#e5e7eb" font-family="Arial, sans-serif">2022</text>
<text x="52" y="28" font-size="10" fill="#cbd5e1" font-family="Arial, sans-serif">Jan</text>
<text x="122" y="28" font-size="10" fill="#cbd5e1" font-family="Arial, sans-serif">Feb</text>
<text x="178" y="28" font-size="10" fill="#cbd5e1" font-family="Arial, sans-serif">Mar</text>
<text x="234" y="28" font-size="10" fill="#cbd5e1" font-family="Arial, sans-serif">Apr</text>
<text x="290" y="28" font-size="10" fill="#cbd5e1" font-family="Arial, sans-serif">May</text>
<text x="360" y="28" font-size="10" fill="#cbd5e1" font-family="Arial, sans-serif">Jun</text>
<text x="416" y="28" font-size="10" fill="#cbd5e1" font-family="Arial, sans-serif">Jul</text>
<text x="486" y="28" font-size="10" fill="#cbd5e1" font-family="Arial, sans-serif">Aug</text>
<text x="542" y="28" font-size="10" fill="#cbd5e1" font-family="Arial, sans-serif">Sep</text>
<text x="598" y="28" font-size="10" fill="#cbd5e1" font-family="Arial, sans-serif">Oct</text>
<text x="668" y="28" font-size="10" fill="#cbd5e1" font-family="Arial, sans-serif">Nov</text>
<text x="724" y="28" font-size="10" fill="#cbd5e1" font-family="Arial, sans-serif">Dec</text>
<text x="46" y="46" font-size="9" fill="#cbd5e1" font-family="Arial, sans-serif" text-anchor="end">Mon</text>
<text x="46" y="60" font-size="9" fill="#cbd5e1" font-family="Arial, sans-serif" text-anchor="end">Tue</text>
<text x="46" y="74" font-size="9" fill="#cbd5e1" font-family="Arial, sans-serif" text-anchor="end">Wed</text>
<text x="46" y="88" font-size="9" fill="#cbd5e1" font-family="Arial, sans-serif" text-anchor="end">Thu</text>
<text x="46" y="102" font-size="9" fill="#cbd5e1" font-family="Arial, sans-serif" text-anchor="end">Fri</text>
<text x="46" y="116" font-size="9" fill="#cbd5e1" font-family="Arial, sans-serif" text-anchor="end">Sat</text>
<text x="46" y="130" font-size="9" fill="#cbd5e1" font-family="Arial, sans-serif" text-anchor="end">Sun</text>
<g transform="translate(52,36)">
<rect x="0" y="0" width="12" height="12" fill="#0f172a" stroke="#0f172a" stroke-width="1"/>
<rect x="0" y="14" width="12" height="12" fill="#0f172a" stroke="#0f172a" stroke-width="1"/>
<rect x="0" y="28" width="12" height="12" fill="#0f172a" stroke="#0f172a" stroke-width="1"/>
<rect x="0" y="42" width="12" height="12" fill="#0f172a" stroke="#0f172a" stroke-width="1"/>
<rect x="0" y="56" width="12" height="12" fill="#0f172a" stroke="#0f172a" stroke-width="1"/>
<rect x="0" y="70" width="12" height="12" fill="#0f172a" stroke="#0f172a" stroke-width="1"/>
<rect x="0" y="84" width="12" height="12" fill="#0f172a" stroke="#0f172a" stroke-width="1"/>
<rect x="14" y="0" width="12" height="12" fill="#0f172a" stroke="#0f172a" stroke-width="1"/>
<rect x="14" y="14" width="12" height="12" fill="#0f172a" stroke="#0f172a" stroke-width="1"/>
<rect x="14" y="28" width="12" height="12" fill="#0f172a" stroke="#0f172a" stroke-width="1"/>
<rect x="14" y="42" width="12" height="12" fill="#0f172a" stroke="#0f172a" stroke-width="1"/>
<rect x="14" y="56" width="12" height="12" fill="#0f172a" stroke="#0f172a" stroke-width="1"/>
<rect x="14" y="70" width="12" height="12" fill="#0f172a" stroke="#0f172a" stroke-width="1"/>
<rect x="14" y="84" width="12" height="12" fill="#0f172a" stroke="#0f172a" stroke-width="1"/>
<rect x="28" y="0" width="12" height="12" fill="#0f172a" stroke="#0f172a" stroke-width="1"/>
<rect x="28" y="14" width="12" height="12" fill="#0f172a" stroke="#0f172a" stroke-width="1"/>
<rect x="28" y="28" width="12" height="12" fill="#0f172a" stroke="#0f172a" stroke-width="1"/>
<rect x="28" y="42" width="12" height="12" fill="#0f172a" stroke="#0f172a" stroke-width="1"/>
<rect x="28" y="56" width="12" height="12" fill="#0f172a" stroke="#0f172a" stroke-width="1"/>
<rect x="28" y="70" width="12" height="12" fill="#0f172a" stroke="#0f172a" stroke-width="1"/>
<rect x="28" y="84" width="12" height="12" fill="#0f172a" stroke="#0f172a" stroke-width="1"/>
<rect x="42" y="0" width="12" height="12" fill="#0f172a" stroke="#0f172a" stroke-width="1"/>
<rect x="42" y="14" width="12" height="12" fill="#0f172a" stroke="#0f172a" stroke-width="1"/>
<rect x="42" y="28" width="12" height="12" fill="#0f172a" stroke="#0f172a" stroke-width="1"/>
<rect x="42" y="42" width="12" height="12" fill="#0f172a" stroke="#0f172a" stroke-width="1"/>
<rect x="42" y="56" width="12" height="12" fill="#0f172a" stroke="#0f172a" stroke-width="1"/>
<rect x="42" y="70" width="12" height="12" fill="#0f172a" stroke="#0f172a" stroke-width="1"/>
<rect x="42" y="84" width="12" height="12" fill="#0f172a" stroke="#0f172a" stroke-width="1"/>
<rect x="56" y="0" width="12" height="12" fill="#0f172a" stroke="#0f172a" stroke-width="1"/>
<rect x="56" y="14" width="12" height="12" fill="#0f172a" stroke="#0f172a" stroke-width="1"/>
<rect x="56" y="28" width="12" height="12" fill="#0f172a" stroke="#0f172a" stroke-width="1"/>
<rect x="56" y="42" width="12" height="12" fill="#0f172a" stroke="#0f172a" stroke-width="1"/>
<rect x="56" y="56" width="12" height="12" fill="#0f172a" stroke="#0f172a" stroke-width="1"/>
<rect x="56" y="70" width="12" height="12" fill="#0f172a" stroke="#0f172a" stroke-width="1"/>
<rect x="56" y="84" width="12" height="12" fill="#0f172a" stroke="#0f172a" stroke-width="1"/>
<rect x="70" y="0" width="12" height="12" fill="#0f172a" stroke="#0f172a" stroke-width="1"/>
<rect x="70" y="14" width="12" height="12" fill="#0f172a" stroke="#0f172a" stroke-width="1"/>
<rect x="70" y="28" width="12" height="12" fill="#0f172a" stroke="#0f172a" stroke-width="1"/>
<rect x="70" y="42" width="12" height="12" fill="#0f172a" stroke="#0f172a" stroke-width="1"/>
<rect x="70" y="56" width="12" height="12" fill="#0f172a" stroke="#0f172a" stroke-width="1"/>
<rect x="70" y="70" width="12" height="12" fill="#0f172a" stroke="#0f172a" stroke-width="1"/>
<rect x="70" y="84" width="12" height="12" fill="#0f172a" stroke="#0f172a" stroke-width="1"/>
<rect x="84" y="0" width="12" height="12" fill="#0f172a" stroke="#0f172a" stroke-width="1"/>
<rect x="84" y="14" width="12" height="12" fill="#0f172a" stroke="#0f172a" stroke-width="1"/>
<rect x="84" y="28" width="12" height="12" fill="#0f172a" stroke="#0f172a" stroke-width="1"/>
<rect x="84" y="42" width="12" height="12" fill="#0f172a" stroke="#0f172a" stroke-width="1"/>
<rect x="84" y="56" width="12" height="12" fill="#0f172a" stroke="#0f172a" stroke-width="1"/>
<rect x="84" y="70" width="12" height="12" fill="#0f172a" stroke="#0f172a" stroke-width="1"/>
<rect x="84" y="84" width="12" height="12" fill="#0f172a" stroke="#0f172a" stroke-width="1"/>
<rect x="98" y="0" width="12" height="12" fill="#0f172a" stroke="#0f172a" stroke-width="1"/>
<rect x="98" y="14" width="12" height="12" fill="#0f172a" stroke="#0f172a" stroke-width="1"/>
<rect x="98" y="28" width="12" height="12" fill="#0f172a" stroke="#0f172a" stroke-width="1"/>
<rect x="98" y="42" width="12" height="12" fill="#0f172a" stroke="#0f172a" stroke-width="1"/>
<rect x="98" y="56" width="12" height="12" fill="#0f172a" stroke="#0f172a" stroke-width="1"/>
<rect x="98" y="70" width="12" height="12" fill="#0f172a" stroke="#0f172a" stroke-width="1"/>
<rect x="98" y="84" width="12" height="12" fill="#0f172a" stroke="#0f172a" stroke-width="1"/>
<rect x="112" y="0" width="12" height="12" fill="#0f172a" stroke="#0f172a" stroke-width="1"/>
<rect x="112" y="14" width="12" height="12" fill="#0f172a" stroke="#0f172a" stroke-width="1"/>
<rect x="112" y="28" width="12" height="12" fill="#0f172a" stroke="#0f172a" stroke-width="1"/>
<rect x="112" y="42" width="12" height="12" fill="#0f172a" stroke="#0f172a" stroke-width="1"/>
<rect x="112" y="56" width="12" height="12" fill="#0f172a" stroke="#0f172a" stroke-width="1"/>
<rect x="112" y="70" width="12" height="12" fill="#0f172a" stroke="#0f172a" stroke-width="1"/>
<rect x="112" y="84" width="12" height="12" fill="#0f172a" stroke="#0f172a" stroke-width="1"/>
<rect x="126" y="0" width="12" height="12" fill="#0f172a" stroke="#0f172a" stroke-width="1"/>
<rect x="126" y="14" width="12" height="12" fill="#0f172a" stroke="#0f172a" stroke-width="1"/>
<rect x="126" y="28" width="12" height="12" fill="#0f172a" stroke="#0f172a" stroke-width="1"/>
<rect x="126" y="42" width="12" height="12" fill="#0f172a" stroke="#0f172a" stroke-width="1"/>
<rect x="126" y="56" width="12" height="12" fill="#0f172a" stroke="#0f172a" stroke-width="1"/>
<rect x="126" y="70" width="12" height="12" fill="#0f172a" stroke="#0f172a" stroke-width="1"/>
<rect x="126" y="84" width="12" height="12" fill="#0f172a" stroke="#0f172a" stroke-width="1"/>
<rect x="140" y="0" width="12" height="12" fill="#0f172a" stroke="#0f172a" stroke-width="1"/>
<rect x="140" y="14" width="12" height="12" fill="#0f172a" stroke="#0f172a" stroke-width="1"/>
<rect x="140" y="28" width="12" height="12" fill="#0f172a" stroke="#0f172a" stroke-width="1"/>
<rect x="140" y="42" width="12" height="12" fill="#0f172a" stroke="#0f172a" stroke-width="1"/>
<rect x="140" y="56" width="12" height="12" fill="#0f172a" stroke="#0f172a" stroke-width="1"/>
<rect x="140" y="70" width="12" height="12" fill="#0f172a" stroke="#0f172a" stroke-width="1"/>
<rect x="140" y="84" width="12" height="12" fill="#0f172a" stroke="#0f172a" stroke-width="1"/>
<rect x="154" y="0" width="12" height="12" fill="#0f172a" stroke="#0f172a" stroke-width="1"/>
<rect x="154" y="14" width="12" height="12" fill="#0f172a" stroke="#0f172a" stroke-width="1"/>
<rect x="154" y="28" width="12" height="12" fill="#0f172a" stroke="#0f172a" stroke-width="1"/>
<rect x="154" y="42" width="12" height="12" fill="#0f172a" stroke="#0f172a" stroke-width="1"/>
<rect x="154" y="56" width="12" height="12" fill="#0f172a" stroke="#0f172a" stroke-width="1"/>
<rect x="154" y="70" width="12" height="12" fill="#0f172a" stroke="#0f172a" stroke-width="1"/>
<rect x="154" y="84" width="12" height="12" fill="#0f172a" stroke="#0f172a" stroke-width="1"/>
<rect x="168" y="0" width="12" height="12" fill="#0f172a" stroke="#0f172a" stroke-width="1"/>
<rect x="168" y="14" width="12" height="12" fill="#0f172a" stroke="#0f172a" stroke-width="1"/>
<rect x="168" y="28" width="12" height="12" fill="#0f172a" stroke="#0f172a" stroke-width="1"/>
<rect x="168" y="42" width="12" height="12" fill="#0f172a" stroke="#0f172a" stroke-width="1"/>
<rect x="168" y="56" width="12" height="12" fill="#0f172a" stroke="#0f172a" stroke-width="1"/>
<rect x="168" y="70" width="12" height="12" fill="#0f172a" stroke="#0f172a" stroke-width="1"/>
<rect x="168" y="84" width="12" height="12" fill="#0f172a" stroke="#0f172a" stroke-width="1"/>
<rect x="182" y="0" width="12" height="12" fill="#0f172a" stroke="#0f172a" stroke-width="1"/>
<rect x="182" y="14" width="12" height="12" fill="#0f172a" stroke="#0f172a" stroke-width="1"/>
<rect x="182" y="28" width="12" height="12" fill="#0f172a" stroke="#0f172a" stroke-width="1"/>
<rect x="182" y="42" width="12" height="12" fill="#0f172a" stroke="#0f172a" stroke-width="1"/>
<rect x="182" y="56" width="12" height="12" fill="#0f172a" stroke="#0f172a" stroke-width="1"/>
<rect x="182" y="70" width="12" height="12" fill="#0f172a" stroke="#0f172a" stroke-width="1"/>
<rect x="182" y="84" width="12" height="12" fill="#0f172a" stroke="#0f172a" stroke-width="1"/>
<rect x="196" y="0" width="12" height="12" fill="#0f172a" stroke="#0f172a" stroke-width="1"/>
<rect x="196" y="14" width="12" height="12" fill="#0f172a" stroke="#0f172a" stroke-width="1"/>
<rect x="196" y="28" width="12" height="12" fill="#0f172a" stroke="#0f172a" stroke-width="1"/>
<rect x="196" y="42" width="12" height="12" fill="#0f172a" stroke="#0f172a" stroke-width="1"/>
<rect x="196" y="56" width="12" height="12" fill="#0f172a" stroke="#0f172a" stroke-width="1"/>
<rect x="196" y="70" width="12" height="12" fill="#0f172a" stroke="#0f172a" stroke-width="1"/>
<rect x="196" y="84" width="12" height="12" fill="#0f172a" stroke="#0f172a" stroke-width="1"/>
<rect x="210" y="0" width="12" height="12" fill="#0f172a" stroke="#0f172a" stroke-width="1"/>
<rect x="210" y="14" width="12" height="12" fill="#0f172a" stroke="#0f172a" stroke-width="1"/>
<rect x="210" y="28" width="12" height="12" fill="#0f172a" stroke="#0f172a" stroke-width="1"/>
<rect x="210" y="42" width="12" height="12" fill="#0f172a" stroke="#0f172a" stroke-width="1"/>
<rect x="210" y="56" width="12" height="12" fill="#0f172a" stroke="#0f172a" stroke-width="1"/>
<rect x="210" y="70" width="12" height="12" fill="#0f172a" stroke="#0f172a" stroke-width="1"/>
<rect x="210" y="84" width="12" height="12" fill="#0f172a" stroke="#0f172a" stroke-width="1"/>
<rect x="224" y="0" width="12" height="12" fill="#0f172a" stroke="#0f172a" stroke-width="1"/>
<rect x="224" y="14" width="12" height="12" fill="#0f172a" stroke="#0f172a" stroke-width="1"/>
<rect x="224" y="28" width="12" height="12" fill="#0f172a" stroke="#0f172a" stroke-width="1"/>
<rect x="224" y="42" width="12" height="12" fill="#0f172a" stroke="#0f172a" stroke-width="1"/>
<rect x="224" y="56" width="12" height="12" fill="#0f172a" stroke="#0f172a" stroke-width="1"/>
<rect x="224" y="70" width="12" height="12" fill="#0f172a" stroke="#0f172a" stroke-width="1"/>
<rect x="224" y="84" width="12" height="12" fill="#0f172a" stroke="#0f172a" stroke-width="1"/>
<rect x="238" y="0" width="12" height="12" fill="#0f172a" stroke="#0f172a" stroke-width="1"/>
<rect x="238" y="14" width="12" height="12" fill="#0f172a" stroke="#0f172a" stroke-width="1"/>
<rect x="238" y="28" width="12" height="12" fill="#0f172a" stroke="#0f172a" stroke-width="1"/>
<rect x="238" y="42" width="12" height="12" fill="#0f172a" stroke="#0f172a" stroke-width="1"/>
<rect x="238" y="56" width="12" height="12" fill="#0f172a" stroke="#0f172a" stroke-width="1"/>
<rect x="238" y="70" width="12" height="12" fill="#0f172a" stroke="#0f172a" stroke-width="1"/>
<rect x="238" y="84" width="12" height="12" fill="#0f172a" stroke="#0f172a" stroke-width="1"/>
<rect x="252" y="0" width="12" height="12" fill="#0f172a" stroke="#0f172a" stroke-width="1"/>
<rect x="252" y="14" width="12" height="12" fill="#0f172a" stroke="#0f172a" stroke-width="1"/>
<rect x="252" y="28" width="12" height="12" fill="#0f172a" stroke="#0f172a" stroke-width="1"/>
<rect x="252" y="42" width="12" height="12" fill="#0f172a" stroke="#0f172a" stroke-width="1"/>
<rect x="252" y="56" width="12" height="12" fill="#0f172a" stroke="#0f172a" stroke-width="1"/>
<rect x="252" y="70" width="12" height="12" fill="#0f172a" stroke="#0f172a" stroke-width="1"/>
<rect x="252" y="84" width="12" height="12" fill="#0f172a" stroke="#0f172a" stroke-width="1"/>
<rect x="266" y="0" width="12" height="12" fill="#0f172a" stroke="#0f172a" stroke-width="1"/>
<rect x="266" y="14" width="12" height="12" fill="#0f172a" stroke="#0f172a" stroke-width="1"/>
<rect x="266" y="28" width="12" height="12" fill="#0f172a" stroke="#0f172a" stroke-width="1"/>
<rect x="266" y="42" width="12" height="12" fill="#0f172a" stroke="#0f172a" stroke-width="1"/>
<rect x="266" y="56" width="12" height="12" fill="#0f172a" stroke="#0f172a" stroke-width="1"/>
<rect x="266" y="70" width="12" height="12" fill="#0f172a" stroke="#0f172a" stroke-width="1"/>
<rect x="266" y="84" width="12" height="12" fill="#0f172a" stroke="#0f172a" stroke-width="1"/>
<rect x="280" y="0" width="12" height="12" fill="#0f172a" stroke="#0f172a" stroke-width="1"/>
<rect x="280" y="14" width="12" height="12" fill="#0f172a" stroke="#0f172a" stroke-width="1"/>
<rect x="280" y="28" width="12" height="12" fill="#0f172a" stroke="#0f172a" stroke-width="1"/>
<rect x="280" y="42" width="12" height="12" fill="#0f172a" stroke="#0f172a" stroke-width="1"/>
<rect x="280" y="56" width="12" height="12" fill="#0f172a" stroke="#0f172a" stroke-width="1"/>
<rect x="280" y="70" width="12" height="12" fill="#0f172a" stroke="#0f172a" stroke-width="1"/>
<rect x="280" y="84" width="12" height="12" fill="#0f172a" stroke="#0f172a" stroke-width="1"/>
<rect x="294" y="0" width="12" height="12" fill="#0f172a" stroke="#0f172a" stroke-width="1"/>
<rect x="294" y="14" width="12" height="12" fill="#0f172a" stroke="#0f172a" stroke-width="1"/>
<rect x="294" y="28" width="12" height="12" fill="#0f172a" stroke="#0f172a" stroke-width="1"/>
<rect x="294" y="42" width="12" height="12" fill="#0f172a" stroke="#0f172a" stroke-width="1"/>
<rect x="294" y="56" width="12" height="12" fill="#0f172a" stroke="#0f172a" stroke-width="1"/>
<rect x="294" y="70" width="12" height="12" fill="#0f172a" stroke="#0f172a" stroke-width="1"/>
<rect x="294" y="84" width="12" height="12" fill="#0f172a" stroke="#0f172a" stroke-width="1"/>
<rect x="308" y="0" width="12" height="12" fill="#0f172a" stroke="#0f172a" stroke-width="1"/>
<rect x="308" y="14" width="12" height="12" fill="#0f172a" stroke="#0f172a" stroke-width="1"/>
<rect x="308" y="28" width="12" height="12" fill="#0f172a" stroke="#0f172a" stroke-width="1"/>
<rect x="308" y="42" width="12" height="12" fill="#0f172a" stroke="#0f172a" stroke-width="1"/>
<rect x="308" y="56" width="12" height="12" fill="#0f172a" stroke="#0f172a" stroke-width="1"/>
<rect x="308" y="70" width="12" height="12" fill="#0f172a" stroke="#0f172a" stroke-width="1"/>
<rect x="308" y="84" width="12" height="12" fill="#0f172a" stroke="#0f172a" stroke-width="1"/>
<rect x="322" y="0" width="12" height="12" fill="#0f172a" stroke="#0f172a" stroke-width="1"/>
<rect x="322" y="14" width="12" height="12" fill="#0f172a" stroke="#0f172a" stroke-width="1"/>
<rect x="322" y="28" width="12" height="12" fill="#0f172a" stroke="#0f172a" stroke-width="1"/>
<rect x="322" y="42" width="12" height="12" fill="#0f172a" stroke="#0f172a" stroke-width="1"/>
<rect x="322" y="56" width="12" height="12" fill="#0f172a" stroke="#0f172a" stroke-width="1"/>
<rect x="322" y="70" width="12" height="12" fill="#0f172a" stroke="#0f172a" stroke-width="1"/>
<rect x="322" y="84" width="12" height="12" fill="#0f172a" stroke="#0f172a" stroke-width="1"/>
<rect x="336" y="0" width="12" height="12" fill="#0f172a" stroke="#0f172a" stroke-width="1"/>
<rect x="336" y="14" width="12" height="12" fill="#0f172a" stroke="#0f172a" stroke-width="1"/>
<rect x="336" y="28" width="12" height="12" fill="#0f172a" stroke="#0f172a" stroke-width="1"/>
<rect x="336" y="42" width="12" height="12" fill="#0f172a" stroke="#0f172a" stroke-width="1"/>
<rect x="336" y="56" width="12" height="12" fill="#0f172a" stroke="#0f172a" stroke-width="1"/>
<rect x="336" y="70" width="12" height="12" fill="#0f172a" stroke="#0f172a" stroke-width="1"/>
<rect x="336" y="84" width="12" height="12" fill="#0f172a" stroke="#0f172a" stroke-width="1"/>
<rect x="350" y="0" width="12" height="12" fill="#0f172a" stroke="#0f172a" stroke-width="1"/>
<rect x="350" y="14" width="12" height="12" fill="#0f172a" stroke="#0f172a" stroke-width="1"/>
<rect x="350" y="28" width="12" height="12" fill="#0f172a" stroke="#0f172a" stroke-width="1"/>
<rect x="350" y="42" width="12" height="12" fill="#0f172a" stroke="#0f172a" stroke-width="1"/>
<rect x="350" y="56" width="12" height="12" fill="#0f172a" stroke="#0f172a" stroke-width="1"/>
<rect x="350" y="70" width="12" height="12" fill="#0f172a" stroke="#0f172a" stroke-width="1"/>
<rect x="350" y="84" width="12" height="12" fill="#0f172a" stroke="#0f172a" stroke-width="1"/>
<rect x="364" y="0" width="12" height="12" fill="#0f172a" stroke="#0f172a" stroke-width="1"/>
<rect x="364" y="14" width="12" height="12" fill="#0f172a" stroke="#0f172a" stroke-width="1"/>
<rect x="364" y="28" width="12" height="12" fill="#0f172a" stroke="#0f172a" stroke-width="1"/>
<rect x="364" y="42" width="12" height="12" fill="#0f172a" stroke="#0f172a" stroke-width="1"/>
<rect x="364" y="56" width="12" height="12" fill="#0f172a" stroke="#0f172a" stroke-width="1"/>
<rect x="364" y="70" width="12" height="12" fill="#0f172a" stroke="#0f172a" stroke-width="1"/>
<rect x="364" y="84" width="12" height="12" fill="#0f172a" stroke="#0f172a" stroke-width="1"/>
<rect x="378" y="0" width="12" height="12" fill="#0f172a" stroke="#0f172a" stroke-width="1"/>
<rect x="378" y="14" width="12" height="12" fill="#0f172a" stroke="#0f172a" stroke-width="1"/>
<rect x="378" y="28" width="12" height="12" fill="#0f172a" stroke="#0f172a" stroke-width="1"/>
<rect x="378" y="42" width="12" height="12" fill="#0f172a" stroke="#0f172a" stroke-width="1"/>
<rect x="378" y="56" width="12" height="12" fill="#0f172a" stroke="#0f172a" stroke-width="1"/>
<rect x="378" y="70" width="12" height="12" fill="#0f172a" stroke="#0f172a" stroke-width="1"/>
<rect x="378" y="84" width="12" height="12" fill="#0f172a" stroke="#0f172a" stroke-width="1"/>
<rect x="392" y="0" width="12" height="12" fill="#0f172a" stroke="#0f172a" stroke-width="1"/>
<rect x="392" y="14" width="12" height="12" fill="#0f172a" stroke="#0f172a" stroke-width="1"/>
<rect x="392" y="28" width="12" height="12" fill="#0f172a" stroke="#0f172a" stroke-width="1"/>
<rect x="392" y="42" width="12" height="12" fill="#0f172a" stroke="#0f172a" stroke-width="1"/>
<rect x="392" y="56" width="12" height="12" fill="#0f172a" stroke="#0f172a" stroke-width="1"/>
<rect x="392" y="70" width="12" height="12" fill="#0f172a" stroke="#0f172a" stroke-width="1"/>
<rect x="392" y="84" width="12" height="12" fill="#0f172a" stroke="#0f172a" stroke-width="1"/>
<rect x="406" y="0" width="12" height="12" fill="#0f172a" stroke="#0f172a" stroke-width="1"/>
<rect x="406" y="14" width="12" height="12" fill="#0f172a" stroke="#0f172a" stroke-width="1"/>
<rect x="406" y="28" width="12" height="12" fill="#0f172a" stroke="#0f172a" stroke-width="1"/>
<rect x="406" y="42" width="12" height="12" fill="#0f172a" stroke="#0f172a" stroke-width="1"/>
<rect x="406" y="56" width="12" height="12" fill="#1f2937" stroke="#0f172a" stroke-width="1"><title>2022-07-22
1 workout
Distance: 0.93 km
Duration: 3m
Avg speed: 15930.9 km/h
Elevation: 0 m</title></rect>
<rect x="406" y="70" width="12" height="12" fill="#0f172a" stroke="#0f172a" stroke-width="1"/>
<rect x="406" y="84" width="12" height="12" fill="#0f172a" stroke="#0f172a" stroke-width="1"/>
<rect x="420" y="0" width="12" height="12" fill="#0f172a" stroke="#0f172a" stroke-width="1"/>
<rect x="420" y="14" width="12" height="12" fill="#0f172a" stroke="#0f172a" stroke-width="1"/>
<rect x="420" y="28" width="12" height="12" fill="#0f172a" stroke="#0f172a" stroke-width="1"/>
<rect x="420" y="42" width="12" height="12" fill="#0f172a" stroke="#0f172a" stroke-width="1"/>
<rect x="420" y="56" width="12" height="12" fill="#0f172a" stroke="#0f172a" stroke-width="1"/>
<rect x="420" y="70" width="12" height="12" fill="#0f172a" stroke="#0f172a" stroke-width="1"/>
<rect x="420" y="84" width="12" height="12" fill="#0f172a" stroke="#0f172a" stroke-width="1"/>
<rect x="434" y="0" width="12" height="12" fill="#0f172a" stroke="#0f172a" stroke-width="1"/>
<rect x="434" y="14" width="12" height="12" fill="#0f172a" stroke="#0f172a" stroke-width="1"/>
<rect x="434" y="28" width="12" height="12" fill="#0f172a" stroke="#0f172a" stroke-width="1"/>
<rect x="434" y="42" width="12" height="12" fill="#0f172a" stroke="#0f172a" stroke-width="1"/>
<rect x="434" y="56" width="12" height="12" fill="#0f172a" stroke="#0f172a" stroke-width="1"/>
<rect x="434" y="70" width="12" height="12" fill="#0f172a" stroke="#0f172a" stroke-width="1"/>
<rect x="434" y="84" width="12" height="12" fill="#0f172a" stroke="#0f172a" stroke-width="1"/>
<rect x="448" y="0" width="12" height="12" fill="#0f172a" stroke="#0f172a" stroke-width="1"/>
<rect x="448" y="14" width="12" height="12" fill="#0f172a" stroke="#0f172a" stroke-width="1"/>
<rect x="448" y="28" width="12" height="12" fill="#0f172a" stroke="#0f172a" stroke-width="1"/>
<rect x="448" y="42" width="12" height="12" fill="#0f172a" stroke="#0f172a" stroke-width="1"/>
<rect x="448" y="56" width="12" height="12" fill="#0f172a" stroke="#0f172a" stroke-width="1"/>
<rect x="448" y="70" width="12" height="12" fill="#0f172a" stroke="#0f172a" stroke-width="1"/>
<rect x="448" y="84" width="12" height="12" fill="#0f172a" stroke="#0f172a" stroke-width="1"/>
<rect x="462" y="0" width="12" height="12" fill="#1f2937" stroke="#0f172a" stroke-width="1"><title>2022-08-15
1 workout
Distance: 10.45 km
Duration: 30m
Avg speed: 20909.6 km/h
Elevation: 0 m</title></rect>
<rect x="462" y="14" width="12" height="12" fill="#10b981" stroke="#0f172a" stroke-width="1"><title>2022-08-16
1 workout
Distance: 12.29 km
Duration: 30m
Avg speed: 24574.8 km/h
Elevation: 0 m</title></rect>
<rect x="462" y="28" width="12" height="12" fill="#334155" stroke="#0f172a" stroke-width="1"><title>2022-08-17
1 workout
Distance: 11.42 km
Duration: 30m
Avg speed: 22836.6 km/h
Elevation: 0 m</title></rect>
<rect x="462" y="42" width="12" height="12" fill="#334155" stroke="#0f172a" stroke-width="1"><title>2022-08-18
1 workout
Distance: 11.40 km
Duration: 30m
Avg speed: 22796.2 km/h
Elevation: 0 m</title></rect>
<rect x="462" y="56" width="12" height="12" fill="#334155" stroke="#0f172a" stroke-width="1"><title>2022-08-19
2 workouts
Distance: 11.60 km
Duration: 30m
Avg speed: 23209.0 km/h
Elevation: 0 m</title></rect>
<rect x="462" y="70" width="12" height="12" fill="#34d399" stroke="#0f172a" stroke-width="1"><title>2022-08-20
1 workout
Distance: 11.79 km
Duration: 30m
Avg speed: 23583.4 km/h
Elevation: 0 m</title></rect>
<rect x="462" y="84" width="12" height="12" fill="#1f2937" stroke="#0f172a" stroke-width="1"><title>2022-08-21
2 workouts
Distance: 12.16 km
Duration: 37m
Avg speed: 19228.0 km/h
Elevation: 59 m</title></rect>
<rect x="476" y="0" width="12" height="12" fill="#0f172a" stroke="#0f172a" stroke-width="1"/>
<rect x="476" y="14" width="12" height="12" fill="#334155" stroke="#0f172a" stroke-width="1"><title>2022-08-23
1 workout
Distance: 11.60 km
Duration: 30m
Avg speed: 23193.8 km/h
Elevation: 0 m</title></rect>
<rect x="476" y="28" width="12" height="12" fill="#05ffa1" stroke="#0f172a" stroke-width="1"><title>2022-08-24
1 workout
Distance: 12.45 km
Duration: 30m
Avg speed: 24906.6 km/h
Elevation: 0 m</title></rect>
<rect x="476" y="42" width="12" height="12" fill="#05ffa1" stroke="#0f172a" stroke-width="1"><title>2022-08-25
1 workout
Distance: 12.45 km
Duration: 30m
Avg speed: 24897.0 km/h
Elevation: 0 m</title></rect>
<rect x="476" y="56" width="12" height="12" fill="#34d399" stroke="#0f172a" stroke-width="1"><title>2022-08-26
1 workout
Distance: 12.05 km
Duration: 30m
Avg speed: 24105.6 km/h
Elevation: 0 m</title></rect>
<rect x="476" y="70" width="12" height="12" fill="#0f172a" stroke="#0f172a" stroke-width="1"/>
<rect x="476" y="84" width="12" height="12" fill="#0f172a" stroke="#0f172a" stroke-width="1"/>
<rect x="490" y="0" width="12" height="12" fill="#0f172a" stroke="#0f172a" stroke-width="1"/>
<rect x="490" y="14" width="12" height="12" fill="#0f172a" stroke="#0f172a" stroke-width="1"/>
<rect x="490" y="28" width="12" height="12" fill="#0f172a" stroke="#0f172a" stroke-width="1"/>
<rect x="490" y="42" width="12" height="12" fill="#0f172a" stroke="#0f172a" stroke-width="1"/>
<rect x="490" y="56" width="12" height="12" fill="#10b981" stroke="#0f172a" stroke-width="1"><title>2022-09-02
1 workout
Distance: 12.17 km
Duration: 30m
Avg speed: 24342.4 km/h
Elevation: 0 m</title></rect>
<rect x="490" y="70" width="12" height="12" fill="#334155" stroke="#0f172a" stroke-width="1"><title>2022-09-03
1 workout
Distance: 22.75 km
Duration: 1h 0m
Avg speed: 22751.2 km/h
Elevation: 0 m</title></rect>
<rect x="490" y="84" width="12" height="12" fill="#0f172a" stroke="#0f172a" stroke-width="1"/>
<rect x="504" y="0" width="12" height="12" fill="#34d399" stroke="#0f172a" stroke-width="1"><title>2022-09-05
1 workout
Distance: 23.99 km
Duration: 1h 0m
Avg speed: 23988.3 km/h
Elevation: 0 m</title></rect>
<rect x="504" y="14" width="12" height="12" fill="#0f172a" stroke="#0f172a" stroke-width="1"/>
<rect x="504" y="28" width="12" height="12" fill="#34d399" stroke="#0f172a" stroke-width="1"><title>2022-09-07
1 workout
Distance: 12.02 km
Duration: 30m
Avg speed: 24030.6 km/h
Elevation: 0 m</title></rect>
<rect x="504" y="42" width="12" height="12" fill="#34d399" stroke="#0f172a" stroke-width="1"><title>2022-09-08
1 workout
Distance: 12.12 km
Duration: 30m
Avg speed: 24248.2 km/h
Elevation: 0 m</title></rect>
<rect x="504" y="56" width="12" height="12" fill="#10b981" stroke="#0f172a" stroke-width="1"><title>2022-09-09
1 workout
Distance: 12.36 km
Duration: 30m
Avg speed: 24715.4 km/h
Elevation: 0 m</title></rect>
<rect x="504" y="70" width="12" height="12" fill="#10b981" stroke="#0f172a" stroke-width="1"><title>2022-09-10
2 workouts
Distance: 23.36 km
Duration: 56m
Avg speed: 24666.0 km/h
Elevation: 0 m</title></rect>
<rect x="504" y="84" width="12" height="12" fill="#05ffa1" stroke="#0f172a" stroke-width="1"><title>2022-09-11
1 workout
Distance: 12.93 km
Duration: 30m
Avg speed: 25861.4 km/h
Elevation: 0 m</title></rect>
<rect x="518" y="0" width="12" height="12" fill="#10b981" stroke="#0f172a" stroke-width="1"><title>2022-09-12
1 workout
Distance: 24.34 km
Duration: 1h 0m
Avg speed: 24335.7 km/h
Elevation: 0 m</title></rect>
<rect x="518" y="14" width="12" height="12" fill="#10b981" stroke="#0f172a" stroke-width="1"><title>2022-09-13
1 workout
Distance: 24.83 km
Duration: 1h 0m
Avg speed: 24831.5 km/h
Elevation: 0 m</title></rect>
<rect x="518" y="28" width="12" height="12" fill="#05ffa1" stroke="#0f172a" stroke-width="1"><title>2022-09-14
1 workout
Distance: 25.47 km
Duration: 1h 0m
Avg speed: 25470.3 km/h
Elevation: 0 m</title></rect>
<rect x="518" y="42" width="12" height="12" fill="#34d399" stroke="#0f172a" stroke-width="1"><title>2022-09-15
1 workout
Distance: 13.91 km
Duration: 34m
Avg speed: 24178.1 km/h
Elevation: 0 m</title></rect>
<rect x="518" y="56" width="12" height="12" fill="#05ffa1" stroke="#0f172a" stroke-width="1"><title>2022-09-16
1 workout
Distance: 25.58 km
Duration: 1h 0m
Avg speed: 25579.2 km/h
Elevation: 0 m</title></rect>
<rect x="518" y="70" width="12" height="12" fill="#05ffa1" stroke="#0f172a" stroke-width="1"><title>2022-09-17
1 workout
Distance: 13.30 km
Duration: 30m
Avg speed: 26601.0 km/h
Elevation: 0 m</title></rect>
<rect x="518" y="84" width="12" height="12" fill="#0f172a" stroke="#0f172a" stroke-width="1"/>
<rect x="532" y="0" width="12" height="12" fill="#05ffa1" stroke="#0f172a" stroke-width="1"><title>2022-09-19
1 workout
Distance: 25.65 km
Duration: 1h 0m
Avg speed: 25654.4 km/h
Elevation: 0 m</title></rect>
<rect x="532" y="14" width="12" height="12" fill="#10b981" stroke="#0f172a" stroke-width="1"><title>2022-09-20
1 workout
Distance: 24.67 km
Duration: 1h 0m
Avg speed: 24672.1 km/h
Elevation: 0 m</title></rect>
<rect x="532" y="28" width="12" height="12" fill="#0f172a" stroke="#0f172a" stroke-width="1"/>
<rect x="532" y="42" width="12" height="12" fill="#0f172a" stroke="#0f172a" stroke-width="1"/>
<rect x="532" y="56" width="12" height="12" fill="#0f172a" stroke="#0f172a" stroke-width="1"/>
<rect x="532" y="70" width="12" height="12" fill="#1f2937" stroke="#0f172a" stroke-width="1"><title>2022-09-24
1 workout
Distance: 19.39 km
Duration: 1h 0m
Avg speed: 19258.0 km/h
Elevation: 29 m</title></rect>
<rect x="532" y="84" width="12" height="12" fill="#334155" stroke="#0f172a" stroke-width="1"><title>2022-09-25
1 workout
Distance: 6.59 km
Duration: 17m
Avg speed: 22526.5 km/h
Elevation: 22 m</title></rect>
<rect x="546" y="0" width="12" height="12" fill="#0f172a" stroke="#0f172a" stroke-width="1"/>
<rect x="546" y="14" width="12" height="12" fill="#0f172a" stroke="#0f172a" stroke-width="1"/>
<rect x="546" y="28" width="12" height="12" fill="#0f172a" stroke="#0f172a" stroke-width="1"/>
<rect x="546" y="42" width="12" height="12" fill="#0f172a" stroke="#0f172a" stroke-width="1"/>
<rect x="546" y="56" width="12" height="12" fill="#0f172a" stroke="#0f172a" stroke-width="1"/>
<rect x="546" y="70" width="12" height="12" fill="#0f172a" stroke="#0f172a" stroke-width="1"/>
<rect x="546" y="84" width="12" height="12" fill="#0f172a" stroke="#0f172a" stroke-width="1"/>
<rect x="560" y="0" width="12" height="12" fill="#0f172a" stroke="#0f172a" stroke-width="1"/>
<rect x="560" y="14" width="12" height="12" fill="#0f172a" stroke="#0f172a" stroke-width="1"/>
<rect x="560" y="28" width="12" height="12" fill="#1f2937" stroke="#0f172a" stroke-width="1"><title>2022-10-05
1 workout
Distance: 1.98 km
Duration: 12m
Avg speed: 9624.4 km/h
Elevation: 65 m</title></rect>
<rect x="560" y="42" width="12" height="12" fill="#1f2937" stroke="#0f172a" stroke-width="1"><title>2022-10-06
1 workout
Distance: 3.48 km
Duration: 14m
Avg speed: 14906.1 km/h
Elevation: 71 m</title></rect>
<rect x="560" y="56" width="12" height="12" fill="#0f172a" stroke="#0f172a" stroke-width="1"/>
<rect x="560" y="70" width="12" height="12" fill="#0f172a" stroke="#0f172a" stroke-width="1"/>
<rect x="560" y="84" width="12" height="12" fill="#0f172a" stroke="#0f172a" stroke-width="1"/>
<rect x="574" y="0" width="12" height="12" fill="#334155" stroke="#0f172a" stroke-width="1"><title>2022-10-10
2 workouts
Distance: 5.16 km
Duration: 14m
Avg speed: 21249.9 km/h
Elevation: 0 m</title></rect>
<rect x="574" y="14" width="12" height="12" fill="#0f172a" stroke="#0f172a" stroke-width="1"/>
<rect x="574" y="28" width="12" height="12" fill="#0f172a" stroke="#0f172a" stroke-width="1"/>
<rect x="574" y="42" width="12" height="12" fill="#0f172a" stroke="#0f172a" stroke-width="1"/>
<rect x="574" y="56" width="12" height="12" fill="#0f172a" stroke="#0f172a" stroke-width="1"/>
<rect x="574" y="70" width="12" height="12" fill="#0f172a" stroke="#0f172a" stroke-width="1"/>
<rect x="574" y="84" width="12" height="12" fill="#0f172a" stroke="#0f172a" stroke-width="1"/>
<rect x="588" y="0" width="12" height="12" fill="#0f172a" stroke="#0f172a" stroke-width="1"/>
<rect x="588" y="14" width="12" height="12" fill="#0f172a" stroke="#0f172a" stroke-width="1"/>
<rect x="588" y="28" width="12" height="12" fill="#0f172a" stroke="#0f172a" stroke-width="1"/>
<rect x="588" y="42" width="12" height="12" fill="#0f172a" stroke="#0f172a" stroke-width="1"/>
<rect x="588" y="56" width="12" height="12" fill="#0f172a" stroke="#0f172a" stroke-width="1"/>
<rect x="588" y="70" width="12" height="12" fill="#0f172a" stroke="#0f172a" stroke-width="1"/>
<rect x="588" y="84" width="12" height="12" fill="#0f172a" stroke="#0f172a" stroke-width="1"/>
<rect x="602" y="0" width="12" height="12" fill="#0f172a" stroke="#0f172a" stroke-width="1"/>
<rect x="602" y="14" width="12" height="12" fill="#0f172a" stroke="#0f172a" stroke-width="1"/>
<rect x="602" y="28" width="12" height="12" fill="#0f172a" stroke="#0f172a" stroke-width="1"/>
<rect x="602" y="42" width="12" height="12" fill="#0f172a" stroke="#0f172a" stroke-width="1"/>
<rect x="602" y="56" width="12" height="12" fill="#0f172a" stroke="#0f172a" stroke-width="1"/>
<rect x="602" y="70" width="12" height="12" fill="#0f172a" stroke="#0f172a" stroke-width="1"/>
<rect x="602" y="84" width="12" height="12" fill="#0f172a" stroke="#0f172a" stroke-width="1"/>
<rect x="616" y="0" width="12" height="12" fill="#0f172a" stroke="#0f172a" stroke-width="1"/>
<rect x="616" y="14" width="12" height="12" fill="#0f172a" stroke="#0f172a" stroke-width="1"/>
<rect x="616" y="28" width="12" height="12" fill="#0f172a" stroke="#0f172a" stroke-width="1"/>
<rect x="616" y="42" width="12" height="12" fill="#0f172a" stroke="#0f172a" stroke-width="1"/>
<rect x="616" y="56" width="12" height="12" fill="#0f172a" stroke="#0f172a" stroke-width="1"/>
<rect x="616" y="70" width="12" height="12" fill="#0f172a" stroke="#0f172a" stroke-width="1"/>
<rect x="616" y="84" width="12" height="12" fill="#0f172a" stroke="#0f172a" stroke-width="1"/>
<rect x="630" y="0" width="12" height="12" fill="#0f172a" stroke="#0f172a" stroke-width="1"/>
<rect x="630" y="14" width="12" height="12" fill="#0f172a" stroke="#0f172a" stroke-width="1"/>
<rect x="630" y="28" width="12" height="12" fill="#0f172a" stroke="#0f172a" stroke-width="1"/>
<rect x="630" y="42" width="12" height="12" fill="#0f172a" stroke="#0f172a" stroke-width="1"/>
<rect x="630" y="56" width="12" height="12" fill="#0f172a" stroke="#0f172a" stroke-width="1"/>
<rect x="630" y="70" width="12" height="12" fill="#0f172a" stroke="#0f172a" stroke-width="1"/>
<rect x="630" y="84" width="12" height="12" fill="#0f172a" stroke="#0f172a" stroke-width="1"/>
<rect x="644" y="0" width="12" height="12" fill="#0f172a" stroke="#0f172a" stroke-width="1"/>
<rect x="644" y="14" width="12" height="12" fill="#0f172a" stroke="#0f172a" stroke-width="1"/>
<rect x="644" y="28" width="12" height="12" fill="#0f172a" stroke="#0f172a" stroke-width="1"/>
<rect x="644" y="42" width="12" height="12" fill="#0f172a" stroke="#0f172a" stroke-width="1"/>
<rect x="644" y="56" width="12" height="12" fill="#0f172a" stroke="#0f172a" stroke-width="1"/>
<rect x="644" y="70" width="12" height="12" fill="#0f172a" stroke="#0f172a" stroke-width="1"/>
<rect x="644" y="84" width="12" height="12" fill="#0f172a" stroke="#0f172a" stroke-width="1"/>
<rect x="658" y="0" width="12" height="12" fill="#0f172a" stroke="#0f172a" stroke-width="1"/>
<rect x="658" y="14" width="12" height="12" fill="#0f172a" stroke="#0f172a" stroke-width="1"/>
<rect x="658" y="28" width="12" height="12" fill="#0f172a" stroke="#0f172a" stroke-width="1"/>
<rect x="658" y="42" width="12" height="12" fill="#0f172a" stroke="#0f172a" stroke-width="1"/>
<rect x="658" y="56" width="12" height="12" fill="#0f172a" stroke="#0f172a" stroke-width="1"/>
<rect x="658" y="70" width="12" height="12" fill="#0f172a" stroke="#0f172a" stroke-width="1"/>
<rect x="658" y="84" width="12" height="12" fill="#0f172a" stroke="#0f172a" stroke-width="1"/>
<rect x="672" y="0" width="12" height="12" fill="#0f172a" stroke="#0f172a" stroke-width="1"/>
<rect x="672" y="14" width="12" height="12" fill="#0f172a" stroke="#0f172a" stroke-width="1"/>
<rect x="672" y="28" width="12" height="12" fill="#0f172a" stroke="#0f172a" stroke-width="1"/>
<rect x="672" y="42" width="12" height="12" fill="#0f172a" stroke="#0f172a" stroke-width="1"/>
<rect x="672" y="56" width="12" height="12" fill="#0f172a" stroke="#0f172a" stroke-width="1"/>
<rect x="672" y="70" width="12" height="12" fill="#0f172a" stroke="#0f172a" stroke-width="1"/>
<rect x="672" y="84" width="12" height="12" fill="#0f172a" stroke="#0f172a" stroke-width="1"/>
<rect x="686" y="0" width="12" height="12" fill="#0f172a" stroke="#0f172a" stroke-width="1"/>
<rect x="686" y="14" width="12" height="12" fill="#0f172a" stroke="#0f172a" stroke-width="1"/>
<rect x="686" y="28" width="12" height="12" fill="#0f172a" stroke="#0f172a" stroke-width="1"/>
<rect x="686" y="42" width="12" height="12" fill="#0f172a" stroke="#0f172a" stroke-width="1"/>
<rect x="686" y="56" width="12" height="12" fill="#0f172a" stroke="#0f172a" stroke-width="1"/>
<rect x="686" y="70" width="12" height="12" fill="#0f172a" stroke="#0f172a" stroke-width="1"/>
<rect x="686" y="84" width="12" height="12" fill="#0f172a" stroke="#0f172a" stroke-width="1"/>
<rect x="700" y="0" width="12" height="12" fill="#0f172a" stroke="#0f172a" stroke-width="1"/>
<rect x="700" y="14" width="12" height="12" fill="#0f172a" stroke="#0f172a" stroke-width="1"/>
<rect x="700" y="28" width="12" height="12" fill="#0f172a" stroke="#0f172a" stroke-width="1"/>
<rect x="700" y="42" width="12" height="12" fill="#0f172a" stroke="#0f172a" stroke-width="1"/>
<rect x="700" y="56" width="12" height="12" fill="#0f172a" stroke="#0f172a" stroke-width="1"/>
<rect x="700" y="70" width="12" height="12" fill="#0f172a" stroke="#0f172a" stroke-width="1"/>
<rect x="700" y="84" width="12" height="12" fill="#0f172a" stroke="#0f172a" stroke-width="1"/>
<rect x="714" y="0" width="12" height="12" fill="#0f172a" stroke="#0f172a" stroke-width="1"/>
<rect x="714" y="14" width="12" height="12" fill="#0f172a" stroke="#0f172a" stroke-width="1"/>
<rect x="714" y="28" width="12" height="12" fill="#0f172a" stroke="#0f172a" stroke-width="1"/>
<rect x="714" y="42" width="12" height="12" fill="#0f172a" stroke="#0f172a" stroke-width="1"/>
<rect x="714" y="56" width="12" height="12" fill="#0f172a" stroke="#0f172a" stroke-width="1"/>
<rect x="714" y="70" width="12" height="12" fill="#0f172a" stroke="#0f172a" stroke-width="1"/>
<rect x="714" y="84" width="12" height="12" fill="#0f172a" stroke="#0f172a" stroke-width="1"/>
<rect x="728" y="0" width="12" height="12" fill="#0f172a" stroke="#0f172a" stroke-width="1"/>
<rect x="728" y="14" width="12" height="12" fill="#0f172a" stroke="#0f172a" stroke-width="1"/>
<rect x="728" y="28" width="12" height="12" fill="#0f172a" stroke="#0f172a" stroke-width="1"/>
<rect x="728" y="42" width="12" height="12" fill="#0f172a" stroke="#0f172a" stroke-width="1"/>
<rect x="728" y="56" width="12" height="12" fill="#0f172a" stroke="#0f172a" stroke-width="1"/>
<rect x="728" y="70" width="12" height="12" fill="#0f172a" stroke="#0f172a" stroke-width="1"/>
<rect x="728" y="84" width="12" height="12" fill="#0f172a" stroke="#0f172a" stroke-width="1"/>
</g></svg>
