<?xml version="1.0" encoding="UTF-8"?>
<svg xmlns="http://www.w3.org/2000/svg" width="810" height="150" viewBox="0 0 810 150">
<rect width="810" height="150" fill="#0f172a"/>
<text x="16" y="28" font-size="12" fill="#e5e7eb" font-family="Arial, sans-serif">2025</text>
<text x="52" y="28" font-size="10" fill="#cbd5e1" font-family="Arial, sans-serif">Jan</text>
<text x="108" y="28" font-size="10" fill="#cbd5e1" font-family="Arial, sans-serif">Feb</text>
<text x="164" y="28" font-size="10" fill="#cbd5e1" font-family="Arial, sans-serif">Mar</text>
<text x="234" y="28" font-size="10" fill="#cbd5e1" font-family="Arial, sans-serif">Apr</text>
<text x="290" y="28" font-size="10" fill="#cbd5e1" font-family="Arial, sans-serif">May</text>
<text x="346" y="28" font-size="10" fill="#cbd5e1" font-family="Arial, sans-serif">Jun</text>
<text x="416" y="28" font-size="10" fill="#cbd5e1" font-family="Arial, sans-serif">Jul</text>
<text x="472" y="28" font-size="10" fill="#cbd5e1" font-family="Arial, sans-serif">Aug</text>
<text x="542" y="28" font-size="10" fill="#cbd5e1" font-family="Arial, sans-serif">Sep</text>
<text x="598" y="28" font-size="10" fill="#cbd5e1" font-family="Arial, sans-serif">Oct</text>
<text x="654" y="28" font-size="10" fill="#cbd5e1" font-family="Arial, sans-serif">Nov</text>
<text x="724" y="28" font-size="10" fill="#cbd5e1" font-family="Arial, sans-serif">Dec</text>
<text x="46" y="46" font-size="9" fill="#cbd5e1" font-family="Arial, sans-serif" text-anchor="end">Mon</text>
<text x="46" y="60" font-size="9" fill="#cbd5e1" font-family="Arial, sans-serif" text-anchor="end">Tue</text>
<text x="46" y="74" font-size="9" fill="#cbd5e1" font-family="Arial, sans-serif" text-anchor="end">Wed</text>
<text x="46" y="88" font-size="9" fill="#cbd5e1" font-family="Arial, sans-serif" text-anchor="end">Thu</text>
<text x="46" y="102" font-size="9" fill="#cbd5e1" font-family="Arial, sans-serif" text-anchor="end">Fri</text>
<text x="46" y="116" font-size="9" fill="#cbd5e1" font-family="Arial, sans-serif" text-anchor="end">Sat</text>
<text x="46" y="130" font-size="9" fill="#cbd5e1" font-family="Arial, sans-serif" text-anchor="end">Sun</text>
<g transform="translate(52,36)">
<rect x="0" y="0" width="12" height="12" fill="#0f172a" stroke="#0f172a" stroke-width="1"/>
<rect x="0" y="14" width="12" height="12" fill="#0f172a" stroke="#0f172a" stroke-width="1"/>
<rect x="0" y="28" width="12" height="12" fill="#0f172a" stroke="#0f172a" stroke-width="1"/>
<rect x="0" y="42" width="12" height="12" fill="#0f172a" stroke="#0f172a" stroke-width="1"/>
<rect x="0" y="56" width="12" height="12" fill="#0f172a" stroke="#0f172a" stroke-width="1"/>
<rect x="0" y="70" width="12" height="12" fill="#0f172a" stroke="#0f172a" stroke-width="1"/>
<rect x="0" y="84" width="12" height="12" fill="#0f172a" stroke="#0f172a" stroke-width="1"/>
<rect x="14" y="0" width="12" height="12" fill="#0f172a" stroke="#0f172a" stroke-width="1"/>
<rect x="14" y="14" width="12" height="12" fill="#0f172a" stroke="#0f172a" stroke-width="1"/>
<rect x="14" y="28" width="12" height="12" fill="#0f172a" stroke="#0f172a" stroke-width="1"/>
<rect x="14" y="42" width="12" height="12" fill="#0f172a" stroke="#0f172a" stroke-width="1"/>
<rect x="14" y="56" width="12" height="12" fill="#0f172a" stroke="#0f172a" stroke-width="1"/>
<rect x="14" y="70" width="12" height="12" fill="#0f172a" stroke="#0f172a" stroke-width="1"/>
<rect x="14" y="84" width="12" height="12" fill="#0f172a" stroke="#0f172a" stroke-width="1"/>
<rect x="28" y="0" width="12" height="12" fill="#0f172a" stroke="#0f172a" stroke-width="1"/>
<rect x="28" y="14" width="12" height="12" fill="#0f172a" stroke="#0f172a" stroke-width="1"/>
<rect x="28" y="28" width="12" height="12" fill="#0f172a" stroke="#0f172a" stroke-width="1"/>
<rect x="28" y="42" width="12" height="12" fill="#0f172a" stroke="#0f172a" stroke-width="1"/>
<rect x="28" y="56" width="12" height="12" fill="#0f172a" stroke="#0f172a" stroke-width="1"/>
<rect x="28" y="70" width="12" height="12" fill="#0f172a" stroke="#0f172a" stroke-width="1"/>
<rect x="28" y="84" width="12" height="12" fill="#0f172a" stroke="#0f172a" stroke-width="1"/>
<rect x="42" y="0" width="12" height="12" fill="#0f172a" stroke="#0f172a" stroke-width="1"/>
<rect x="42" y="14" width="12" height="12" fill="#0f172a" stroke="#0f172a" stroke-width="1"/>
<rect x="42" y="28" width="12" height="12" fill="#0f172a" stroke="#0f172a" stroke-width="1"/>
<rect x="42" y="42" width="12" height="12" fill="#0f172a" stroke="#0f172a" stroke-width="1"/>
<rect x="42" y="56" width="12" height="12" fill="#0f172a" stroke="#0f172a" stroke-width="1"/>
<rect x="42" y="70" width="12" height="12" fill="#0f172a" stroke="#0f172a" stroke-width="1"/>
<rect x="42" y="84" width="12" height="12" fill="#0f172a" stroke="#0f172a" stroke-width="1"/>
<rect x="56" y="0" width="12" height="12" fill="#0f172a" stroke="#0f172a" stroke-width="1"/>
<rect x="56" y="14" width="12" height="12" fill="#0f172a" stroke="#0f172a" stroke-width="1"/>
<rect x="56" y="28" width="12" height="12" fill="#0f172a" stroke="#0f172a" stroke-width="1"/>
<rect x="56" y="42" width="12" height="12" fill="#0f172a" stroke="#0f172a" stroke-width="1"/>
<rect x="56" y="56" width="12" height="12" fill="#0f172a" stroke="#0f172a" stroke-width="1"/>
<rect x="56" y="70" width="12" height="12" fill="#0f172a" stroke="#0f172a" stroke-width="1"/>
<rect x="56" y="84" width="12" height="12" fill="#0f172a" stroke="#0f172a" stroke-width="1"/>
<rect x="70" y="0" width="12" height="12" fill="#0f172a" stroke="#0f172a" stroke-width="1"/>
<rect x="70" y="14" width="12" height="12" fill="#0f172a" stroke="#0f172a" stroke-width="1"/>
<rect x="70" y="28" width="12" height="12" fill="#0f172a" stroke="#0f172a" stroke-width="1"/>
<rect x="70" y="42" width="12" height="12" fill="#0f172a" stroke="#0f172a" stroke-width="1"/>
<rect x="70" y="56" width="12" height="12" fill="#0f172a" stroke="#0f172a" stroke-width="1"/>
<rect x="70" y="70" width="12" height="12" fill="#0f172a" stroke="#0f172a" stroke-width="1"/>
<rect x="70" y="84" width="12" height="12" fill="#0f172a" stroke="#0f172a" stroke-width="1"/>
<rect x="84" y="0" width="12" height="12" fill="#0f172a" stroke="#0f172a" stroke-width="1"/>
<rect x="84" y="14" width="12" height="12" fill="#0f172a" stroke="#0f172a" stroke-width="1"/>
<rect x="84" y="28" width="12" height="12" fill="#0f172a" stroke="#0f172a" stroke-width="1"/>
<rect x="84" y="42" width="12" height="12" fill="#0f172a" stroke="#0f172a" stroke-width="1"/>
<rect x="84" y="56" width="12" height="12" fill="#0f172a" stroke="#0f172a" stroke-width="1"/>
<rect x="84" y="70" width="12" height="12" fill="#0f172a" stroke="#0f172a" stroke-width="1"/>
<rect x="84" y="84" width="12" height="12" fill="#0f172a" stroke="#0f172a" stroke-width="1"/>
<rect x="98" y="0" width="12" height="12" fill="#0f172a" stroke="#0f172a" stroke-width="1"/>
<rect x="98" y="14" width="12" height="12" fill="#0f172a" stroke="#0f172a" stroke-width="1"/>
<rect x="98" y="28" width="12" height="12" fill="#0f172a" stroke="#0f172a" stroke-width="1"/>
<rect x="98" y="42" width="12" height="12" fill="#0f172a" stroke="#0f172a" stroke-width="1"/>
<rect x="98" y="56" width="12" height="12" fill="#0f172a" stroke="#0f172a" stroke-width="1"/>
<rect x="98" y="70" width="12" height="12" fill="#0f172a" stroke="#0f172a" stroke-width="1"/>
<rect x="98" y="84" width="12" height="12" fill="#0f172a" stroke="#0f172a" stroke-width="1"/>
<rect x="112" y="0" width="12" height="12" fill="#0f172a" stroke="#0f172a" stroke-width="1"/>
<rect x="112" y="14" width="12" height="12" fill="#0f172a" stroke="#0f172a" stroke-width="1"/>
<rect x="112" y="28" width="12" height="12" fill="#0f172a" stroke="#0f172a" stroke-width="1"/>
<rect x="112" y="42" width="12" height="12" fill="#0f172a" stroke="#0f172a" stroke-width="1"/>
<rect x="112" y="56" width="12" height="12" fill="#0f172a" stroke="#0f172a" stroke-width="1"/>
<rect x="112" y="70" width="12" height="12" fill="#0f172a" stroke="#0f172a" stroke-width="1"/>
<rect x="112" y="84" width="12" height="12" fill="#0f172a" stroke="#0f172a" stroke-width="1"/>
<rect x="126" y="0" width="12" height="12" fill="#0f172a" stroke="#0f172a" stroke-width="1"/>
<rect x="126" y="14" width="12" height="12" fill="#0f172a" stroke="#0f172a" stroke-width="1"/>
<rect x="126" y="28" width="12" height="12" fill="#0f172a" stroke="#0f172a" stroke-width="1"/>
<rect x="126" y="42" width="12" height="12" fill="#0f172a" stroke="#0f172a" stroke-width="1"/>
<rect x="126" y="56" width="12" height="12" fill="#0f172a" stroke="#0f172a" stroke-width="1"/>
<rect x="126" y="70" width="12" height="12" fill="#0f172a" stroke="#0f172a" stroke-width="1"/>
<rect x="126" y="84" width="12" height="12" fill="#0f172a" stroke="#0f172a" stroke-width="1"/>
<rect x="140" y="0" width="12" height="12" fill="#0f172a" stroke="#0f172a" stroke-width="1"/>
<rect x="140" y="14" width="12" height="12" fill="#0f172a" stroke="#0f172a" stroke-width="1"/>
<rect x="140" y="28" width="12" height="12" fill="#0f172a" stroke="#0f172a" stroke-width="1"/>
<rect x="140" y="42" width="12" height="12" fill="#0f172a" stroke="#0f172a" stroke-width="1"/>
<rect x="140" y="56" width="12" height="12" fill="#0f172a" stroke="#0f172a" stroke-width="1"/>
<rect x="140" y="70" width="12" height="12" fill="#0f172a" stroke="#0f172a" stroke-width="1"/>
<rect x="140" y="84" width="12" height="12" fill="#0f172a" stroke="#0f172a" stroke-width="1"/>
<rect x="154" y="0" width="12" height="12" fill="#0f172a" stroke="#0f172a" stroke-width="1"/>
<rect x="154" y="14" width="12" height="12" fill="#0f172a" stroke="#0f172a" stroke-width="1"/>
<rect x="154" y="28" width="12" height="12" fill="#0f172a" stroke="#0f172a" stroke-width="1"/>
<rect x="154" y="42" width="12" height="12" fill="#0f172a" stroke="#0f172a" stroke-width="1"/>
<rect x="154" y="56" width="12" height="12" fill="#0f172a" stroke="#0f172a" stroke-width="1"/>
<rect x="154" y="70" width="12" height="12" fill="#0f172a" stroke="#0f172a" stroke-width="1"/>
<rect x="154" y="84" width="12" height="12" fill="#0f172a" stroke="#0f172a" stroke-width="1"/>
<rect x="168" y="0" width="12" height="12" fill="#0f172a" stroke="#0f172a" stroke-width="1"/>
<rect x="168" y="14" width="12" height="12" fill="#0f172a" stroke="#0f172a" stroke-width="1"/>
<rect x="168" y="28" width="12" height="12" fill="#0f172a" stroke="#0f172a" stroke-width="1"/>
<rect x="168" y="42" width="12" height="12" fill="#0f172a" stroke="#0f172a" stroke-width="1"/>
<rect x="168" y="56" width="12" height="12" fill="#0f172a" stroke="#0f172a" stroke-width="1"/>
<rect x="168" y="70" width="12" height="12" fill="#0f172a" stroke="#0f172a" stroke-width="1"/>
<rect x="168" y="84" width="12" height="12" fill="#0f172a" stroke="#0f172a" stroke-width="1"/>
<rect x="182" y="0" width="12" height="12" fill="#0f172a" stroke="#0f172a" stroke-width="1"/>
<rect x="182" y="14" width="12" height="12" fill="#0f172a" stroke="#0f172a" stroke-width="1"/>
<rect x="182" y="28" width="12" height="12" fill="#0f172a" stroke="#0f172a" stroke-width="1"/>
<rect x="182" y="42" width="12" height="12" fill="#0f172a" stroke="#0f172a" stroke-width="1"/>
<rect x="182" y="56" width="12" height="12" fill="#0f172a" stroke="#0f172a" stroke-width="1"/>
<rect x="182" y="70" width="12" height="12" fill="#0f172a" stroke="#0f172a" stroke-width="1"/>
<rect x="182" y="84" width="12" height="12" fill="#0f172a" stroke="#0f172a" stroke-width="1"/>
<rect x="196" y="0" width="12" height="12" fill="#0f172a" stroke="#0f172a" stroke-width="1"/>
<rect x="196" y="14" width="12" height="12" fill="#0f172a" stroke="#0f172a" stroke-width="1"/>
<rect x="196" y="28" width="12" height="12" fill="#0f172a" stroke="#0f172a" stroke-width="1"/>
<rect x="196" y="42" width="12" height="12" fill="#0f172a" stroke="#0f172a" stroke-width="1"/>
<rect x="196" y="56" width="12" height="12" fill="#0f172a" stroke="#0f172a" stroke-width="1"/>
<rect x="196" y="70" width="12" height="12" fill="#0f172a" stroke="#0f172a" stroke-width="1"/>
<rect x="196" y="84" width="12" height="12" fill="#0f172a" stroke="#0f172a" stroke-width="1"/>
<rect x="210" y="0" width="12" height="12" fill="#0f172a" stroke="#0f172a" stroke-width="1"/>
<rect x="210" y="14" width="12" height="12" fill="#0f172a" stroke="#0f172a" stroke-width="1"/>
<rect x="210" y="28" width="12" height="12" fill="#0f172a" stroke="#0f172a" stroke-width="1"/>
<rect x="210" y="42" width="12" height="12" fill="#0f172a" stroke="#0f172a" stroke-width="1"/>
<rect x="210" y="56" width="12" height="12" fill="#0f172a" stroke="#0f172a" stroke-width="1"/>
<rect x="210" y="70" width="12" height="12" fill="#0f172a" stroke="#0f172a" stroke-width="1"/>
<rect x="210" y="84" width="12" height="12" fill="#0f172a" stroke="#0f172a" stroke-width="1"/>
<rect x="224" y="0" width="12" height="12" fill="#0f172a" stroke="#0f172a" stroke-width="1"/>
<rect x="224" y="14" width="12" height="12" fill="#0f172a" stroke="#0f172a" stroke-width="1"/>
<rect x="224" y="28" width="12" height="12" fill="#0f172a" stroke="#0f172a" stroke-width="1"/>
<rect x="224" y="42" width="12" height="12" fill="#0f172a" stroke="#0f172a" stroke-width="1"/>
<rect x="224" y="56" width="12" height="12" fill="#0f172a" stroke="#0f172a" stroke-width="1"/>
<rect x="224" y="70" width="12" height="12" fill="#0f172a" stroke="#0f172a" stroke-width="1"/>
<rect x="224" y="84" width="12" height="12" fill="#0f172a" stroke="#0f172a" stroke-width="1"/>
<rect x="238" y="0" width="12" height="12" fill="#0f172a" stroke="#0f172a" stroke-width="1"/>
<rect x="238" y="14" width="12" height="12" fill="#0f172a" stroke="#0f172a" stroke-width="1"/>
<rect x="238" y="28" width="12" height="12" fill="#0f172a" stroke="#0f172a" stroke-width="1"/>
<rect x="238" y="42" width="12" height="12" fill="#0f172a" stroke="#0f172a" stroke-width="1"/>
<rect x="238" y="56" width="12" height="12" fill="#0f172a" stroke="#0f172a" stroke-width="1"/>
<rect x="238" y="70" width="12" height="12" fill="#0f172a" stroke="#0f172a" stroke-width="1"/>
<rect x="238" y="84" width="12" height="12" fill="#0f172a" stroke="#0f172a" stroke-width="1"/>
<rect x="252" y="0" width="12" height="12" fill="#0f172a" stroke="#0f172a" stroke-width="1"/>
<rect x="252" y="14" width="12" height="12" fill="#0f172a" stroke="#0f172a" stroke-width="1"/>
<rect x="252" y="28" width="12" height="12" fill="#0f172a" stroke="#0f172a" stroke-width="1"/>
<rect x="252" y="42" width="12" height="12" fill="#0f172a" stroke="#0f172a" stroke-width="1"/>
<rect x="252" y="56" width="12" height="12" fill="#0f172a" stroke="#0f172a" stroke-width="1"/>
<rect x="252" y="70" width="12" height="12" fill="#0f172a" stroke="#0f172a" stroke-width="1"/>
<rect x="252" y="84" width="12" height="12" fill="#0f172a" stroke="#0f172a" stroke-width="1"/>
<rect x="266" y="0" width="12" height="12" fill="#0f172a" stroke="#0f172a" stroke-width="1"/>
<rect x="266" y="14" width="12" height="12" fill="#1f2937" stroke="#0f172a" stroke-width="1"><title>2025-05-13
1 workout
Distance: 1.74 km
Duration: 5m
Avg speed: 20894.4 km/h
Elevation: 0 m</title></rect>
<rect x="266" y="28" width="12" height="12" fill="#1f2937" stroke="#0f172a" stroke-width="1"><title>2025-05-14
1 workout
Distance: 5.56 km
Duration: 14m
Avg speed: 23621.2 km/h
Elevation: 0 m</title></rect>
<rect x="266" y="42" width="12" height="12" fill="#1f2937" stroke="#0f172a" stroke-width="1"><title>2025-05-15
1 workout
Distance: 11.67 km
Duration: 30m
Avg speed: 23343.0 km/h
Elevation: 0 m</title></rect>
<rect x="266" y="56" width="12" height="12" fill="#1f2937" stroke="#0f172a" stroke-width="1"><title>2025-05-16
1 workout
Distance: 12.05 km
Duration: 30m
Avg speed: 24105.2 km/h
Elevation: 0 m</title></rect>
<rect x="266" y="70" width="12" height="12" fill="#1f2937" stroke="#0f172a" stroke-width="1"><title>2025-05-17
1 workout
Distance: 12.58 km
Duration: 30m
Avg speed: 25152.0 km/h
Elevation: 0 m</title></rect>
<rect x="266" y="84" width="12" height="12" fill="#1f2937" stroke="#0f172a" stroke-width="1"><title>2025-05-18
1 workout
Distance: 13.09 km
Duration: 30m
Avg speed: 26174.2 km/h
Elevation: 0 m</title></rect>
<rect x="280" y="0" width="12" height="12" fill="#34d399" stroke="#0f172a" stroke-width="1"><title>2025-05-19
1 workout
Distance: 13.57 km
Duration: 30m
Avg speed: 26864.6 km/h
Elevation: 0 m</title></rect>
<rect x="280" y="14" width="12" height="12" fill="#334155" stroke="#0f172a" stroke-width="1"><title>2025-05-20
1 workout
Distance: 13.33 km
Duration: 30m
Avg speed: 26664.4 km/h
Elevation: 0 m</title></rect>
<rect x="280" y="28" width="12" height="12" fill="#334155" stroke="#0f172a" stroke-width="1"><title>2025-05-21
1 workout
Distance: 13.19 km
Duration: 30m
Avg speed: 26370.8 km/h
Elevation: 0 m</title></rect>
<rect x="280" y="42" width="12" height="12" fill="#1f2937" stroke="#0f172a" stroke-width="1"><title>2025-05-22
1 workout
Distance: 12.98 km
Duration: 30m
Avg speed: 25957.0 km/h
Elevation: 0 m</title></rect>
<rect x="280" y="56" width="12" height="12" fill="#1f2937" stroke="#0f172a" stroke-width="1"><title>2025-05-23
1 workout
Distance: 12.71 km
Duration: 30m
Avg speed: 25410.4 km/h
Elevation: 0 m</title></rect>
<rect x="280" y="70" width="12" height="12" fill="#1f2937" stroke="#0f172a" stroke-width="1"><title>2025-05-24
1 workout
Distance: 12.60 km
Duration: 30m
Avg speed: 25205.8 km/h
Elevation: 0 m</title></rect>
<rect x="280" y="84" width="12" height="12" fill="#1f2937" stroke="#0f172a" stroke-width="1"><title>2025-05-25
1 workout
Distance: 13.02 km
Duration: 30m
Avg speed: 26041.4 km/h
Elevation: 0 m</title></rect>
<rect x="294" y="0" width="12" height="12" fill="#1f2937" stroke="#0f172a" stroke-width="1"><title>2025-05-26
1 workout
Distance: 12.81 km
Duration: 30m
Avg speed: 25624.8 km/h
Elevation: 0 m</title></rect>
<rect x="294" y="14" width="12" height="12" fill="#0f172a" stroke="#0f172a" stroke-width="1"/>
<rect x="294" y="28" width="12" height="12" fill="#0f172a" stroke="#0f172a" stroke-width="1"/>
<rect x="294" y="42" width="12" height="12" fill="#0f172a" stroke="#0f172a" stroke-width="1"/>
<rect x="294" y="56" width="12" height="12" fill="#0f172a" stroke="#0f172a" stroke-width="1"/>
<rect x="294" y="70" width="12" height="12" fill="#34d399" stroke="#0f172a" stroke-width="1"><title>2025-05-31
1 workout
Distance: 13.63 km
Duration: 30m
Avg speed: 27268.0 km/h
Elevation: 0 m</title></rect>
<rect x="294" y="84" width="12" height="12" fill="#05ffa1" stroke="#0f172a" stroke-width="1"><title>2025-06-01
1 workout
Distance: 14.77 km
Duration: 30m
Avg speed: 29023.0 km/h
Elevation: 0 m</title></rect>
<rect x="308" y="0" width="12" height="12" fill="#0f172a" stroke="#0f172a" stroke-width="1"/>
<rect x="308" y="14" width="12" height="12" fill="#0f172a" stroke="#0f172a" stroke-width="1"/>
<rect x="308" y="28" width="12" height="12" fill="#0f172a" stroke="#0f172a" stroke-width="1"/>
<rect x="308" y="42" width="12" height="12" fill="#334155" stroke="#0f172a" stroke-width="1"><title>2025-06-05
1 workout
Distance: 13.26 km
Duration: 30m
Avg speed: 26524.0 km/h
Elevation: 0 m</title></rect>
<rect x="308" y="56" width="12" height="12" fill="#10b981" stroke="#0f172a" stroke-width="1"><title>2025-06-06
1 workout
Distance: 13.87 km
Duration: 30m
Avg speed: 27734.6 km/h
Elevation: 0 m</title></rect>
<rect x="308" y="70" width="12" height="12" fill="#10b981" stroke="#0f172a" stroke-width="1"><title>2025-06-07
1 workout
Distance: 13.92 km
Duration: 30m
Avg speed: 27845.0 km/h
Elevation: 0 m</title></rect>
<rect x="308" y="84" width="12" height="12" fill="#10b981" stroke="#0f172a" stroke-width="1"><title>2025-06-08
1 workout
Distance: 13.86 km
Duration: 30m
Avg speed: 27728.6 km/h
Elevation: 0 m</title></rect>
<rect x="322" y="0" width="12" height="12" fill="#10b981" stroke="#0f172a" stroke-width="1"><title>2025-06-09
1 workout
Distance: 13.90 km
Duration: 30m
Avg speed: 27802.0 km/h
Elevation: 0 m</title></rect>
<rect x="322" y="14" width="12" height="12" fill="#334155" stroke="#0f172a" stroke-width="1"><title>2025-06-10
1 workout
Distance: 13.24 km
Duration: 30m
Avg speed: 26471.4 km/h
Elevation: 0 m</title></rect>
<rect x="322" y="28" width="12" height="12" fill="#05ffa1" stroke="#0f172a" stroke-width="1"><title>2025-06-11
1 workout
Distance: 14.21 km
Duration: 30m
Avg speed: 28412.2 km/h
Elevation: 0 m</title></rect>
<rect x="322" y="42" width="12" height="12" fill="#10b981" stroke="#0f172a" stroke-width="1"><title>2025-06-12
1 workout
Distance: 13.89 km
Duration: 30m
Avg speed: 27772.4 km/h
Elevation: 0 m</title></rect>
<rect x="322" y="56" width="12" height="12" fill="#10b981" stroke="#0f172a" stroke-width="1"><title>2025-06-13
1 workout
Distance: 13.80 km
Duration: 30m
Avg speed: 27598.0 km/h
Elevation: 0 m</title></rect>
<rect x="322" y="70" width="12" height="12" fill="#05ffa1" stroke="#0f172a" stroke-width="1"><title>2025-06-14
1 workout
Distance: 14.26 km
Duration: 30m
Avg speed: 28514.6 km/h
Elevation: 0 m</title></rect>
<rect x="322" y="84" width="12" height="12" fill="#34d399" stroke="#0f172a" stroke-width="1"><title>2025-06-15
1 workout
Distance: 13.49 km
Duration: 30m
Avg speed: 26971.8 km/h
Elevation: 0 m</title></rect>
<rect x="336" y="0" width="12" height="12" fill="#05ffa1" stroke="#0f172a" stroke-width="1"><title>2025-06-16
1 workout
Distance: 14.40 km
Duration: 30m
Avg speed: 28808.4 km/h
Elevation: 0 m</title></rect>
<rect x="336" y="14" width="12" height="12" fill="#1f2937" stroke="#0f172a" stroke-width="1"><title>2025-06-17
1 workout
Distance: 13.14 km
Duration: 30m
Avg speed: 26270.8 km/h
Elevation: 0 m</title></rect>
<rect x="336" y="28" width="12" height="12" fill="#34d399" stroke="#0f172a" stroke-width="1"><title>2025-06-18
1 workout
Distance: 13.50 km
Duration: 30m
Avg speed: 26998.4 km/h
Elevation: 0 m</title></rect>
<rect x="336" y="42" width="12" height="12" fill="#05ffa1" stroke="#0f172a" stroke-width="1"><title>2025-06-19
1 workout
Distance: 14.21 km
Duration: 30m
Avg speed: 28411.4 km/h
Elevation: 0 m</title></rect>
<rect x="336" y="56" width="12" height="12" fill="#10b981" stroke="#0f172a" stroke-width="1"><title>2025-06-20
1 workout
Distance: 23.01 km
Duration: 50m
Avg speed: 27614.5 km/h
Elevation: 0 m</title></rect>
<rect x="336" y="70" width="12" height="12" fill="#1f2937" stroke="#0f172a" stroke-width="1"><title>2025-06-21
1 workout
Distance: 19.66 km
Duration: 45m
Avg speed: 26217.6 km/h
Elevation: 0 m</title></rect>
<rect x="336" y="84" width="12" height="12" fill="#34d399" stroke="#0f172a" stroke-width="1"><title>2025-06-22
1 workout
Distance: 20.16 km
Duration: 45m
Avg speed: 26886.0 km/h
Elevation: 0 m</title></rect>
<rect x="350" y="0" width="12" height="12" fill="#34d399" stroke="#0f172a" stroke-width="1"><title>2025-06-23
1 workout
Distance: 20.13 km
Duration: 45m
Avg speed: 26839.6 km/h
Elevation: 0 m</title></rect>
<rect x="350" y="14" width="12" height="12" fill="#334155" stroke="#0f172a" stroke-width="1"><title>2025-06-24
1 workout
Distance: 19.87 km
Duration: 45m
Avg speed: 26493.9 km/h
Elevation: 0 m</title></rect>
<rect x="350" y="28" width="12" height="12" fill="#34d399" stroke="#0f172a" stroke-width="1"><title>2025-06-25
1 workout
Distance: 20.32 km
Duration: 45m
Avg speed: 27098.3 km/h
Elevation: 0 m</title></rect>
<rect x="350" y="42" width="12" height="12" fill="#34d399" stroke="#0f172a" stroke-width="1"><title>2025-06-26
1 workout
Distance: 20.35 km
Duration: 45m
Avg speed: 27114.6 km/h
Elevation: 0 m</title></rect>
<rect x="350" y="56" width="12" height="12" fill="#34d399" stroke="#0f172a" stroke-width="1"><title>2025-06-27
1 workout
Distance: 20.16 km
Duration: 45m
Avg speed: 26874.5 km/h
Elevation: 0 m</title></rect>
<rect x="350" y="70" width="12" height="12" fill="#34d399" stroke="#0f172a" stroke-width="1"><title>2025-06-28
1 workout
Distance: 13.48 km
Duration: 29m
Avg speed: 27154.5 km/h
Elevation: 0 m</title></rect>
<rect x="350" y="84" width="12" height="12" fill="#05ffa1" stroke="#0f172a" stroke-width="1"><title>2025-06-29
1 workout
Distance: 19.00 km
Duration: 40m
Avg speed: 28505.9 km/h
Elevation: 0 m</title></rect>
<rect x="364" y="0" width="12" height="12" fill="#10b981" stroke="#0f172a" stroke-width="1"><title>2025-06-30
1 workout
Distance: 20.79 km
Duration: 45m
Avg speed: 27720.4 km/h
Elevation: 0 m</title></rect>
<rect x="364" y="14" width="12" height="12" fill="#10b981" stroke="#0f172a" stroke-width="1"><title>2025-07-01
1 workout
Distance: 13.94 km
Duration: 30m
Avg speed: 27876.4 km/h
Elevation: 0 m</title></rect>
<rect x="364" y="28" width="12" height="12" fill="#34d399" stroke="#0f172a" stroke-width="1"><title>2025-07-02
1 workout
Distance: 13.53 km
Duration: 30m
Avg speed: 27054.2 km/h
Elevation: 0 m</title></rect>
<rect x="364" y="42" width="12" height="12" fill="#05ffa1" stroke="#0f172a" stroke-width="1"><title>2025-07-03
1 workout
Distance: 14.01 km
Duration: 30m
Avg speed: 27983.1 km/h
Elevation: 0 m</title></rect>
<rect x="364" y="56" width="12" height="12" fill="#34d399" stroke="#0f172a" stroke-width="1"><title>2025-07-04
1 workout
Distance: 20.15 km
Duration: 45m
Avg speed: 26862.8 km/h
Elevation: 0 m</title></rect>
<rect x="364" y="70" width="12" height="12" fill="#05ffa1" stroke="#0f172a" stroke-width="1"><title>2025-07-05
1 workout
Distance: 20.96 km
Duration: 45m
Avg speed: 27940.7 km/h
Elevation: 0 m</title></rect>
<rect x="364" y="84" width="12" height="12" fill="#10b981" stroke="#0f172a" stroke-width="1"><title>2025-07-06
1 workout
Distance: 20.66 km
Duration: 45m
Avg speed: 27550.8 km/h
Elevation: 0 m</title></rect>
<rect x="378" y="0" width="12" height="12" fill="#34d399" stroke="#0f172a" stroke-width="1"><title>2025-07-07
1 workout
Distance: 20.60 km
Duration: 45m
Avg speed: 27461.1 km/h
Elevation: 0 m</title></rect>
<rect x="378" y="14" width="12" height="12" fill="#34d399" stroke="#0f172a" stroke-width="1"><title>2025-07-08
1 workout
Distance: 20.53 km
Duration: 45m
Avg speed: 27369.7 km/h
Elevation: 0 m</title></rect>
<rect x="378" y="28" width="12" height="12" fill="#10b981" stroke="#0f172a" stroke-width="1"><title>2025-07-09
1 workout
Distance: 20.60 km
Duration: 45m
Avg speed: 27464.7 km/h
Elevation: 0 m</title></rect>
<rect x="378" y="42" width="12" height="12" fill="#1f2937" stroke="#0f172a" stroke-width="1"><title>2025-07-10
1 workout
Distance: 9.01 km
Duration: 21m
Avg speed: 25577.0 km/h
Elevation: 0 m</title></rect>
<rect x="378" y="56" width="12" height="12" fill="#05ffa1" stroke="#0f172a" stroke-width="1"><title>2025-07-11
1 workout
Distance: 14.52 km
Duration: 30m
Avg speed: 29045.4 km/h
Elevation: 0 m</title></rect>
<rect x="378" y="70" width="12" height="12" fill="#05ffa1" stroke="#0f172a" stroke-width="1"><title>2025-07-12
1 workout
Distance: 14.66 km
Duration: 30m
Avg speed: 29313.0 km/h
Elevation: 0 m</title></rect>
<rect x="378" y="84" width="12" height="12" fill="#0f172a" stroke="#0f172a" stroke-width="1"/>
<rect x="392" y="0" width="12" height="12" fill="#0f172a" stroke="#0f172a" stroke-width="1"/>
<rect x="392" y="14" width="12" height="12" fill="#10b981" stroke="#0f172a" stroke-width="1"><title>2025-07-15
1 workout
Distance: 13.83 km
Duration: 30m
Avg speed: 27655.0 km/h
Elevation: 0 m</title></rect>
<rect x="392" y="28" width="12" height="12" fill="#05ffa1" stroke="#0f172a" stroke-width="1"><title>2025-07-16
1 workout
Distance: 14.67 km
Duration: 30m
Avg speed: 29348.6 km/h
Elevation: 0 m</title></rect>
<rect x="392" y="42" width="12" height="12" fill="#05ffa1" stroke="#0f172a" stroke-width="1"><title>2025-07-17
1 workout
Distance: 21.71 km
Duration: 45m
Avg speed: 28950.3 km/h
Elevation: 0 m</title></rect>
<rect x="392" y="56" width="12" height="12" fill="#05ffa1" stroke="#0f172a" stroke-width="1"><title>2025-07-18
1 workout
Distance: 21.60 km
Duration: 45m
Avg speed: 28801.9 km/h
Elevation: 0 m</title></rect>
<rect x="392" y="70" width="12" height="12" fill="#05ffa1" stroke="#0f172a" stroke-width="1"><title>2025-07-19
1 workout
Distance: 21.22 km
Duration: 45m
Avg speed: 28291.9 km/h
Elevation: 0 m</title></rect>
<rect x="392" y="84" width="12" height="12" fill="#1f2937" stroke="#0f172a" stroke-width="1"><title>2025-07-20
1 workout
Distance: 21.43 km
Duration: 50m
Avg speed: 25720.8 km/h
Elevation: 0 m</title></rect>
<rect x="406" y="0" width="12" height="12" fill="#0f172a" stroke="#0f172a" stroke-width="1"/>
<rect x="406" y="14" width="12" height="12" fill="#05ffa1" stroke="#0f172a" stroke-width="1"><title>2025-07-22
1 workout
Distance: 21.61 km
Duration: 45m
Avg speed: 28813.2 km/h
Elevation: 0 m</title></rect>
<rect x="406" y="28" width="12" height="12" fill="#334155" stroke="#0f172a" stroke-width="1"><title>2025-07-23
1 workout
Distance: 19.93 km
Duration: 45m
Avg speed: 26577.5 km/h
Elevation: 0 m</title></rect>
<rect x="406" y="42" width="12" height="12" fill="#10b981" stroke="#0f172a" stroke-width="1"><title>2025-07-24
1 workout
Distance: 13.93 km
Duration: 30m
Avg speed: 27853.2 km/h
Elevation: 0 m</title></rect>
<rect x="406" y="56" width="12" height="12" fill="#0f172a" stroke="#0f172a" stroke-width="1"/>
<rect x="406" y="70" width="12" height="12" fill="#10b981" stroke="#0f172a" stroke-width="1"><title>2025-07-26
1 workout
Distance: 20.60 km
Duration: 45m
Avg speed: 27465.9 km/h
Elevation: 0 m</title></rect>
<rect x="406" y="84" width="12" height="12" fill="#10b981" stroke="#0f172a" stroke-width="1"><title>2025-07-27
1 workout
Distance: 20.70 km
Duration: 45m
Avg speed: 27603.7 km/h
Elevation: 0 m</title></rect>
<rect x="420" y="0" width="12" height="12" fill="#334155" stroke="#0f172a" stroke-width="1"><title>2025-07-28
1 workout
Distance: 19.75 km
Duration: 45m
Avg speed: 26335.3 km/h
Elevation: 0 m</title></rect>
<rect x="420" y="14" width="12" height="12" fill="#05ffa1" stroke="#0f172a" stroke-width="1"><title>2025-07-29
1 workout
Distance: 21.52 km
Duration: 45m
Avg speed: 28697.3 km/h
Elevation: 0 m</title></rect>
<rect x="420" y="28" width="12" height="12" fill="#34d399" stroke="#0f172a" stroke-width="1"><title>2025-07-30
1 workout
Distance: 20.19 km
Duration: 45m
Avg speed: 26913.5 km/h
Elevation: 0 m</title></rect>
<rect x="420" y="42" width="12" height="12" fill="#334155" stroke="#0f172a" stroke-width="1"><title>2025-07-31
1 workout
Distance: 19.92 km
Duration: 45m
Avg speed: 26562.3 km/h
Elevation: 0 m</title></rect>
<rect x="420" y="56" width="12" height="12" fill="#10b981" stroke="#0f172a" stroke-width="1"><title>2025-08-01
1 workout
Distance: 20.70 km
Duration: 45m
Avg speed: 27603.2 km/h
Elevation: 0 m</title></rect>
<rect x="420" y="70" width="12" height="12" fill="#334155" stroke="#0f172a" stroke-width="1"><title>2025-08-02
1 workout
Distance: 19.86 km
Duration: 45m
Avg speed: 26478.3 km/h
Elevation: 0 m</title></rect>
<rect x="420" y="84" width="12" height="12" fill="#0f172a" stroke="#0f172a" stroke-width="1"/>
<rect x="434" y="0" width="12" height="12" fill="#0f172a" stroke="#0f172a" stroke-width="1"/>
<rect x="434" y="14" width="12" height="12" fill="#10b981" stroke="#0f172a" stroke-width="1"><title>2025-08-05
1 workout
Distance: 20.74 km
Duration: 45m
Avg speed: 27655.2 km/h
Elevation: 0 m</title></rect>
<rect x="434" y="28" width="12" height="12" fill="#334155" stroke="#0f172a" stroke-width="1"><title>2025-08-06
1 workout
Distance: 19.87 km
Duration: 45m
Avg speed: 26499.5 km/h
Elevation: 0 m</title></rect>
<rect x="434" y="42" width="12" height="12" fill="#1f2937" stroke="#0f172a" stroke-width="1"><title>2025-08-07
1 workout
Distance: 18.95 km
Duration: 45m
Avg speed: 25264.8 km/h
Elevation: 0 m</title></rect>
<rect x="434" y="56" width="12" height="12" fill="#334155" stroke="#0f172a" stroke-width="1"><title>2025-08-08
1 workout
Distance: 20.02 km
Duration: 45m
Avg speed: 26689.3 km/h
Elevation: 0 m</title></rect>
<rect x="434" y="70" width="12" height="12" fill="#1f2937" stroke="#0f172a" stroke-width="1"><title>2025-08-09
1 workout
Distance: 19.56 km
Duration: 45m
Avg speed: 26079.2 km/h
Elevation: 0 m</title></rect>
<rect x="434" y="84" width="12" height="12" fill="#0f172a" stroke="#0f172a" stroke-width="1"/>
<rect x="448" y="0" width="12" height="12" fill="#334155" stroke="#0f172a" stroke-width="1"><title>2025-08-11
1 workout
Distance: 19.80 km
Duration: 45m
Avg speed: 26404.4 km/h
Elevation: 0 m</title></rect>
<rect x="448" y="14" width="12" height="12" fill="#34d399" stroke="#0f172a" stroke-width="1"><title>2025-08-12
1 workout
Distance: 20.31 km
Duration: 45m
Avg speed: 27082.5 km/h
Elevation: 0 m</title></rect>
<rect x="448" y="28" width="12" height="12" fill="#05ffa1" stroke="#0f172a" stroke-width="1"><title>2025-08-13
1 workout
Distance: 21.43 km
Duration: 45m
Avg speed: 28568.5 km/h
Elevation: 0 m</title></rect>
<rect x="448" y="42" width="12" height="12" fill="#05ffa1" stroke="#0f172a" stroke-width="1"><title>2025-08-14
1 workout
Distance: 21.58 km
Duration: 45m
Avg speed: 28767.7 km/h
Elevation: 0 m</title></rect>
<rect x="448" y="56" width="12" height="12" fill="#10b981" stroke="#0f172a" stroke-width="1"><title>2025-08-15
1 workout
Distance: 13.78 km
Duration: 30m
Avg speed: 27563.2 km/h
Elevation: 0 m</title></rect>
<rect x="448" y="70" width="12" height="12" fill="#0f172a" stroke="#0f172a" stroke-width="1"/>
<rect x="448" y="84" width="12" height="12" fill="#0f172a" stroke="#0f172a" stroke-width="1"/>
<rect x="462" y="0" width="12" height="12" fill="#0f172a" stroke="#0f172a" stroke-width="1"/>
<rect x="462" y="14" width="12" height="12" fill="#0f172a" stroke="#0f172a" stroke-width="1"/>
<rect x="462" y="28" width="12" height="12" fill="#0f172a" stroke="#0f172a" stroke-width="1"/>
<rect x="462" y="42" width="12" height="12" fill="#334155" stroke="#0f172a" stroke-width="1"><title>2025-08-21
1 workout
Distance: 20.04 km
Duration: 45m
Avg speed: 26714.7 km/h
Elevation: 0 m</title></rect>
<rect x="462" y="56" width="12" height="12" fill="#1f2937" stroke="#0f172a" stroke-width="1"><title>2025-08-22
1 workout
Distance: 19.69 km
Duration: 45m
Avg speed: 26248.8 km/h
Elevation: 0 m</title></rect>
<rect x="462" y="70" width="12" height="12" fill="#334155" stroke="#0f172a" stroke-width="1"><title>2025-08-23
1 workout
Distance: 19.95 km
Duration: 45m
Avg speed: 26604.9 km/h
Elevation: 0 m</title></rect>
<rect x="462" y="84" width="12" height="12" fill="#334155" stroke="#0f172a" stroke-width="1"><title>2025-08-24
1 workout
Distance: 19.98 km
Duration: 45m
Avg speed: 26638.3 km/h
Elevation: 0 m</title></rect>
<rect x="476" y="0" width="12" height="12" fill="#10b981" stroke="#0f172a" stroke-width="1"><title>2025-08-25
1 workout
Distance: 20.60 km
Duration: 45m
Avg speed: 27468.7 km/h
Elevation: 0 m</title></rect>
<rect x="476" y="14" width="12" height="12" fill="#34d399" stroke="#0f172a" stroke-width="1"><title>2025-08-26
1 workout
Distance: 20.33 km
Duration: 45m
Avg speed: 27110.8 km/h
Elevation: 0 m</title></rect>
<rect x="476" y="28" width="12" height="12" fill="#0f172a" stroke="#0f172a" stroke-width="1"/>
<rect x="476" y="42" width="12" height="12" fill="#0f172a" stroke="#0f172a" stroke-width="1"/>
<rect x="476" y="56" width="12" height="12" fill="#334155" stroke="#0f172a" stroke-width="1"><title>2025-08-29
1 workout
Distance: 19.82 km
Duration: 45m
Avg speed: 26420.0 km/h
Elevation: 0 m</title></rect>
<rect x="476" y="70" width="12" height="12" fill="#34d399" stroke="#0f172a" stroke-width="1"><title>2025-08-30
1 workout
Distance: 17.93 km
Duration: 40m
Avg speed: 26812.7 km/h
Elevation: 0 m</title></rect>
<rect x="476" y="84" width="12" height="12" fill="#334155" stroke="#0f172a" stroke-width="1"><title>2025-08-31
1 workout
Distance: 19.83 km
Duration: 45m
Avg speed: 26441.3 km/h
Elevation: 0 m</title></rect>
<rect x="490" y="0" width="12" height="12" fill="#0f172a" stroke="#0f172a" stroke-width="1"/>
<rect x="490" y="14" width="12" height="12" fill="#334155" stroke="#0f172a" stroke-width="1"><title>2025-09-02
1 workout
Distance: 19.87 km
Duration: 45m
Avg speed: 26496.1 km/h
Elevation: 0 m</title></rect>
<rect x="490" y="28" width="12" height="12" fill="#1f2937" stroke="#0f172a" stroke-width="1"><title>2025-09-03
1 workout
Distance: 19.13 km
Duration: 45m
Avg speed: 25507.5 km/h
Elevation: 0 m</title></rect>
<rect x="490" y="42" width="12" height="12" fill="#34d399" stroke="#0f172a" stroke-width="1"><title>2025-09-04
1 workout
Distance: 20.48 km
Duration: 45m
Avg speed: 27304.5 km/h
Elevation: 0 m</title></rect>
<rect x="490" y="56" width="12" height="12" fill="#334155" stroke="#0f172a" stroke-width="1"><title>2025-09-05
1 workout
Distance: 19.23 km
Duration: 43m
Avg speed: 26787.6 km/h
Elevation: 0 m</title></rect>
<rect x="490" y="70" width="12" height="12" fill="#0f172a" stroke="#0f172a" stroke-width="1"/>
<rect x="490" y="84" width="12" height="12" fill="#05ffa1" stroke="#0f172a" stroke-width="1"><title>2025-09-07
1 workout
Distance: 21.25 km
Duration: 45m
Avg speed: 28337.5 km/h
Elevation: 0 m</title></rect>
<rect x="504" y="0" width="12" height="12" fill="#334155" stroke="#0f172a" stroke-width="1"><title>2025-09-08
1 workout
Distance: 20.02 km
Duration: 45m
Avg speed: 26693.9 km/h
Elevation: 0 m</title></rect>
<rect x="504" y="14" width="12" height="12" fill="#10b981" stroke="#0f172a" stroke-width="1"><title>2025-09-09
1 workout
Distance: 20.61 km
Duration: 45m
Avg speed: 27482.1 km/h
Elevation: 0 m</title></rect>
<rect x="504" y="28" width="12" height="12" fill="#0f172a" stroke="#0f172a" stroke-width="1"/>
<rect x="504" y="42" width="12" height="12" fill="#05ffa1" stroke="#0f172a" stroke-width="1"><title>2025-09-11
1 workout
Distance: 21.32 km
Duration: 45m
Avg speed: 28425.9 km/h
Elevation: 0 m</title></rect>
<rect x="504" y="56" width="12" height="12" fill="#0f172a" stroke="#0f172a" stroke-width="1"/>
<rect x="504" y="70" width="12" height="12" fill="#0f172a" stroke="#0f172a" stroke-width="1"/>
<rect x="504" y="84" width="12" height="12" fill="#0f172a" stroke="#0f172a" stroke-width="1"/>
<rect x="518" y="0" width="12" height="12" fill="#0f172a" stroke="#0f172a" stroke-width="1"/>
<rect x="518" y="14" width="12" height="12" fill="#0f172a" stroke="#0f172a" stroke-width="1"/>
<rect x="518" y="28" width="12" height="12" fill="#0f172a" stroke="#0f172a" stroke-width="1"/>
<rect x="518" y="42" width="12" height="12" fill="#0f172a" stroke="#0f172a" stroke-width="1"/>
<rect x="518" y="56" width="12" height="12" fill="#0f172a" stroke="#0f172a" stroke-width="1"/>
<rect x="518" y="70" width="12" height="12" fill="#0f172a" stroke="#0f172a" stroke-width="1"/>
<rect x="518" y="84" width="12" height="12" fill="#0f172a" stroke="#0f172a" stroke-width="1"/>
<rect x="532" y="0" width="12" height="12" fill="#0f172a" stroke="#0f172a" stroke-width="1"/>
<rect x="532" y="14" width="12" height="12" fill="#0f172a" stroke="#0f172a" stroke-width="1"/>
<rect x="532" y="28" width="12" height="12" fill="#0f172a" stroke="#0f172a" stroke-width="1"/>
<rect x="532" y="42" width="12" height="12" fill="#0f172a" stroke="#0f172a" stroke-width="1"/>
<rect x="532" y="56" width="12" height="12" fill="#0f172a" stroke="#0f172a" stroke-width="1"/>
<rect x="532" y="70" width="12" height="12" fill="#0f172a" stroke="#0f172a" stroke-width="1"/>
<rect x="532" y="84" width="12" height="12" fill="#0f172a" stroke="#0f172a" stroke-width="1"/>
<rect x="546" y="0" width="12" height="12" fill="#0f172a" stroke="#0f172a" stroke-width="1"/>
<rect x="546" y="14" width="12" height="12" fill="#0f172a" stroke="#0f172a" stroke-width="1"/>
<rect x="546" y="28" width="12" height="12" fill="#0f172a" stroke="#0f172a" stroke-width="1"/>
<rect x="546" y="42" width="12" height="12" fill="#0f172a" stroke="#0f172a" stroke-width="1"/>
<rect x="546" y="56" width="12" height="12" fill="#0f172a" stroke="#0f172a" stroke-width="1"/>
<rect x="546" y="70" width="12" height="12" fill="#0f172a" stroke="#0f172a" stroke-width="1"/>
<rect x="546" y="84" width="12" height="12" fill="#0f172a" stroke="#0f172a" stroke-width="1"/>
<rect x="560" y="0" width="12" height="12" fill="#0f172a" stroke="#0f172a" stroke-width="1"/>
<rect x="560" y="14" width="12" height="12" fill="#0f172a" stroke="#0f172a" stroke-width="1"/>
<rect x="560" y="28" width="12" height="12" fill="#0f172a" stroke="#0f172a" stroke-width="1"/>
<rect x="560" y="42" width="12" height="12" fill="#0f172a" stroke="#0f172a" stroke-width="1"/>
<rect x="560" y="56" width="12" height="12" fill="#0f172a" stroke="#0f172a" stroke-width="1"/>
<rect x="560" y="70" width="12" height="12" fill="#0f172a" stroke="#0f172a" stroke-width="1"/>
<rect x="560" y="84" width="12" height="12" fill="#0f172a" stroke="#0f172a" stroke-width="1"/>
<rect x="574" y="0" width="12" height="12" fill="#0f172a" stroke="#0f172a" stroke-width="1"/>
<rect x="574" y="14" width="12" height="12" fill="#0f172a" stroke="#0f172a" stroke-width="1"/>
<rect x="574" y="28" width="12" height="12" fill="#0f172a" stroke="#0f172a" stroke-width="1"/>
<rect x="574" y="42" width="12" height="12" fill="#0f172a" stroke="#0f172a" stroke-width="1"/>
<rect x="574" y="56" width="12" height="12" fill="#0f172a" stroke="#0f172a" stroke-width="1"/>
<rect x="574" y="70" width="12" height="12" fill="#0f172a" stroke="#0f172a" stroke-width="1"/>
<rect x="574" y="84" width="12" height="12" fill="#0f172a" stroke="#0f172a" stroke-width="1"/>
<rect x="588" y="0" width="12" height="12" fill="#0f172a" stroke="#0f172a" stroke-width="1"/>
<rect x="588" y="14" width="12" height="12" fill="#0f172a" stroke="#0f172a" stroke-width="1"/>
<rect x="588" y="28" width="12" height="12" fill="#0f172a" stroke="#0f172a" stroke-width="1"/>
<rect x="588" y="42" width="12" height="12" fill="#0f172a" stroke="#0f172a" stroke-width="1"/>
<rect x="588" y="56" width="12" height="12" fill="#0f172a" stroke="#0f172a" stroke-width="1"/>
<rect x="588" y="70" width="12" height="12" fill="#0f172a" stroke="#0f172a" stroke-width="1"/>
<rect x="588" y="84" width="12" height="12" fill="#0f172a" stroke="#0f172a" stroke-width="1"/>
<rect x="602" y="0" width="12" height="12" fill="#0f172a" stroke="#0f172a" stroke-width="1"/>
<rect x="602" y="14" width="12" height="12" fill="#0f172a" stroke="#0f172a" stroke-width="1"/>
<rect x="602" y="28" width="12" height="12" fill="#0f172a" stroke="#0f172a" stroke-width="1"/>
<rect x="602" y="42" width="12" height="12" fill="#0f172a" stroke="#0f172a" stroke-width="1"/>
<rect x="602" y="56" width="12" height="12" fill="#0f172a" stroke="#0f172a" stroke-width="1"/>
<rect x="602" y="70" width="12" height="12" fill="#0f172a" stroke="#0f172a" stroke-width="1"/>
<rect x="602" y="84" width="12" height="12" fill="#0f172a" stroke="#0f172a" stroke-width="1"/>
<rect x="616" y="0" width="12" height="12" fill="#0f172a" stroke="#0f172a" stroke-width="1"/>
<rect x="616" y="14" width="12" height="12" fill="#0f172a" stroke="#0f172a" stroke-width="1"/>
<rect x="616" y="28" width="12" height="12" fill="#0f172a" stroke="#0f172a" stroke-width="1"/>
<rect x="616" y="42" width="12" height="12" fill="#0f172a" stroke="#0f172a" stroke-width="1"/>
<rect x="616" y="56" width="12" height="12" fill="#0f172a" stroke="#0f172a" stroke-width="1"/>
<rect x="616" y="70" width="12" height="12" fill="#0f172a" stroke="#0f172a" stroke-width="1"/>
<rect x="616" y="84" width="12" height="12" fill="#0f172a" stroke="#0f172a" stroke-width="1"/>
<rect x="630" y="0" width="12" height="12" fill="#0f172a" stroke="#0f172a" stroke-width="1"/>
<rect x="630" y="14" width="12" height="12" fill="#0f172a" stroke="#0f172a" stroke-width="1"/>
<rect x="630" y="28" width="12" height="12" fill="#0f172a" stroke="#0f172a" stroke-width="1"/>
<rect x="630" y="42" width="12" height="12" fill="#0f172a" stroke="#0f172a" stroke-width="1"/>
<rect x="630" y="56" width="12" height="12" fill="#0f172a" stroke="#0f172a" stroke-width="1"/>
<rect x="630" y="70" width="12" height="12" fill="#0f172a" stroke="#0f172a" stroke-width="1"/>
<rect x="630" y="84" width="12" height="12" fill="#0f172a" stroke="#0f172a" stroke-width="1"/>
<rect x="644" y="0" width="12" height="12" fill="#0f172a" stroke="#0f172a" stroke-width="1"/>
<rect x="644" y="14" width="12" height="12" fill="#0f172a" stroke="#0f172a" stroke-width="1"/>
<rect x="644" y="28" width="12" height="12" fill="#0f172a" stroke="#0f172a" stroke-width="1"/>
<rect x="644" y="42" width="12" height="12" fill="#0f172a" stroke="#0f172a" stroke-width="1"/>
<rect x="644" y="56" width="12" height="12" fill="#0f172a" stroke="#0f172a" stroke-width="1"/>
<rect x="644" y="70" width="12" height="12" fill="#0f172a" stroke="#0f172a" stroke-width="1"/>
<rect x="644" y="84" width="12" height="12" fill="#0f172a" stroke="#0f172a" stroke-width="1"/>
<rect x="658" y="0" width="12" height="12" fill="#0f172a" stroke="#0f172a" stroke-width="1"/>
<rect x="658" y="14" width="12" height="12" fill="#0f172a" stroke="#0f172a" stroke-width="1"/>
<rect x="658" y="28" width="12" height="12" fill="#0f172a" stroke="#0f172a" stroke-width="1"/>
<rect x="658" y="42" width="12" height="12" fill="#0f172a" stroke="#0f172a" stroke-width="1"/>
<rect x="658" y="56" width="12" height="12" fill="#0f172a" stroke="#0f172a" stroke-width="1"/>
<rect x="658" y="70" width="12" height="12" fill="#0f172a" stroke="#0f172a" stroke-width="1"/>
<rect x="658" y="84" width="12" height="12" fill="#0f172a" stroke="#0f172a" stroke-width="1"/>
<rect x="672" y="0" width="12" height="12" fill="#0f172a" stroke="#0f172a" stroke-width="1"/>
<rect x="672" y="14" width="12" height="12" fill="#0f172a" stroke="#0f172a" stroke-width="1"/>
<rect x="672" y="28" width="12" height="12" fill="#0f172a" stroke="#0f172a" stroke-width="1"/>
<rect x="672" y="42" width="12" height="12" fill="#0f172a" stroke="#0f172a" stroke-width="1"/>
<rect x="672" y="56" width="12" height="12" fill="#0f172a" stroke="#0f172a" stroke-width="1"/>
<rect x="672" y="70" width="12" height="12" fill="#0f172a" stroke="#0f172a" stroke-width="1"/>
<rect x="672" y="84" width="12" height="12" fill="#0f172a" stroke="#0f172a" stroke-width="1"/>
<rect x="686" y="0" width="12" height="12" fill="#0f172a" stroke="#0f172a" stroke-width="1"/>
<rect x="686" y="14" width="12" height="12" fill="#0f172a" stroke="#0f172a" stroke-width="1"/>
<rect x="686" y="28" width="12" height="12" fill="#0f172a" stroke="#0f172a" stroke-width="1"/>
<rect x="686" y="42" width="12" height="12" fill="#0f172a" stroke="#0f172a" stroke-width="1"/>
<rect x="686" y="56" width="12" height="12" fill="#0f172a" stroke="#0f172a" stroke-width="1"/>
<rect x="686" y="70" width="12" height="12" fill="#0f172a" stroke="#0f172a" stroke-width="1"/>
<rect x="686" y="84" width="12" height="12" fill="#0f172a" stroke="#0f172a" stroke-width="1"/>
<rect x="700" y="0" width="12" height="12" fill="#0f172a" stroke="#0f172a" stroke-width="1"/>
<rect x="700" y="14" width="12" height="12" fill="#0f172a" stroke="#0f172a" stroke-width="1"/>
<rect x="700" y="28" width="12" height="12" fill="#0f172a" stroke="#0f172a" stroke-width="1"/>
<rect x="700" y="42" width="12" height="12" fill="#0f172a" stroke="#0f172a" stroke-width="1"/>
<rect x="700" y="56" width="12" height="12" fill="#0f172a" stroke="#0f172a" stroke-width="1"/>
<rect x="700" y="70" width="12" height="12" fill="#0f172a" stroke="#0f172a" stroke-width="1"/>
<rect x="700" y="84" width="12" height="12" fill="#0f172a" stroke="#0f172a" stroke-width="1"/>
<rect x="714" y="0" width="12" height="12" fill="#0f172a" stroke="#0f172a" stroke-width="1"/>
<rect x="714" y="14" width="12" height="12" fill="#0f172a" stroke="#0f172a" stroke-width="1"/>
<rect x="714" y="28" width="12" height="12" fill="#0f172a" stroke="#0f172a" stroke-width="1"/>
<rect x="714" y="42" width="12" height="12" fill="#0f172a" stroke="#0f172a" stroke-width="1"/>
<rect x="714" y="56" width="12" height="12" fill="#0f172a" stroke="#0f172a" stroke-width="1"/>
<rect x="714" y="70" width="12" height="12" fill="#0f172a" stroke="#0f172a" stroke-width="1"/>
<rect x="714" y="84" width="12" height="12" fill="#0f172a" stroke="#0f172a" stroke-width="1"/>
<rect x="728" y="0" width="12" height="12" fill="#0f172a" stroke="#0f172a" stroke-width="1"/>
<rect x="728" y="14" width="12" height="12" fill="#0f172a" stroke="#0f172a" stroke-width="1"/>
<rect x="728" y="28" width="12" height="12" fill="#0f172a" stroke="#0f172a" stroke-width="1"/>
<rect x="728" y="42" width="12" height="12" fill="#0f172a" stroke="#0f172a" stroke-width="1"/>
<rect x="728" y="56" width="12" height="12" fill="#0f172a" stroke="#0f172a" stroke-width="1"/>
<rect x="728" y="70" width="12" height="12" fill="#0f172a" stroke="#0f172a" stroke-width="1"/>
<rect x="728" y="84" width="12" height="12" fill="#0f172a" stroke="#0f172a" stroke-width="1"/>
</g></svg>
